<?xml version="1.0" encoding="utf-8"?>
<!-- Generator: Adobe Illustrator 22.1.0, SVG Export Plug-In . SVG Version: 6.00 Build 0)  -->
<svg version="1.1" id="Layer_1" xmlns="http://www.w3.org/2000/svg" xmlns:xlink="http://www.w3.org/1999/xlink" x="0px" y="0px"
	 viewBox="0 0 480.2 576.4" style="enable-background:new 0 0 480.2 576.4;" xml:space="preserve">
<style type="text/css">
	.st0{fill:#282828;}
	.st1{fill:#00FF00;}
	.st2{fill:#FFFFFF;}
	.st3{filter:url(#Adobe_OpacityMaskFilter);}
	.st4{mask:url(#SVGID_1_);}
	.st5{fill:#8E284F;}
	.st6{fill:#8453C4;}
	.st7{fill:#FFD900;}
	.st8{fill:#C5C5C5;}
	.st9{fill:#2D719A;}
	.st10{fill:#1C981F;}
	.st11{fill:#797979;}
	.st12{fill:#84CB4E;}
	.st13{fill:#9F43DB;}
	.st14{fill:#5C2BD5;}
	.st15{fill:#E15AE1;}
	.st16{fill:#030404;}
	.st17{fill:#2A2A2A;}
	.st18{fill:none;stroke:#282828;stroke-width:3;stroke-miterlimit:10;stroke-dasharray:16.1442,16.1442;}
	.st19{fill:none;stroke:#282828;stroke-miterlimit:10;}
	.st20{fill:#00FF00;stroke:#2A2A2A;stroke-miterlimit:10;}
	.st21{fill:#FEFEFE;}
	.st22{fill:#010101;}
</style>
<g>
	<g id="UvBxVD_6_">
		<g>
			<path class="st1" d="M257.3,0.3c2.6-0.1,5.1,0.5,7.7,0.6c0.4,0,0.4,0.2,0.5,0.5c0.4,1.4,0.2,2.8,0.3,4.2c0.2,2.2,0.4,4.3,0.6,6.5
				c0.2,2.2,0.4,4.4,0.6,6.7c0.2,2,0.6,4,1.4,5.9c0.7,1.6,1.2,3.3,1.5,5c0.1,0.8,0.2,1.5,1.2,1.9c0.8,0.3,0.5,1.3,0.6,2
				c0,0.5-0.2,1-0.4,1.4c-0.6,1.3-0.5,1.9,0.4,3c1.3,1.6,3.1,2.6,4.9,3.6c2,1.1,4.1,2.2,6.2,3.3c3,1.6,6.2,2.4,9.6,2.8
				c0.9,0.1,1.8,0.2,2.6,0.8c0.8,0.6,1.2,1.7,0.6,2.4c-1.1,1.3-2.1,2.7-3.5,3.7c-0.7,0.5-1.7,0.5-2.4,0.9c-1.3,0.6-2.7,0.9-4,1.2
				c-2.7,0.7-5.1,1.7-7.6,2.8c-0.3,0.2-0.5,0.4-0.5,0.8c0,0.4,0.2,0.6,0.6,0.7c0.6,0.1,0.8,0.6,0.9,1.2c0.2,1.1,0.1,2.1-0.4,3.1
				c-0.2,0.4-0.4,0.8-0.6,1.2c-0.2,0.4-0.2,0.8,0.3,1.1c0.5,0.3,1,0.6,1.1,1.3c0,1,0.3,2.1-0.3,3c-0.2,0.4-0.6,0.7-0.7,1.2
				c1,0.5,1.5,1.4,1.6,2.5c0.2,1.3-0.1,2-1.3,2.7c-0.4,0.2-0.8,0.4-1.2,0.9c0.5,0,1,0,1.5,0c3.4,0,6.7,0.2,10,0.4
				c1.8,0.1,3.5,0.1,5.3,0.3c2.1,0.2,4.2,0.6,6.3,1c2.5,0.5,5.1,1,7.5,1.7c4.2,1.2,8.5,2.3,12.7,3.7c0.7,0.2,1.3,0.6,2,0.9
				c0.7,0.3,1.5,0.6,2.3,0.8c0.8,0.1,1.6,0.5,2.1,1.3c-5.4,4.2-10.4,8.8-14.8,14.2c1.3,0.6,2.6,0.6,3.7,1.1c0.5,0.2,1.1,0.3,1.6,0.6
				c1.5,0.9,3.2,0.8,4.8,1.1c1.9,0.3,3.7,0.7,5.4,1.6c2.1,1,3.3,2.6,4.2,4.5c1.3,2.7,2.4,5.5,3.2,8.4c0.7,2.4,1.6,4.8,2.4,7.2
				c1.2,3.6,2.5,7.1,3,10.9c0,0.3,0.1,0.6,0.1,0.9c0.1,1.7-0.1,2-1.7,2.6c-1,0.4-1,0.4-0.8,1.4c1.1,4.7,2.7,9.2,3.8,13.9
				c0.6,2.4,1,4.8,1.6,7.3c0.5,2.2,1.1,4.3,2,6.4c1.4,3.3,3.1,6.5,4.3,9.8c1,2.8,2.3,5.5,3.3,8.2c1.1,3.1,2.3,6.2,3.5,9.3
				c2.1,5.7,4.1,11.4,6.1,17.1c0.7,1.9,1.6,3.6,2.3,5.5c1,2.6,1.6,5.3,1.7,8.1c0.1,3.5-0.5,6.9-1.1,10.3c-0.4,2-0.6,4.1-1.1,6.1
				c-0.8,3.3-1.6,6.5-3,9.5c-1.4,3-2.7,6.1-4.2,9.1c-1.3,2.6-2.7,5.1-4,7.6c-2,4-4.7,7.7-7.2,11.5c-1.9,2.9-4,5.8-5.5,9
				c-1.7,3.7-3.1,7.4-4.3,11.3c-0.3,1-0.6,2-0.9,2.9c-0.2,0.4-0.2,1-0.9,1c-0.4,0-0.3,0.5-0.4,0.7c-0.7,1.4-0.6,3-1.4,4.3
				c-0.2,0.3-0.1,0.6,0.1,0.8c0.2,0.4,0.5,0.8,0.9,1.2c0.5,0.4,1.3,0.6,1.3,1.4c0.1,0.9-0.1,1.8-0.5,2.7c-0.6,1.4-1.7,2.5-2.7,3.6
				c-1.6,1.8-2.8,3.9-4.5,5.6c-0.3,0.3-0.4,0.6-0.4,1.1c0.1,1.4-0.1,2.8,0.2,4.2c0.2,1-0.1,2-0.1,3c-0.1,1.9-0.1,3.8-0.1,5.7
				c0,5-0.1,10,0,14.9c0,3.2,0,6.4,0.6,9.6c0.3,1.3,0.2,1.4,1.6,1.1c0.6-0.1,1.2-0.4,1.6,0.4c0.1,0.3,0.4,0.1,0.6,0.1
				c0.6-0.2,1,0.1,1.1,0.8c0.2,1.9,0.9,3.7,1.1,5.5c0.3,2.7,0.6,5.4,1,8.1c0.5,4.4,0.8,8.8,1.4,13.2c0.2,1.3,0.1,2.6,0,3.9
				c0,0.3-0.1,0.6-0.2,0.8c-0.1,0.4-0.4,0.5-0.8,0.6c-0.4,0-0.7-0.3-0.7-0.6c0-0.7-0.4-0.7-0.9-0.7c-2.4,0.3-4.8,0.9-7.1,1.3
				c-1.5,0.3-3,0.3-4.5,0.4c-2.7,0.2-5.3,0.5-8,0.7c-3.1,0.2-6.1,0.1-9.2-0.2c-2.8-0.2-5.5-0.4-8.3-0.3c-0.5,0-0.6,0.3-0.7,0.7
				c-0.4,2.6-0.8,5.3-0.9,8c-0.1,2.3-0.4,4.5-0.5,6.8c-0.2,4.3-0.5,8.6-0.3,13c0.1,3.9,0.1,7.9-0.1,11.9c-0.2,3.1-0.7,6.2-1,9.3
				c-0.2,2.2-0.3,4.4-0.4,6.5c-0.2,3.2-0.3,6.4-0.5,9.6c-0.3,4.7-0.3,9.4-0.3,14.2c0,1.9,0,3.7,0,5.6c0,0.7,0.2,1,0.9,0.9
				c1-0.1,2,0.1,3,0.2c0.8,0.1,1.4,0.4,2.1,0.7c0.7,0.4,1.1,1,1,1.9c-0.2,1.4-0.8,2.7-1.2,4c-0.2,0.6-0.7,0.7-1.2,0.7
				c-1.1,0.1-2.1,0.3-3.2,0.4c0.3,3,0.1,5.9,0.2,8.8c0.2,10.5,0,21,0.1,31.5c0,3.3,1,6.3,2.6,9.1c0.6,1.1,1.2,2.1,1.7,3.2
				c0.9,1.7,2.4,2.9,4,4c0.4,0.3,0.8,0.6,1.2,1c0.7,0.7,1.6,1.3,2.6,1.4c0.6,0.1,1.3,0.3,1.8,0.6c1.8,1.2,3.8,1.6,5.8,2.2
				c1.9,0.6,3.6,1.5,5.2,2.8c3.2,2.7,3.8,6.2,3.7,10.1c0,0.8-0.2,1.4-0.9,1.8c-0.4,0.2-0.8,0.6-0.3,1.2c0.4,0.5,0.1,1-0.5,1.1
				c-1.2,0.3-2.4,0.8-3.7,0.8c-1.6,0-3.2,0.2-4.8-0.2c-0.5-0.1-1.1,0.1-1.6,0.2c-1.7,0.3-3.4,0.3-5.1,0.4c-2.4-0.1-4.8-0.1-7.2,0
				c-1.3-0.1-2.6-0.3-3.9-0.5c-0.6-0.1-1.2-0.1-1.7-0.1c-3.3,0.4-6.3-0.7-9.4-1.3c-1.8-0.4-2.8-1.9-3.3-3.6c-0.6-1.9-1-3.7-2-5.4
				c-0.6-1-1.5-1.6-2.1-2.4c-0.6,0.2-0.5,0.6-0.5,0.9c-0.1,2.4-0.5,4.7-1,7c-0.2,0.7-0.6,1.1-1.3,1.4c-1,0.5-1.9,0.7-2.9,0.4
				c-1.1-0.3-2.3-0.3-3.5-0.3c-0.8,0-1.3-0.2-1.6-1c-0.3-0.7-0.6-1.4-0.6-2.2c-0.4-4.3-0.5-8.6-0.5-13c0-6.5,0-13.1-0.1-19.6
				c-0.1-2.4-0.1-4.9-0.2-7.3c-0.1-1.5,0.1-3.1,0-4.7c-0.2-4.2-0.5-8.3-1.1-12.5c-0.3-2.5-0.4-5-0.6-7.5c-0.2-2.2-0.5-4.3-0.7-6.5
				c-0.1-0.8-0.5-1.4-1.3-1.4c-1.1-0.1-2.2-0.6-3.3-0.7c-0.1,0-0.3-0.1-0.4-0.1c-1.4-0.4-1.8-1.2-1.1-2.5c0.3-0.6,0.6-1.2,1.2-1.7
				c0.3-0.3,0.7-0.5,0.8-0.8c0.1-1.7,1.5-1.4,2.5-1.5c0.4-0.1,0.9-0.1,1.3-0.1c0.7,0,0.8-0.3,0.8-0.9c-0.1-1.4-0.1-2.7-0.3-4.1
				c-0.1-0.9-0.1-1.8-0.1-2.6c0-6.2,0.1-12.4,0-18.6c-0.2-5.9-0.1-11.9-0.3-17.8c-0.1-4.7-0.5-9.4-1-14.1c-0.4-3.6-0.7-7.2-0.7-10.8
				c0.1-4.9,0-9.8,0.1-14.6c0-1.7-0.8-2.1-2.2-2c-4.1,0.2-8.3,0.2-12.4,0c-2.1-0.1-4.2-0.2-6.3-0.3c-0.7,0-1.1,0.1-1.2,1
				c-0.3,1.8-0.4,3.6-0.4,5.4c-0.1,4.5,0,9.1-0.2,13.6c-0.1,1.8,0.2,3.7,0,5.5c-0.3,3.4-0.2,6.8-0.4,10.2c-0.2,2.4-0.3,4.8-0.5,7.1
				c-0.3,4-0.3,8-0.8,11.9c-0.1,1,0,2-0.1,3.1c-0.1,3.5-0.2,7.1-0.3,10.7c-0.1,4.3-0.1,8.6-0.3,12.9c-0.1,1.7-0.1,3.4-0.3,5.1
				c0,0.7,0.1,1,0.9,0.9c0.6-0.1,1.2,0,1.8,0c1.3-0.1,2.3,0.6,3.3,1.3c1,0.7,2.2,5.1,1.9,6.2c-0.2,0.8-1.2,1.4-2.2,1.4
				c-1.7,0-3.4,0.4-5.1,0.2c-0.6-0.1-0.9,0.1-0.8,0.8c0.1,4.3-0.1,8.6,0.2,12.9c0.4,5,0.6,10.1,1.1,15.1c0.2,1.8,0.2,3.7,0.3,5.5
				c0.2,3.5-0.1,7.1,0.5,10.6c0.7,4,0.6,8.1,1.4,12.1c0.1,0.4,0.2,0.7,0.4,1.1c2,3.2,3.4,6.6,4.1,10.3c0.2,1,0,1.9,0.2,2.9
				c0.1,0.6-0.6,0.6-0.6,1c-0.1,0.8-0.5,0.4-0.9,0.4c-2.2-0.1-4.5,0-6.7,0.2c-1.2,0.1-2.3,0.2-3.5,0.2c-2.1-0.1-4.3,0.2-6.4,0.2
				c-0.4,0-0.8,0-1.2,0.2c-2.3,1-4.8,0.6-7.2,0.7c-0.1,0-0.2,0-0.3,0c-2.2-1.1-4.6-0.6-7-0.8c-1.6-0.2-2.3-1.1-2.8-2.2
				c-0.3-0.8-0.3-1.8,0-2.6c0.6-1.8,0.6-3.8,1-5.6c0.2-1,0.4-2,0.9-2.8c0.8-1.3,1.4-2.7,2.4-3.9c0.6-0.7,0.4-1.9,0.1-2.7
				c-0.5-1.3-0.5-2.6-0.6-3.8c-0.2-1.7-0.7-3.4-0.8-5.1c-0.1-1.4-0.4-2.9-0.4-4.3c0-3.8,0-7.5-0.1-11.3c-0.1-2.3-0.4-4.5-0.8-6.8
				c-0.5-2.9-0.8-5.8-0.9-8.7c-0.1-1.7-0.3-3.5-0.5-5.2c-0.2-2.8-0.4-5.6-0.6-8.4c0-0.6-0.2-0.7-0.7-0.8c-0.7-0.1-1.5-0.1-2.2-0.2
				c-1.8-0.1-2.5-0.8-2.7-2.6c0,0,0-0.1,0-0.1c-0.2-2.8,0.5-3.5,3.5-4c0.2,0,0.4-0.1,0.6-0.1c1.1-0.1,1.1-0.1,1-1.2
				c-0.1-1.7-0.1-3.3-0.2-5c-0.1-3-0.5-5.9-0.7-8.8c-0.1-1.9-0.3-3.8-0.5-5.7c-0.2-3.1-0.5-6.3-0.8-9.4c-0.4-3.6-0.8-7.3-1.2-10.9
				c-0.3-3.2-0.5-6.4-0.7-9.6c-0.2-4.3-0.3-8.6-0.6-12.8c-0.3-4-0.8-7.9-1-11.9c-0.1-2-0.3-4-0.5-6c-0.2-2.9-0.5-5.7-0.5-8.6
				c0-0.4-0.2-0.6-0.6-0.6c-0.8-0.1-1.6-0.2-2.5-0.2c-2.6,0-5.2-0.4-7.8-0.8c-1.5-0.2-3-0.4-4.5-0.5c-2.1-0.1-4.1-0.5-6.1-0.8
				c-1.4-0.2-2.8-0.2-4.1-0.6c-1-0.3-1-0.2-1.1-1.3c-0.1-2.4,0.2-4.8,0.2-7.1c0.1-4,0.1-8,0-12c-0.1-3.1-0.4-6.2-0.3-9.3
				c0-1.2,0-1.2,1.2-1.4c0.6-0.1,1.1-0.2,1.8-0.3c0-2.5,0.1-5-0.2-7.5c-0.1-0.9-0.2-1.7-0.2-2.6c0-3.3,0-6.5,0-9.8
				c0-0.7-0.2-1.1-0.7-1.4c-0.9-0.6-1.6-1.3-2.3-2.2c-0.8-1-1.9-1.7-2.8-2.7c-1.3-1.4-2.5-2.9-3.6-4.5c-0.6-0.9-1.4-1.8-2.1-2.7
				c-1.6-1.8-2.2-2.6-0.6-5.5c0.9-1.6,2-3.1,2.8-4.8c0.7-1.4,1.5-2.7,2.2-4.1c0.3-0.6,0.4-1-0.1-1.7c-1.8-2.1-3.5-4.5-5.2-6.7
				c-1.3-1.7-2.7-3.4-4.2-5c-1.7-1.9-3.2-3.9-4.7-6c-3-4.2-6-8.4-9.5-12.2c-1.7-1.8-3.5-3.7-5.2-5.5c-2.5-2.5-5-5-7.5-7.5
				c-0.7-0.7-1.3-1.4-1.7-2.3c-0.5-0.8-1.3-1.3-1.9-2.1c-1.7-2.7-3.6-5.4-5.4-8.1c-0.7-1-1.2-2.2-1.7-3.3c-0.2-0.6-0.5-1.2-0.8-1.8
				c-0.2-0.5-0.4-1-0.5-1.5c-0.5-3.7-0.8-7.5-1.3-11.3c-0.5-4.1-0.4-8.3-0.4-12.4c0-2.7,0.5-5.4,1.8-7.8c0.6-1.1,0.9-2.2,1.3-3.3
				c0.6-2,1.6-3.8,2.3-5.8c1.2-3.1,2.4-6.2,3.6-9.3c1-2.5,2.2-5,3.2-7.5c0.8-2,1.8-3.9,2.4-6c0.2-0.6,0.7-1.1,0.9-1.8
				c0.8-2.1,1.6-4.2,2.4-6.4c0.5-1.5,1-3.1,1.4-4.7c0.4-1.4,1-2.8,1.5-4.2c1-3.1,2.1-6.1,2.9-9.3c0.7-2.4,1.4-4.8,2-7.3
				c0.7-2.8,1.8-5.5,2.3-8.2c0.5-2.8,1.4-5.4,1.8-8.2c0.1-0.6,0.6-1.1,0.8-1.6c-0.5-0.3-1-0.6-1.4-0.9c-0.9-0.8-1.6-1.7-1.6-3
				c0-2.3-0.1-4.6,0.4-6.8c1-3.9,1.9-7.9,3.2-11.8c0.8-2.4,2.2-4.5,3.3-6.8c0.3-0.6,0.7-0.9,1.4-0.9c2.5-0.1,4.9-0.8,7.3-1.3
				c2.8-0.6,5.6-1.2,8.4-1.8c0.7-0.2,1.5,0,2.2-0.2c-0.1-0.3-0.5-0.4-0.8-0.5c-2.6-0.7-5.2-1.3-7.9-1.7c-1.9-0.3-3.8-0.8-5.7-1.3
				c-0.5-0.1-1-0.3-1.6-0.2c-0.3,0-0.6-0.1-0.8-0.3c-0.4-0.4-0.3-0.8,0.1-0.9c2.4-0.6,4.2-2.4,6.5-3.2c2.3-0.8,4.3-2.3,6.5-3.3
				c2.4-1.2,5-2.2,7.5-3.3c2.3-1,4.6-1.9,6.9-2.7c3.1-1.1,6.2-1.9,9.4-2.4c3.3-0.5,6.6-0.8,10-1.2c2.5-0.3,5.1-0.3,7.6-0.5
				c1.5-0.2,3-0.2,4.5-0.3c0.2-0.3,0-0.5-0.1-0.7c-0.6-0.7-0.8-1.5-0.7-2.5c0-0.4,0-0.8,0-1.2c-0.1-1.1-0.1-1.1-1.2-1.1
				c-2.6,0-3-0.5-2.1-3.1c0.3-0.8,0.6-1.5,0.9-2.3c-0.1-0.1-0.1-0.2-0.2-0.2c-1.8-0.8-1.8-1-1.2-2.8c0.4-1.3,1.2-2.6,2.4-3.4
				c0.5-0.3,0.7-0.6,0.4-1.3c-0.4-0.9-0.1-1.8,0.4-2.6c0.2-0.3,0.5-0.6,0.8-0.9c-0.3-0.5-0.8-0.4-1.3-0.5c-4.1-0.3-8.2-1-12.2-1.8
				c-1.8-0.4-3.6-0.5-5.2-1.2c-0.4-0.2-0.6,0.1-0.9,0.2c-0.3,0.2-0.6,0.2-0.8,0c-0.3-0.3-0.1-0.7,0.1-0.9c0.9-1,1.9-1.8,3-2.5
				c1.5-0.8,3.2-1.1,4.8-1.8c2.6-1.2,5.5-1.9,8-3.4c1.6-1,3.4-1.8,5.1-2.9c2.1-1.4,4.1-2.9,6-4.7c0.5-0.5,0.7-1,0.7-1.7
				c0.2-2.4,0.3-4.7,0.5-7.1c0.1-1.3,0.2-2.6,0.4-3.9c0.4-2.8,0.3-5.6,0.2-8.3c-0.1-3-0.6-6-1.5-8.9c-0.6-2.1-1.5-4.2-1.7-6.5
				c-0.1-0.6-0.8-1-0.4-1.6c0.3-0.5,1-0.4,1.5-0.7c3.4-1.7,7.1-2.2,10.8-2.8c3.1-0.5,6.3-0.8,9.4-1.2c2.4-0.3,4.9-0.8,7.4-1
				c1.6-0.1,3.1,0,4.7-0.2c0.8,0,1.6,0.4,2.3-0.3c0.9,0,1.8,0,2.6,0C255.9,0.7,256.6,0.2,257.3,0.3z M235.6,83.5
				c1.2,0,2.3,0.1,3.3-0.8c0.2-0.2,0.5-0.3,0.8-0.3c1.8-0.5,2.3-2,2.4-3.6c0.2-2.5,0.4-4.9,0.9-7.3c0-0.2,0.1-0.4,0.3-0.4
				c0.2,0,0.4,0.1,0.5,0.3c0.1,0.1,0.1,0.3,0.1,0.4c0.1,2.3,0.6,4.5,0.6,6.8c0,0.7,0,1.4-1,1.4c-0.6,0-0.6,0.7-0.7,1.1
				c-0.1,0.5,0.4,0.7,0.7,0.8c0.3,0.1,0.7,0.2,1,0.1c0.8-0.1,1.1,0.1,1.1,0.9c0,0.7,0.5,0.9,1.1,0.8c0.5-0.1,0.7-0.4,0.6-1
				c-0.1-0.8,0.2-1.2,1.1-0.9c0.2,0.1,0.5,0,0.6-0.2c0.2-0.2,0-0.5-0.1-0.7c-0.1-0.2-0.2-0.5-0.5-0.5c-1.3-0.1-1.2-1-1.2-1.9
				c0.1-1.4,0.1-2.8-0.2-4.2c-0.2-0.8-0.3-1.6-0.3-2.5c0-0.6-0.3-1.3,0.5-1.6c0.5-0.2,0.7,0.4,0.8,1.6c0,0.8,0,1.6,0.4,2.3
				c0.9,1.6,1.1,3.3,1.4,5c0.1,0.6,0.3,1.1,0.5,1.6c0.3,0.6,0.6,0.7,1.1,0.4c0.7-0.5,1.4-0.2,2,0.2c0.8,0.4,0.9,1.3,1.4,2
				c0.7-0.3,1.2-0.9,2-1c1-0.1,0.8,1.1,1.6,1.4c0.2-0.2,0.4-0.4,0.6-0.6c0.5-0.5,0.9-1.1,1.4-1.7c0.9-1,1.6-0.8,2.2,0.3
				c0.2,0.3,0.1,0.8,0.5,1c0.1-0.1,0.2-0.1,0.2-0.2c0.4-1.2,0.9-2.2,2.4-1.9c0.3,0.1,0.5-0.3,0.6-0.6c0.3-0.6,0.4-1.2,0.6-1.8
				c0.2-0.7,0.2-1.5,0.7-2.1c0.5-0.6,0.5-1.2,0.5-1.9c0-0.5,0-1,0.1-1.5c0.3-1.4,0.1-2.8,0.2-4.2c0-0.6-0.3-0.7-0.8-0.7
				c-0.6,0-0.8,0.4-1.1,0.8c-0.9,2-2.8,2.9-4.8,3.5c-2.2,0.6-4.4,0.6-6.6,0.6c-1.4,0-2.7-0.5-3.7-1.5c-0.4-0.4-0.7-0.8-1.1-1.2
				c-0.2-0.3-0.5-0.4-0.9-0.5c-2.7-0.4-5.3-0.3-8,0.1c-0.4,0.1-0.6,0.2-0.8,0.6c-0.2,0.5-0.5,1-0.7,1.4c-0.8,1.6-2,2.6-3.8,3
				c-1.1,0.3-2.3,0.5-3.4,0.7c-0.7,0.1-1.4,0.1-2,0c-1.7-0.2-3.2-0.9-4.6-1.7c-1.6-0.9-2.7-2.1-3.1-3.9c-0.1-0.6-0.5-0.8-1-0.7
				c-0.3,0-0.7,0-1,0c-0.5,0-0.7,0.3-0.6,0.7c0.2,0.7,0.3,1.4,0.5,2.1c0.4,1.6,0.7,3.3,1.3,4.9c0.2,0.5,0.4,0.8,1.1,0.5
				c1.8-0.6,2.4-0.2,2.8,1.6c0.3,1.3,0.3,1.3,1.6,1c0.8-0.2,1.6-0.3,2.3,0c0.7,0.2,0.9,0.9,1,1.5c0.1,0.4,0.5,0.5,0.8,0.4
				c1.1-0.5,2,0.3,2.9,0.6C235.6,82.7,235.7,83.1,235.6,83.5C235.6,83.5,235.6,83.5,235.6,83.5c-0.1,0.1-0.1,0.1-0.1,0.1
				C235.6,83.6,235.6,83.5,235.6,83.5z M187.9,267.3c0.4-0.5,0.9-0.9,1.3-1.4c1.7-2,3.7-2.4,6-1.1c2.1,1.2,4.4,2.1,6.7,2.8
				c2.7,0.9,5.4,1.8,8,3.3c1.9,1.1,3.8,2,5.9,2.6c0.7,0.2,1.2,0.6,1.8,1c0.8,0.6,0.9,1.2,0.8,2.1c-0.6,3.5-2.2,6.5-3.9,9.6
				c-1.4,2.7-2.9,5.3-4,8.1c-1.2,3-2.5,6-3.7,9c-0.9,2.3-2,4.7-3,7c-1.4,3.1-2.5,6.3-3.7,9.5c-0.5,1.2-1.1,2.4-1.5,3.6
				c-1.2,3.5-2.8,6.9-4.3,10.2c-1.2,2.7-2.8,5.2-4.3,7.8c-1.1,1.9-2.2,3.8-3.6,5.5c-0.8,1-1.7,1.8-2.8,2.3c-2.2,1.1-4.3,0.8-6.1-0.8
				c-0.7-0.6-1.4-1.2-2.1-1.6c-0.3,0.2-0.3,0.4-0.3,0.6c0.1,3.3-0.3,6.5,0.3,9.8c0.4,2.7,0.4,5.4,0.4,8.2c0,0.3,0,0.7,0,1
				c0,0.6,0.4,0.9,0.9,0.8c0.8-0.2,1.6-0.1,2.3-0.2c3.5-0.2,6.9,0.3,10.4,0.2c7.5,0,15,0.1,22.5-0.2c4-0.2,8.1-0.2,12.1,0
				c3.3,0.1,6.5,0.2,9.8,0.3c1.2,0,1.3,0,1.4-1.2c0.2-2.4,0.2-4.8,0.4-7.1c0.2-2.5,0.3-5,0.7-7.4c0.2-1.3,0.4-2.6,0.6-3.9
				c0.2-1.5,0.1-2.9,0.3-4.4c0.6-3.4,1-6.8,1.3-10.3c0.4-4.7,0.6-9.3,0.6-14c0-4.6,0.1-9.3-0.1-13.9c-0.2-4.5-0.4-9.1-0.4-13.6
				c0-4.1-0.1-8.2-0.3-12.3c-0.2-3.4-0.4-6.8-0.6-10.2c-0.1-2.3-0.3-4.7-0.6-7c-0.2-1.9-0.5-3.9-0.6-5.8c-0.2-2.8-0.3-5.5-0.3-8.3
				c0-2-0.1-4-0.2-6c-0.1-3.4-0.5-6.8-0.7-10.2c-0.2-3.3-0.7-6.7-1-10c-0.3-3.2-0.4-6.4-0.7-9.6c-0.2-2.5-0.1-5-0.1-7.5
				c0-6.7,0.1-13.4,0.1-20.1c0-2.6,0.1-5.2-0.2-7.7c-0.1-0.6-0.3-1-0.7-1.3c-4.8-3.6-9.4-7.5-13.9-11.6c-2-1.8-4.2-3.5-6.4-5.1
				c-1.9-1.3-4-2.4-5.9-3.8c-0.5-0.4-1.1-0.7-1.9-0.8c-2.1-0.3-4.1-0.6-6.2-1c-3.2-0.6-6.3-1.1-9.5-1.2c-2.5-0.1-4.9-0.4-7.2-1.1
				c-4-1.2-8.1-1.7-12-2.9c-2.1-0.6-4.3-1-6.5-1.8c-1.8-0.6-3.6-1.1-5.5-1.7c-2.1-0.7-2.2-0.6-2.8,1.4c0,0.1-0.1,0.2-0.1,0.3
				c-0.4,2.2-0.9,4.4-1.2,6.6c-0.3,2.3-0.8,4.6-1.6,6.8c-0.9,2.2-1.8,4.4-2.8,6.6c-1.9,4-3.1,8.3-4.5,12.5c-1.2,3.5-2.1,7-3.3,10.4
				c-1.9,5.4-3.3,10.9-5,16.3c-1.4,4.2-2.5,8.5-4.4,12.5c-0.6,1.3-1.1,2.6-1.4,4c-0.2,1-0.6,2.1-0.8,3.1c-0.6,2.5-1.6,4.8-2.1,7.3
				c-0.2,1.1-0.3,2.2-0.3,3.3c-0.3,3.3-0.8,6.7,0.1,10c0.8,2.9,1.4,5.8,2.8,8.4c1.3,2.5,2.7,5.1,4,7.7c0.5,1,1,2,1.5,3
				c2.4,4.1,4.6,8.2,7.2,12.2c2,3,3.9,5.9,6.4,8.5c4.1,4.2,7.8,8.7,11.2,13.4c1.7,2.5,3.7,4.7,5.8,6.9c1.5,1.6,3.3,3,4.6,4.9
				c0.1,0.1,0.2,0.2,0.6,0c0.2-0.4,0.5-0.9,0.7-1.4c1.6-3.3,3-6.8,4.1-10.3c1.7-5.2,3.7-10.3,5.9-15.4c1.5-3.4,2.8-6.9,3.9-10.5
				c0.1-0.4,0.3-0.8-0.4-0.8c-0.6-0.1-0.8-0.6-1.1-1.1c-1.3-2-2.6-4-4-5.9c-2.1-2.8-4.3-5.5-6.4-8.3c-3.1-4.2-6.1-8.4-8.5-13
				c-0.9-1.6-0.7-3,0.5-4.4c0.5-0.5,1-1,1.5-1.6c0.8-0.8,0.8-0.9,0.3-1.9c-0.2-0.5-0.5-0.9-0.9-1.3c-0.8-0.8-1.5-1.7-2.2-2.5
				c-0.5-0.5-0.7-1.1-0.7-1.8c-0.1-2,0.2-4,0.3-6c0.1-1.6,0.2-3.2,0.3-4.8c0.3-3.3,0.8-6.7,1-10c0.3-4.4,1.3-8.6,3.1-12.7
				c1.2-2.8,2.5-5.6,3.6-8.5c1.3-3.1,2.1-6.4,3-9.6c0.2-0.7,0.5-1.4,0.8-2c0.3-0.7,0-1.5,0-2.3c0.8,0,1.2,0.4,1.3,1
				c0.1,0.5,0.2,1,0.2,1.6c0,1.5-0.3,2.9-0.5,4.3c-0.5,3.1-1,6.2-1.6,9.3c-0.8,4-2.1,7.9-3,11.9c-0.5,2.1-1.2,4.2-1.6,6.4
				c-0.5,2.6,0,5.3-0.5,7.9c0,0.2,0.1,0.5,0.1,0.7c0.2,0.8,0.4,1.6,0.6,2.4c0.5,2.2,1.6,4.2,2.2,6.3c0.6,1.9,1.4,3.7,2.2,5.6
				c1,2.6,1.4,5.5,1.8,8.2c0.5,3.4,1.1,6.7,1.4,10.1c0.1,1,0.3,1.9,0.8,2.8c2.2,4.4,4.6,8.7,7.5,12.6
				C187.3,266.2,187.3,266.9,187.9,267.3z M314,260.9c0.3,0,0.5-0.2,0.5-0.3c0.7-1.3,1.1-2.7,1.1-4.2c0-1.7,0.1-3.3,0.5-4.9
				c0.6-3,1.4-6,2-9.1c0.6-3,0.2-5.9-1.6-8.5c-0.5-0.7-0.9-1.4-0.9-2.3c-0.1-2.8-0.1-5.5,0.7-8.3c0.7-2.3,1.3-4.7,1.9-7
				c0.3-1.4,0.2-2.6-0.8-3.8c-0.8-0.9-1.6-2-1.7-3.3c-0.1-1.3-0.2-2.7,0-3.9c0.5-3,0.6-6,0.6-9c0-1.3-0.3-2.5-0.8-3.7
				c-1.1-2.3-1.6-4.7-1.6-7.2c0-2.4,0-4.9,0.1-7.3c0-1.2,0-2.3-0.2-3.5c-0.2-1.3-0.3-2.6-0.4-3.9c0-0.5,0-1.1,0.9-1.2
				c0,0.8,0,1.6,0.2,2.3c0.2,1,0.5,2,0.8,3c0.4,1.9,0.7,3.9,1.6,5.7c0.7,1.4,1.1,2.9,1.6,4.4c0.6,1.9,1,3.7,1.7,5.6
				c1.8,5.3,3,10.7,4,16.1c0.6,3.4,1.2,6.8,1.6,10.2c0.3,2.6,0.9,5.1,1,7.7c0,3.1,0,6.2-0.1,9.4c0,0.4,0,0.9-0.2,1.3
				c-0.7,1.3-0.8,2.8-1,4.2c-0.3,2.5-0.6,5-1.5,7.4c-1.4,3.8-3.1,7.4-5.3,10.9c-1.3,2-2.3,4.2-4,5.9c-0.2,0.2-0.2,0.5-0.1,0.8
				c0.3,1.9,0.8,3.8,1.5,5.6c0.8,2.2,1.4,4.6,2.3,6.8c1.9,4.9,3.8,9.8,5.4,14.8c1.2,3.5,2.2,7.1,3.6,10.5c0.3,0.8,0.6,1.6,1.1,2.3
				c0.3-0.6,0.2-1.1,0.1-1.6c-0.3-1.2-0.2-2.3-0.2-3.5c0.1-1.5,0.2-3.1,1-4.5c0.8-1.4,1.6-2.9,2.1-4.5c1.1-3.5,3.1-6.5,5-9.5
				c3.4-5.3,7-10.5,9.6-16.3c0.5-1,1.1-1.9,1.6-2.9c1.4-2.6,3-5.1,4.1-7.7c1.4-3.2,2.6-6.4,3.6-9.7c0.7-2.3,1.4-4.7,2-7
				c0.9-3.6,1.3-7.3-0.1-10.9c-0.5-1.2-0.9-2.5-1.8-3.5c-0.5-0.5-0.8-1.2-1.1-1.9c-0.7-1.4-1.3-3-2-4.4c-0.8-1.4-1.4-2.9-1.8-4.4
				c-0.6-2.2-1.3-4.5-2.3-6.6c-0.7-1.4-1.4-2.8-1.8-4.3c-1.1-4-2.7-7.8-4.5-11.5c-1.9-4.1-3.8-8.2-5.2-12.6c-1.1-3.5-2.1-7-2.4-10.6
				c-0.2-2.5-0.7-4.9-1.3-7.3c-1.1-4.5-1.4-9.1-1.2-13.8c0-0.8,0-0.9-0.7-0.7c-1.5,0.4-3.1,0.9-4.6,1.4c-3.8,1.1-7.7,1.8-11.6,2.4
				c-3,0.5-6,1-8.9,1.4c-0.6,0.1-1.1,0.4-1.5,0.8c-0.8,0.9-1.8,1.6-2.8,2.3c-3.7,2.7-7.1,5.7-10.2,9.1c-1.7,1.9-3.3,3.9-5.2,5.5
				c-1.6,1.4-3,2.8-2.5,5.2c0,0.1,0,0.3,0,0.4c0.1,7.6-0.2,15.2,0.2,22.8c0.2,3.3,0.2,6.6,0.3,9.9c0,7.5,0.4,14.9-0.1,22.4
				c-0.3,4.2-0.4,8.4-0.6,12.5c-0.2,3.9,0,7.8-0.3,11.7c-0.2,3.3-0.1,6.6-0.1,10c0,9,0,18.1,0,27.1c0,1.5,0,2.9,0.1,4.4
				c0.5,4.6,0.7,9.2,1.1,13.8c0.1,1.7,0.1,3.5,0.4,5.2c0.9,5.5,1.5,11,1.9,16.5c0.2,3,0.4,5.9,0.3,8.9c0,0.6,0,1.3,0.1,1.9
				c0.3,3.2,0.6,6.5,0.8,9.7c0.1,2.2,0.3,4.4,0.5,6.5c0.2,2,0.5,4,0.7,5.9c0.2,1.7,0.7,3.4,1.1,5.1c0.1,0.6,0.4,0.9,1.1,1
				c2.2,0.4,4.4,0.4,6.5,0.1c1.8-0.2,3.6-0.5,5.4-0.5c5.9,0,11.8,0,17.7,0c1.8,0,3.6-0.3,5.4-0.2c0.6,0,0.7-0.2,0.6-0.8
				c-0.6-3.1-0.7-6.2-0.7-9.3c0-5.9,0.1-11.7,0-17.6c0-3.1,0.4-6.2,0.3-9.3c0-0.3,0.2-0.7-0.3-1c-0.5,0.5-1,1-1.4,1.6
				c-0.5,0.6-0.9,1.1-1.4,1.7c-1.3,1.4-2.3,1.4-3.6,0.1c-0.2-0.2-0.5-0.5-0.7-0.8c-1.5-2.3-3.1-4.5-4.5-6.8c-2.5-4.2-5-8.4-7.1-12.7
				c-1-1.9-1.8-3.9-3-5.7c-0.7-1.1-1.3-2.2-1.8-3.3c-1.5-3.3-2.9-6.6-4.2-9.9c-1.3-3.5-2.5-6.9-3.3-10.6c-0.2-1.2-0.4-2.4-0.4-3.6
				c0.1-1.3,0.6-2.1,1.7-2.7c0.8-0.4,1.5-0.9,2.2-1.5c3.6-3.5,6.9-7.3,9.9-11.3c1-1.3,2-2.7,2.9-4c0.3-0.5,0.7-0.8,1.2-0.9
				c0.3,0,0.8-0.2,0.7,0.5C313.4,260.2,313.8,260.6,314,260.9z M157,102.7c0.5,0.2,0.9,0.3,1.3,0.4c3.2,0.7,6.5,1.3,9.7,2.1
				c5.2,1.1,9.9,3.4,14.5,6.1c1.8,1,3.5,2.1,5.2,3.2c1,0.6,2,1.3,2.8,2.3c0.1,0.2,0.4,0.5,0.1,0.6c-0.8,0.3-1.1,1.2-1.9,1.5
				c-0.8,0.3-1.5,0.7-2.1,1.2c-2.2,1.9-4.6,3.4-6.7,5.4c-3.5,3.3-6.7,6.9-9.3,11c-0.2,0.3-0.5,0.5-0.2,1c3.1-0.3,6,0.6,9,1.5
				c0.3,0.1,0.7,0.2,1,0.2c5.9,0.7,11.3,2.9,16.7,5.1c4.7,1.9,9,4.5,13.3,7c1.2,0.7,2.4,1,3.5,1.7c1.6,0.9,3.1,1.8,4.6,2.8
				c1.3,0.9,2.7,1.6,3.7,2.8c2.7,2.8,5.6,5.3,8.4,8.1c1.9,1.9,4,3.6,6,5.4c2.7,2.5,5.4,4.9,7.9,7.6c1.1,1.3,2.3,2.5,3.4,3.8
				c2.5,3.2,5.1,6.4,8.2,9.1c1.3,1.1,2.6,2.3,3.9,3.5c0.2-0.7-0.2-1.2-0.2-1.7c-0.5-3.4-1.1-6.8-1.5-10.2c-0.1-1.4-0.1-2.7-0.3-4.1
				c-0.3-2.7-0.7-5.3-0.8-8c-0.1-4.4-0.3-8.8-0.6-13.3c-0.2-2.7-0.4-5.4-1-8.1c-0.8-4.2-1.3-8.4-1.5-12.7c-0.1-2-0.3-4.1-0.7-6.1
				c-0.3-1.5-0.9-2.9-1.1-4.4c-0.3-2.4-1.5-4.5-1.9-6.8c-0.8,0-1.5,0-2.1,0c-0.3,0-0.6,0-0.8-0.2c-1-1.2-2.6-1.5-3.8-2.4
				c-0.2-0.1-0.4-0.3-0.6-0.3c-1.5,0.1-2.8-0.6-4.2-1.2c-2-0.9-4.2-1.7-5.6-3.6c-0.5-0.7-1.2-0.9-2.1-0.9c-0.8,0-1.6,0.1-2.3-0.1
				c-3.3-0.8-4.8-3.2-5.6-6.3c-0.5-2-1-3.9-2.5-5.5c-0.7-0.7-1.6-1.3-2.2-2.2c-1.7-2.3-2-4.9-1.1-7.6c0.3-0.9,0.1-1.5-0.5-2.1
				c-0.4-0.4-1-0.7-1.3-1.2c-0.5-0.9-1.1-0.9-1.9-0.9c-2.6,0.2-5.2,0.4-7.9,0.6c-4.8,0.3-9.6,0.8-14.3,1.5c-2.6,0.4-5.3,1-7.8,1.8
				c-5.9,2-11.5,4.7-17.1,7.4c-1.3,0.6-2.4,1.6-3.8,2.1c-1.2,0.4-2.3,1-3.4,1.6C158.5,101.8,157.6,101.9,157,102.7z M312.4,136.4
				c-1.4-1.2-2.3-2.6-3.6-3.7c-1-0.9-2.1-1.6-3.1-2.4c-1.8-1.5-3.8-2.9-6-3.8c-1.8-0.7-3.5-1.3-5.3-1.9c-0.4-0.1-0.7-0.2-1-0.5
				c-0.1-0.1-0.2-0.2-0.1-0.4c0.1-0.1,0.2-0.2,0.3-0.2c0.3,0,0.6,0.1,0.9,0.1c0.4,0.1,0.6,0,0.8-0.4c0.8-1.9,2.1-3.5,3.4-5.1
				c1-1.2,2.1-2.3,3.1-3.5c2.1-2.5,3.9-5.1,6.1-7.4c1-1,2-2,2.8-3.2c2.1-2.8,4.4-5.5,7.1-7.9c2.4-2.1,4.5-4.6,7.2-6.3
				c0.2-0.1,0.3-0.3,0.3-0.5c-0.7-0.5-1.5-0.1-2.2-0.5c-1.9-1.1-4-1.6-6-2.2c-5-1.4-9.9-2.9-15-3.9c-4.8-1-9.7-1.7-14.6-2.1
				c-3.5-0.3-7-0.4-10.5-0.3c-0.4,0-0.9,0.1-1.3,0.2c-0.5,0.1-0.7,0.4-0.6,0.8c0.4,1.4,0.3,2.8,0.2,4.2c-0.2,2.4-0.4,4.7-1.3,7
				c-0.5,1.3-1.4,2.4-1.3,4c0,0.3-0.2,0.6-0.4,0.9c-0.4,0.9-0.9,1.8-0.5,2.9c0.2,0.5,0,1-0.1,1.6c-0.4,1.3-1.1,2.4-1.9,3.4
				c-1,1.4-2.4,2.6-2.9,4.4c-0.1,0.4-0.4,0.7-0.5,1c-0.6,1.1-1.4,1.9-2.6,2.2c-0.3,0.1-0.7,0.1-0.7,0.4c-0.5,1.5-1.9,2.2-2.9,3.2
				c-1.2,1-2.6,1.8-4.3,1.3c-0.9-0.3-1.8,0-2.7,0.4c-0.7,0.3-0.8,0.6-0.5,1.3c1,2.6,2.4,5.1,2.9,7.9c0.4,1.9,0.9,3.8,1.2,5.7
				c0.5,3.4,0.8,6.9,0.9,10.3c0,0.5,0.1,1,0.2,1.4c0.5,3.1,1.1,6.1,1.5,9.2c0.2,1.3,0.4,2.6,0.3,3.9c-0.1,1.7-0.1,3.3,0.1,5
				c0.3,3.1,0.3,6.1,0,9.2c-0.1,1.4-0.1,2.8,0,4.2c0.2,2.4,0.2,4.9,0,7.3c0,0.3,0,0.7,0,1c0.3,3.1,1.3,6,1.4,9.1
				c0,0.4,0.1,0.8,0.6,0.9c0.7-0.7,1.1-1.6,1.6-2.4c1.2-2,2.3-4,3.6-5.8c3.1-4.4,6.4-8.7,9.5-13.1c0.9-1.2,1.8-2.3,2.5-3.6
				c0.7-1.3,1.6-2.5,2.6-3.5c2.8-3.1,5.8-6.2,8.7-9.3c1.2-1.3,2.5-2.5,3.5-3.9c0.8-1.1,1.8-2.1,2.7-3.1c0.8-0.9,1.6-1.9,2.5-2.7
				c3.1-2.7,6.4-5.2,9.8-7.6C309.8,138.4,311,137.4,312.4,136.4z M260,40.9c7.1-3.3,8.1-5.7,9.9-7.9c-1.1-0.5-1.3-0.7-1.3-1.4
				c0-1.4-0.5-2.7-0.9-4c-1.4-4.3-2.2-8.7-2.3-13.2c-0.1-3.6-0.5-7.3-0.6-10.9c0-1.4-0.2-1.6-1.7-1.8c-2.5-0.4-5-0.3-7.6-0.6
				c-1.8-0.2-3.7,0.2-5.5,0.2c-3.6,0-7.1,0.4-10.6,1c-4.7,0.7-9.4,1.1-14,2c-2.4,0.5-4.8,1.1-7.2,2c-0.5,0.2-0.7,0.4-0.5,0.9
				c0.4,1.3,0.8,2.7,1.2,4c1.6,4.4,2.1,9,2.4,13.6c0.3,4.8-0.5,9.5-0.7,14.3c0,0.8,0.1,1.3,0.7,1.7c0.9,0.6,1.7,1.3,2.7,1.7
				c2.5,0.8,5.1,1.5,7.8,1.6c1.2,0,2.4,0.3,3.9,0.5c-0.7,0.6-1.2,0.7-1.8,0.8c-0.9,0.1-1.8,0.3-2.7,0.4c-2.2,0.4-4.4,0.5-6.5-0.3
				c-1.3-0.5-2.7-0.8-4.1-1.1c-0.8-0.2-1.2,0-1.7,0.5c-1.7,1.8-3.5,3.5-5.7,4.8c-0.6,0.3-0.6,0.7,0,1.1c1.7,1,3.3,2.1,5.3,2.5
				c2.8,0.6,5.6,0.5,8.4,0.8c1.6,0.2,3.3,0.1,4.8,1c-1.4,0.6-2.7,0.3-4.1,0.3c-2.2,0-4.5-0.4-6.7-0.4c-2.9-0.1-5.5-1.1-7.8-2.8
				c-1.7-1.2-1.6-1.2-3.4-0.4c-0.2,0.1-0.3,0.2-0.5,0.3c-2.9,1.4-5.8,2.8-8.8,3.8c-1.3,0.4-2.5,0.9-3.7,1.6c0.4,0.3,0.7,0.2,1,0.2
				c1.8-0.2,3.6,0.1,5.4,0.4c3,0.5,6,0.8,9,0.8c1.6,0,3.3,0.1,4.9,0.4c3.9,0.7,7.9,1,11.9,1.2c3.8,0.2,7.5,0.8,11.3,1.2
				c1.8,0.2,3.7,0.4,5.5-0.2c1.8-0.6,3.7-0.8,5.5-1.1c2.8-0.4,5.6-0.6,8.4-0.3c1.1,0.1,1.9,0,2.7-0.5c2.7-1.7,5.7-2.5,8.8-2.8
				c3-0.3,5.8-0.9,8.7-1.9c2.3-0.8,4.6-1.4,6.9-2.3c1.3-0.5,2.7-0.9,4-1.5c1-0.4,2-1,2.4-2c-0.2-0.3-0.4-0.3-0.6-0.3
				c-3.8-0.5-7.5-1.4-11-3.3c-0.8-0.4-1.5-0.8-2.3-1.3c-2.4-1.3-4.8-2.5-7.3-3.5c-0.6,0.6-1.4,1.1-2.1,1.7c-2.7,2.3-6,3.3-9.4,3.9
				c-2.1,0.3-4.2,0.6-6.4,0.7c-1.4,0.1-2.7,0.5-4,0.6c-2.4,0.3-4.8-0.3-7.2-0.4c0,0,0-0.1-0.1-0.2c0.8-0.6,1.8-0.6,2.7-0.8
				c4.6-0.9,9.2-1.5,13.7-2.6c3.2-0.8,6.1-2,8.9-3.9c1.4-0.9,2.1-1.8,1.4-3.4c0-0.1-0.1-0.1-0.3-0.3c-1.4,1.6-3.6,2.2-5.2,3.6
				C262.8,40.6,261.6,41.2,260,40.9z M254.7,96.1c0-1.1,0.1-2-0.3-2.8c-0.5-1.2-0.8-2.5-2.3-3c-3.4-1-6.8-1.2-10.1,0.4
				c-0.8,0.4-1.2,0.9-1.4,1.7c-0.3,1.8-0.6,3.5-0.6,5.4c0,1.3,0.4,1.8,1.7,2c0.2,0,0.5,0,0.7,0c1.9-0.4,3.9-0.1,5.8-0.2
				c1.6-0.1,3.3-0.3,4.8-0.9C254.5,98.1,255.1,97.4,254.7,96.1z M214.3,66.9c-0.1,0.3-0.1,0.4-0.2,0.6c-0.7,3.9,1.1,6.8,3.3,9.7
				c0.1,0.2,0.3,0.2,0.5,0.1c0.3-0.1,0.4-0.3,0.4-0.6c0-0.2,0-0.4,0-0.6c-0.3-1.7-0.5-3.4-0.7-5c-0.2-1.6-0.7-2.6-2.1-3.3
				C215.1,67.7,214.8,67.3,214.3,66.9z M225.7,66.2c0.4,1.5,1.2,2.7,2.3,3.5c0.8,0.6,1.6,1,2.7,1.1c0.4,0,0.8,0,0.8-0.6
				c0-0.8,0.1-1.6,0.1-2.3c0.1-0.8-0.2-1.1-1-1.2C229,66.3,227.4,66.4,225.7,66.2z M271.9,73.8c2.6-3,3.8-7.1,2.9-9.1
				c-0.8,0.8-1.6,1.5-2.5,2c-0.3,0.2-0.4,0.5-0.4,0.9C271.9,69.7,271.9,71.7,271.9,73.8z M252.7,65.8c0.9,1.3,1.8,2.3,3.2,3
				c0.4,0.2,0.8,0.3,1.3,0.3c0.9,0,1.1-0.2,1.1-1.1c0-0.5,0-1,0-1.5c0-1.1,0-1.1-1.1-1.2C255.6,65.2,254.2,65.6,252.7,65.8z
				 M232.5,70.9c1.8,0.1,3-0.8,4.1-1.9c0.5-0.5,1.2-1,1-2c-1.5-0.1-2.9,0.1-4.4-0.2c-0.4-0.1-0.6,0.1-0.6,0.6
				C232.7,68.6,232.6,69.8,232.5,70.9z M259.2,68.8c2.6-0.1,4.6-1.6,4.9-3.8c-1.4,0.1-2.7,0.2-4.1,0.3c-0.6,0-0.8,0.3-0.8,0.8
				C259.4,67,259.4,67.9,259.2,68.8z M231.5,65.5c-1.7-0.5-3.5-0.4-5.1-1c-0.3-0.1-0.6-0.1-0.6,0.3c0,0.3,0,0.6,0.4,0.6
				c0.1,0,0.2,0,0.3,0c1.6,0,3.1,0,4.6,0.3C231.2,65.8,231.3,65.7,231.5,65.5z M232.7,65.7c0.5,0.3,0.8,0.4,1.2,0
				C233.5,65.5,233.2,65.5,232.7,65.7z"/>
			<path class="st1" d="M480.2,319c-1.1,0.8-2.3,0.6-3.5,0.4c-0.6-0.1-1.1-0.1-1.7,0.1c-0.7,0.2-1.4,0.1-2,0.1c-2.9,0-5.8,0-8.7,0.6
				c-3.2,0.7-6.1,1.8-9,3.2c-5.1,2.4-9.6,5.5-14,8.8c-3.8,2.8-6,6.7-7.4,11c-0.8,2.5-1.6,5.1-2.1,7.7c-0.3,1.6-0.3,3.3-0.4,4.9
				c-0.2,4,0.3,8,0.9,11.9c0.3,2.5,0.6,5,0.7,7.5c0.2,2.9,0.1,5.8,0.3,8.8c0.2,2.9,0.2,5.7,0.1,8.6c-0.1,3.6-0.5,7.2-1,10.7
				c-0.4,3.1-1.2,6.2-1.9,9.3c-0.9,4.1-2.3,8.1-3.7,12.1c-1.4,4-3,8-5.1,11.7c-1.9,3.3-4.1,6.4-6.8,9.2c-1.7,1.8-3.4,3.6-5.2,5.2
				c-3.1,2.7-6.2,5.3-9.8,7.2c-2.4,1.3-5,2-7.7,2.5c-3.6,0.6-7.3,1-11,1.3c-3.1,0.2-6.1,0.2-9.2,0.1c-4.3-0.1-8.6-0.2-12.9-0.3
				c-2.6-0.1-5-0.8-7-2.7c-1.1-1.1-2.3-2.3-3.7-3c-0.6-0.3-1.1-1-0.9-1.8c0.2-0.8,0.8-1.1,1.8-1.1c3.5-0.1,6.6-1.3,9.6-3.1
				c2.4-1.5,4.8-3,7.1-4.6c3.4-2.2,6.8-4.5,9.9-7.2c2-1.7,3.7-3.6,5.4-5.6c1.3-1.6,2.2-3.4,3.1-5.2c2.5-5,5-10,7.4-15.1
				c1.9-4.1,3.3-8.3,4.1-12.8c0.4-2.5,1-5,1.3-7.6c0.1-0.9,0.3-1.8,0.2-2.8c-0.1-1.1,0.2-2.2,0.2-3.3c0.1-3.2-0.3-6.3-0.9-9.4
				c-0.7-4.3-1.6-8.7-1.8-13.1c-0.2-3-0.1-5.9-0.1-8.9c0-2.6,0.8-5.1,1.7-7.5c1.7-4.4,3.7-8.6,6.1-12.7c2.4-4.2,4.7-8.4,6.9-12.7
				c1-1.9,2.4-3.5,4-5c1.5-1.4,3-2.9,4.6-4.2c0.5-0.4,1-0.8,1.5-1.2c-3.8-1.1-6.7-3.3-9.2-6.1c-3.3-3.7-6.2-7.7-9-11.8
				c-0.8-1.2-1.5-2.4-2-3.7c-0.8-2-1.8-3.9-2.2-6c-0.5-2.3-0.8-4.6-1-6.9c-0.2-3.3-0.2-6.6-0.3-9.9c-0.1-3.3,0.4-6.5,0.9-9.7
				c0.4-2.2,0.5-4.5,0.9-6.8c0.4-3.1,1-6.1,1.8-9.1c0.4-1.6,0.7-3.2,1.1-4.8c0.6-2.1,1.1-4.3,2.1-6.4c0.9-1.9,1.4-3.9,2.2-5.9
				c1-2.4,1.9-4.9,2.9-7.3c1.7-4.5,3-9.2,3.6-13.9c0.6-4.7,0.7-9.4,0.3-14.1c-0.2-2-0.8-4-1.1-6c-0.7-3.7-1.9-7.2-3.3-10.7
				c-1-2.5-2.2-5-3.6-7.3c-1.6-2.6-3.1-5.3-4.8-7.8c-3-4.5-6.1-8.9-10.2-12.5c-3-2.7-6.2-5.2-9.5-7.4c-2.6-1.7-5-3.7-7.7-5.2
				c-0.7-0.4-1.4-0.9-1.5-1.9c-0.1-0.9,0.2-1.3,1.1-1.6c1.8-0.6,3.7-0.9,5.5-1.3c2.7-0.5,5.3-1.4,7.9-2c2.9-0.7,5.8-1.2,8.8-0.9
				c1.7,0.2,3.5,0.3,5.2,0.4c2.4,0,4.8,0.6,7.1,1c1.2,0.2,2.3,0.8,3.4,1.3c3.2,1.7,6.3,3.6,9.2,5.9c2.8,2.3,5.3,4.8,7.8,7.5
				c2,2.2,4,4.4,5.9,6.6c3,3.4,5.8,7,8.1,10.9c1.5,2.6,2.6,5.4,3.3,8.4c0.6,2.5,0.9,5.1,1.2,7.6c0.7,5,0.5,10.1,0.6,15.1
				c0.2,7.1,0.2,14.2,0.2,21.4c0,3.3-0.4,6.5-1,9.7c-0.6,3.2-1.4,6.3-2.3,9.5c-1,3.6-1.7,7.4-2.7,11c-1.2,4.1-1.8,8.3-2.5,12.5
				c-1.2,6.4-1.3,12.9-0.9,19.3c0.1,2.2,0.8,4.4,1.2,6.6c0.7,3.5,2.3,6.6,3.7,9.8c0.4,0.9,1,1.8,1.6,2.6c2.3,3.2,4.5,6.4,7.4,9.2
				c3,3,6.4,5.5,9.8,7.9c2.3,1.6,4.7,3,7.1,4.3c1.4,0.8,2.8,1.3,4.3,1.8c2.1,0.8,4.2,1.5,6.4,1.9c0.5,0.1,1.1,0.1,1.6,0.1
				c0.7,0,1.3,0.1,1.7,0.6C480.2,317.8,480.2,318.4,480.2,319z"/>
			<path class="st1" d="M298.2,576.2c2.4-0.1,4.8-0.1,7.2,0l0,0.1l-0.1,0.1c-2.3,0-4.7,0-7,0l-0.1-0.1L298.2,576.2z"/>
			<path class="st1" d="M252.6,0c-0.7,0.7-1.6,0.2-2.3,0.3c0-0.1,0-0.2,0-0.3C251.1,0,251.9,0,252.6,0z"/>
			<path class="st1" d="M257.3,0.3c-0.7-0.1-1.4,0.4-2-0.3c0.7,0,1.4,0,2.1,0c0,0.1-0.1,0.1-0.1,0.2C257.2,0.2,257.3,0.3,257.3,0.3z
				"/>
			<path class="st1" d="M69.5,309.1c1.5,1.4,2.9,2.7,4.4,3.9c1.8,1.6,3.6,3.3,4.9,5.3c0.9,1.4,1.8,3,2.5,4.5
				c1.6,3.4,3.7,6.5,5.4,9.8c1.2,2.2,2.3,4.4,3.4,6.7c0.6,1.3,1.2,2.6,1.7,3.9c0.9,2.5,1.8,4.9,2.2,7.6c0.4,3,0.2,6,0.2,9.1
				c-0.1,2.8-0.4,5.5-0.9,8.2c-0.4,2.5-1.1,5-1.4,7.5c-0.4,3.3-0.7,6.5-0.5,9.9c0.2,2.5,0.3,4.9,0.7,7.4c0.6,3.6,1.3,7.1,2.3,10.6
				c1.4,4.7,3.7,9,5.9,13.3c1.4,2.8,2.6,5.6,4.1,8.4c1.9,3.6,4,6.9,7.1,9.6c2.1,1.9,4.3,3.7,6.6,5.3c1.2,0.8,2.4,1.8,3.7,2.5
				c2.6,1.5,5.1,3.3,7.7,4.9c1.2,0.7,2.4,1.5,3.6,2c2,0.9,4.2,1.4,6.4,1.5c0.4,0,0.8,0,1.3,0.2c0.9,0.5,1.1,1.4,0.4,2.2
				c-0.2,0.2-0.4,0.5-0.6,0.6c-1.7,0.9-3,2.3-4.4,3.6c-1.1,1-2.4,1.4-3.8,1.8c-0.8,0.2-1.7,0.3-2.6,0.3c-3,0.1-6,0.1-8.9,0.1
				c-1.5,0-3,0.2-4.5,0.2c-4.6,0-9.1-0.1-13.7-0.6c-3-0.3-6-0.8-8.9-1.4c-2.5-0.5-4.6-1.7-6.7-3c-5.3-3.3-9.7-7.6-13.9-12.1
				c-2.3-2.5-4.4-5.4-6-8.4c-1.9-3.4-3.5-7-4.7-10.7c-0.7-2.2-1.4-4.4-2.3-6.5c-0.4-0.9-0.5-2-0.8-2.9c-0.3-1.2-0.5-2.4-1-3.5
				c-0.4-1.1-0.5-2.3-0.7-3.4c-0.2-1-0.6-2.1-0.7-3.1c-0.1-1.1-0.2-2.3-0.5-3.3c-0.4-1.2-0.2-2.4-0.5-3.5c-0.2-0.7,0-1.5-0.1-2.3
				c-0.4-3.6-0.4-7.2-0.3-10.8c0.1-4.5,0.3-9,0.6-13.6c0.2-3,0.7-6.1,1.1-9.1c0.4-3.4,0.5-6.8,0.3-10.1c-0.1-1.2-0.4-2.3-0.7-3.5
				c-0.6-2.9-1.5-5.8-2.5-8.6c-1-2.7-2.2-5.3-4.4-7.2c-2.3-2-4.9-3.8-7.4-5.6c-3.3-2.4-6.9-4.1-10.5-5.9c-1.2-0.6-2.4-1.2-3.7-1.7
				c-1.1-0.5-2.5-0.5-3.7-0.8c-0.8-0.2-1.6-0.3-2.5-0.5c-0.7-0.2-1.5-0.3-2.3-0.3c-1.7,0-3.3,0.2-5,0c-1.8-0.2-3.5,0-5.2-0.1
				c-0.9,0-1.2-0.3-1.4-1.1c-0.2-0.7,0.2-1.4,0.9-1.7c0.2-0.1,0.5-0.2,0.7-0.2c2.5-0.1,4.8-0.7,7.1-1.6c1.3-0.5,2.6-1,3.9-1.5
				c2.2-0.8,4.1-2,6-3.2c2.6-1.6,5-3.3,7.4-5.2c3.4-2.7,6.5-5.6,9.1-9.1c1.6-2.2,3.3-4.3,4.7-6.7c0.9-1.6,1.6-3.2,2.3-4.9
				c1.1-2.5,1.7-5.3,2.3-7.9c0.4-1.9,0.7-3.9,0.8-5.9c0.1-4.2,0-8.5-0.4-12.7c-0.3-3.6-1.1-7.2-1.8-10.8c-0.3-1.7-0.4-3.4-0.9-5
				c-0.5-1.8-1.1-3.6-1.4-5.5c-0.5-2.7-1.3-5.3-2-8c-0.5-2-1.1-3.9-1.5-5.9c-0.7-3.1-1.2-6.2-1.4-9.3c-0.4-6.6-0.2-13.2-0.1-19.7
				c0.1-3.7,0-7.5,0.1-11.3c0.1-2.4,0-4.8,0.3-7.1c0.3-2.4,0.4-4.8,1-7.2c0.9-4.1,2.3-8,4.6-11.6c3.2-5,7.2-9.4,11.1-13.9
				c2.1-2.3,4.2-4.6,6.5-6.7c2.5-2.4,5.1-4.5,8-6.3c1.7-1,3.4-2,5.2-3c1.2-0.7,2.6-1,4-1.3c1.1-0.2,2.3-0.4,3.4-0.6
				c1.1-0.2,2.2-0.1,3.3-0.1c2.1-0.1,4.2-0.4,6.3-0.4c3.1,0,6,0.7,9,1.6c1.6,0.5,3.3,0.9,4.9,1.3c2,0.5,4.2,0.7,6.2,1.4
				c0.6,0.2,1.3,0.2,1.4,1c0.1,0.8-0.1,1.5-0.9,2c-0.8,0.5-1.6,1.1-2.4,1.6c-1.5,0.9-2.8,2.1-4.2,3c-1.4,0.9-2.7,1.8-4.1,2.7
				c-5.4,3.7-10.1,8-13.9,13.3c-2.9,4-5.5,8.1-7.9,12.3c-1.1,2-2.1,4-3.1,6c-1.2,2.4-2.1,4.9-2.9,7.5c-1.9,6.3-3,12.7-2.5,19.3
				c0.2,2.2,0.2,4.4,0.5,6.5c0.6,3.8,1.4,7.5,2.7,11.2c0.9,2.6,1.9,5.1,2.9,7.6c0.6,1.6,1.3,3.2,1.8,4.9c0.3,1.1,0.8,2.1,1.2,3.1
				c1.3,3.1,2.1,6.4,2.8,9.6c0.6,2.5,1.1,5.1,1.7,7.6c0.3,1.5,0.5,3,0.7,4.6c0.3,2.6,0.7,5.2,1.1,7.7c0.3,1.6,0.4,3.2,0.4,4.8
				c0,3.5,0.1,7-0.1,10.5c-0.2,3.1-0.4,6.3-1.4,9.3c-0.8,2.5-1.7,5-3.1,7.3c-2.2,3.6-4.7,7-7.4,10.3c-1.4,1.7-2.8,3.5-4.5,5
				c-1.5,1.4-3.2,2.4-5,3.3C70.9,308.6,70.4,309.3,69.5,309.1z"/>
			<path class="st1" d="M187.9,267.3c-0.6-0.4-0.6-1.1-1-1.6c-2.9-4-5.3-8.3-7.5-12.6c-0.5-0.9-0.7-1.8-0.8-2.8
				c-0.3-3.4-0.9-6.7-1.4-10.1c-0.4-2.8-0.8-5.6-1.8-8.2c-0.7-1.8-1.6-3.7-2.2-5.6c-0.6-2.1-1.7-4.1-2.2-6.3
				c-0.2-0.8-0.4-1.6-0.6-2.4c-0.1-0.2-0.2-0.5-0.1-0.7c0.5-2.6,0-5.3,0.5-7.9c0.4-2.2,1.1-4.2,1.6-6.4c0.9-4,2.3-7.8,3-11.9
				c0.6-3.1,1.1-6.2,1.6-9.3c0.2-1.4,0.6-2.9,0.5-4.3c0-0.5-0.1-1.1-0.2-1.6c-0.2-0.6-0.6-1-1.3-1c0,0.8,0.3,1.5,0,2.3
				c-0.3,0.7-0.6,1.3-0.8,2c-0.9,3.2-1.7,6.5-3,9.6c-1.1,2.8-2.4,5.6-3.6,8.5c-1.7,4.1-2.8,8.3-3.1,12.7c-0.2,3.3-0.7,6.7-1,10
				c-0.2,1.6-0.3,3.2-0.3,4.8c-0.1,2-0.4,4-0.3,6c0,0.7,0.2,1.3,0.7,1.8c0.8,0.8,1.5,1.7,2.2,2.5c0.4,0.4,0.6,0.9,0.9,1.3
				c0.5,1,0.5,1.1-0.3,1.9c-0.5,0.5-1.1,1-1.5,1.6c-1.3,1.4-1.4,2.8-0.5,4.4c2.5,4.6,5.4,8.9,8.5,13c2.1,2.8,4.3,5.5,6.4,8.3
				c1.4,1.9,2.7,3.9,4,5.9c0.3,0.5,0.5,1,1.1,1.1c0.6,0.1,0.5,0.5,0.4,0.8c-1.1,3.6-2.5,7.1-3.9,10.5c-2.1,5.1-4.2,10.2-5.9,15.4
				c-1.1,3.5-2.5,7-4.1,10.3c-0.2,0.5-0.5,1-0.7,1.4c-0.3,0.2-0.5,0.1-0.6,0c-1.3-1.8-3.1-3.3-4.6-4.9c-2.1-2.2-4.1-4.4-5.8-6.9
				c-3.4-4.8-7.1-9.2-11.2-13.4c-2.5-2.6-4.4-5.5-6.4-8.5c-2.6-4-4.8-8.1-7.2-12.2c-0.6-1-1-2-1.5-3c-1.3-2.6-2.6-5.1-4-7.7
				c-1.4-2.7-2-5.6-2.8-8.4c-0.9-3.4-0.4-6.7-0.1-10c0.1-1.1,0.1-2.2,0.3-3.3c0.5-2.5,1.6-4.8,2.1-7.3c0.2-1,0.6-2.1,0.8-3.1
				c0.3-1.4,0.8-2.7,1.4-4c2-4,3.1-8.3,4.4-12.5c1.7-5.4,3.1-11,5-16.3c1.2-3.4,2.1-7,3.3-10.4c1.4-4.2,2.7-8.5,4.5-12.5
				c1-2.2,2-4.4,2.8-6.6c0.9-2.2,1.3-4.5,1.6-6.8c0.3-2.2,0.8-4.4,1.2-6.6c0-0.1,0-0.2,0.1-0.3c0.7-2.1,0.8-2.1,2.8-1.4
				c1.8,0.6,3.7,1,5.5,1.7c2.1,0.8,4.3,1.1,6.5,1.8c4,1.2,8.1,1.7,12,2.9c2.3,0.7,4.7,1,7.2,1.1c3.2,0.1,6.4,0.6,9.5,1.2
				c2.1,0.4,4.1,0.8,6.2,1c0.7,0.1,1.3,0.4,1.9,0.8c1.8,1.4,4,2.5,5.9,3.8c2.2,1.6,4.4,3.2,6.4,5.1c4.4,4.1,9,8,13.9,11.6
				c0.5,0.4,0.7,0.7,0.7,1.3c0.4,2.6,0.2,5.2,0.2,7.7c0,6.7,0,13.4-0.1,20.1c0,2.5-0.1,5,0.1,7.5c0.3,3.2,0.4,6.4,0.7,9.6
				c0.3,3.3,0.8,6.7,1,10c0.2,3.4,0.7,6.8,0.7,10.2c0,2,0.1,4,0.2,6c0,2.8,0.1,5.5,0.3,8.3c0.1,1.9,0.3,3.9,0.6,5.8
				c0.3,2.3,0.4,4.6,0.6,7c0.2,3.4,0.4,6.8,0.6,10.2c0.2,4.1,0.3,8.2,0.3,12.3c0,4.5,0.2,9.1,0.4,13.6c0.2,4.6,0.2,9.3,0.1,13.9
				c0,4.7-0.2,9.3-0.6,14c-0.3,3.4-0.7,6.9-1.3,10.3c-0.3,1.4-0.1,2.9-0.3,4.4c-0.2,1.3-0.4,2.6-0.6,3.9c-0.4,2.4-0.5,4.9-0.7,7.4
				c-0.2,2.4-0.1,4.8-0.4,7.1c-0.1,1.2-0.2,1.3-1.4,1.2c-3.3-0.1-6.5-0.2-9.8-0.3c-4.1-0.1-8.1-0.1-12.1,0c-7.5,0.4-15,0.2-22.5,0.2
				c-3.5,0-6.9-0.4-10.4-0.2c-0.8,0-1.6-0.1-2.3,0.2c-0.6,0.2-0.9-0.1-0.9-0.8c0-0.3,0-0.7,0-1c0-2.7,0.1-5.5-0.4-8.2
				c-0.5-3.3-0.1-6.5-0.3-9.8c0-0.2,0-0.4,0.3-0.6c0.7,0.4,1.4,1,2.1,1.6c1.9,1.5,4,1.8,6.1,0.8c1.1-0.5,2-1.3,2.8-2.3
				c1.4-1.7,2.5-3.6,3.6-5.5c1.6-2.5,3.1-5.1,4.3-7.8c1.5-3.4,3.1-6.7,4.3-10.2c0.4-1.2,1-2.4,1.5-3.6c1.2-3.2,2.4-6.4,3.7-9.5
				c1-2.3,2-4.6,3-7c1.2-3,2.5-6,3.7-9c1.2-2.8,2.6-5.4,4-8.1c1.6-3,3.2-6.1,3.9-9.6c0.2-1,0-1.6-0.8-2.1c-0.6-0.4-1.1-0.8-1.8-1
				c-2.1-0.6-4-1.5-5.9-2.6c-2.5-1.4-5.2-2.3-8-3.3c-2.3-0.8-4.6-1.7-6.7-2.8c-2.3-1.2-4.3-0.9-6,1.1
				C188.8,266.4,188.3,266.9,187.9,267.3z"/>
			<path class="st1" d="M314,260.9c-0.3-0.3-0.7-0.7-0.6-1.1c0.1-0.7-0.4-0.6-0.7-0.5c-0.6,0.1-0.9,0.5-1.2,0.9c-1,1.3-2,2.7-2.9,4
				c-3,4.1-6.3,7.8-9.9,11.3c-0.6,0.6-1.4,1.1-2.2,1.5c-1.1,0.5-1.6,1.4-1.7,2.7c-0.1,1.2,0.1,2.4,0.4,3.6c0.7,3.6,1.9,7.1,3.3,10.6
				c1.3,3.4,2.7,6.7,4.2,9.9c0.5,1.2,1.1,2.3,1.8,3.3c1.1,1.8,2,3.8,3,5.7c2.2,4.4,4.7,8.5,7.1,12.7c1.4,2.3,3,4.6,4.5,6.8
				c0.2,0.3,0.4,0.5,0.7,0.8c1.3,1.3,2.3,1.3,3.6-0.1c0.5-0.5,0.9-1.1,1.4-1.7c0.5-0.5,1-1.1,1.4-1.6c0.5,0.3,0.3,0.7,0.3,1
				c0,3.1-0.3,6.2-0.3,9.3c0.1,5.9,0,11.7,0,17.6c0,3.1,0.1,6.2,0.7,9.3c0.1,0.6,0,0.8-0.6,0.8c-1.8-0.1-3.6,0.3-5.4,0.2
				c-5.9-0.1-11.8,0-17.7,0c-1.8,0-3.6,0.2-5.4,0.5c-2.2,0.3-4.4,0.3-6.5-0.1c-0.7-0.1-1-0.4-1.1-1c-0.3-1.7-0.9-3.4-1.1-5.1
				c-0.2-2-0.5-3.9-0.7-5.9c-0.2-2.2-0.4-4.4-0.5-6.5c-0.2-3.2-0.5-6.5-0.8-9.7c-0.1-0.6-0.1-1.3-0.1-1.9c0.1-3-0.2-5.9-0.3-8.9
				c-0.3-5.5-0.9-11-1.9-16.5c-0.3-1.7-0.3-3.5-0.4-5.2c-0.4-4.6-0.6-9.2-1.1-13.8c-0.1-1.5-0.1-2.9-0.1-4.4c0-9,0-18.1,0-27.1
				c0-3.3-0.1-6.6,0.1-10c0.2-3.9,0.1-7.8,0.3-11.7c0.2-4.2,0.3-8.4,0.6-12.5c0.5-7.5,0.2-14.9,0.1-22.4c0-3.3-0.1-6.6-0.3-9.9
				c-0.4-7.6-0.1-15.2-0.2-22.8c0-0.1,0-0.3,0-0.4c-0.5-2.4,0.9-3.8,2.5-5.2c1.9-1.7,3.5-3.7,5.2-5.5c3.1-3.4,6.5-6.5,10.2-9.1
				c1-0.7,2-1.4,2.8-2.3c0.4-0.4,0.9-0.7,1.5-0.8c3-0.5,5.9-1,8.9-1.4c3.9-0.6,7.8-1.2,11.6-2.4c1.5-0.5,3.1-0.9,4.6-1.4
				c0.7-0.2,0.8-0.1,0.7,0.7c-0.2,4.6,0,9.2,1.2,13.8c0.6,2.4,1.1,4.8,1.3,7.3c0.3,3.7,1.4,7.1,2.4,10.6c1.3,4.3,3.3,8.4,5.2,12.6
				c1.7,3.8,3.4,7.5,4.5,11.5c0.4,1.5,1.1,2.9,1.8,4.3c1,2.1,1.7,4.3,2.3,6.6c0.4,1.6,1.1,3,1.8,4.4c0.8,1.4,1.3,2.9,2,4.4
				c0.3,0.7,0.7,1.3,1.1,1.9c0.9,1,1.3,2.3,1.8,3.5c1.4,3.6,1,7.3,0.1,10.9c-0.6,2.4-1.2,4.7-2,7c-1.1,3.3-2.2,6.5-3.6,9.7
				c-1.2,2.7-2.7,5.2-4.1,7.7c-0.5,1-1.2,1.9-1.6,2.9c-2.6,5.8-6.3,11-9.6,16.3c-1.9,3-3.9,6-5,9.5c-0.5,1.6-1.3,3-2.1,4.5
				c-0.8,1.4-0.9,3-1,4.5c-0.1,1.2-0.1,2.3,0.2,3.5c0.1,0.5,0.1,1-0.1,1.6c-0.6-0.8-0.8-1.6-1.1-2.3c-1.4-3.4-2.5-7-3.6-10.5
				c-1.6-5-3.5-9.9-5.4-14.8c-0.9-2.2-1.5-4.5-2.3-6.8c-0.7-1.8-1.2-3.7-1.5-5.6c-0.1-0.3-0.1-0.5,0.1-0.8c1.7-1.7,2.7-3.9,4-5.9
				c2.2-3.4,3.9-7.1,5.3-10.9c0.9-2.4,1.2-4.9,1.5-7.4c0.2-1.5,0.3-2.9,1-4.2c0.2-0.4,0.2-0.8,0.2-1.3c0-3.1,0.1-6.2,0.1-9.4
				c0-2.6-0.7-5.1-1-7.7c-0.4-3.4-1-6.8-1.6-10.2c-1-5.5-2.2-10.9-4-16.1c-0.6-1.8-1.1-3.7-1.7-5.6c-0.5-1.5-0.9-3-1.6-4.4
				c-0.9-1.8-1.2-3.8-1.6-5.7c-0.2-1-0.5-2-0.8-3c-0.2-0.8-0.1-1.5-0.2-2.3c-0.9,0.1-0.9,0.7-0.9,1.2c0.1,1.3,0.1,2.6,0.4,3.9
				c0.2,1.2,0.2,2.3,0.2,3.5c0,2.4,0,4.9-0.1,7.3c0,2.5,0.5,4.9,1.6,7.2c0.6,1.2,0.8,2.4,0.8,3.7c0,3-0.1,6-0.6,9
				c-0.2,1.3-0.2,2.6,0,3.9c0.1,1.3,0.9,2.4,1.7,3.3c1,1.2,1.1,2.5,0.8,3.8c-0.6,2.4-1.2,4.7-1.9,7c-0.8,2.7-0.8,5.5-0.7,8.3
				c0,0.9,0.5,1.6,0.9,2.3c1.8,2.6,2.1,5.5,1.6,8.5c-0.6,3-1.3,6.1-2,9.1c-0.3,1.6-0.5,3.3-0.5,4.9c0,1.5-0.3,2.9-1.1,4.2
				C314.5,260.7,314.4,260.9,314,260.9z"/>
			<path class="st1" d="M157,102.7c0.6-0.8,1.5-0.8,2.2-1.2c1.1-0.6,2.2-1.2,3.4-1.6c1.4-0.5,2.5-1.5,3.8-2.1
				c5.6-2.7,11.2-5.4,17.1-7.4c2.5-0.8,5.2-1.4,7.8-1.8c4.8-0.8,9.5-1.2,14.3-1.5c2.6-0.2,5.2-0.4,7.9-0.6c0.8-0.1,1.5,0,1.9,0.9
				c0.3,0.5,0.8,0.8,1.3,1.2c0.6,0.6,0.8,1.2,0.5,2.1c-0.9,2.7-0.6,5.3,1.1,7.6c0.6,0.8,1.4,1.5,2.2,2.2c1.6,1.5,2,3.4,2.5,5.5
				c0.8,3,2.3,5.4,5.6,6.3c0.7,0.2,1.6,0.1,2.3,0.1c0.8,0,1.5,0.2,2.1,0.9c1.4,1.8,3.6,2.7,5.6,3.6c1.3,0.6,2.6,1.3,4.2,1.2
				c0.2,0,0.5,0.2,0.6,0.3c1.2,0.9,2.8,1.2,3.8,2.4c0.2,0.2,0.5,0.2,0.8,0.2c0.7,0,1.3,0,2.1,0c0.5,2.3,1.6,4.4,1.9,6.8
				c0.2,1.5,0.8,2.9,1.1,4.4c0.4,2,0.6,4,0.7,6.1c0.2,4.3,0.7,8.5,1.5,12.7c0.5,2.7,0.8,5.4,1,8.1c0.3,4.4,0.5,8.8,0.6,13.3
				c0.1,2.7,0.5,5.3,0.8,8c0.1,1.4,0.1,2.7,0.3,4.1c0.3,3.4,1,6.8,1.5,10.2c0.1,0.5,0.5,1,0.2,1.7c-1.3-1.2-2.6-2.4-3.9-3.5
				c-3.2-2.6-5.7-5.9-8.2-9.1c-1.1-1.3-2.3-2.5-3.4-3.8c-2.4-2.7-5.2-5.1-7.9-7.6c-2-1.8-4.1-3.5-6-5.4c-2.8-2.7-5.7-5.2-8.4-8.1
				c-1.1-1.1-2.5-1.9-3.7-2.8c-1.5-1-3-1.9-4.6-2.8c-1.1-0.6-2.4-1-3.5-1.7c-4.3-2.5-8.6-5.2-13.3-7c-5.4-2.2-10.8-4.4-16.7-5.1
				c-0.3,0-0.7-0.1-1-0.2c-2.9-0.9-5.9-1.9-9-1.5c-0.3-0.5,0.1-0.7,0.2-1c2.6-4.1,5.8-7.7,9.3-11c2.1-2,4.5-3.6,6.7-5.4
				c0.6-0.5,1.4-1,2.1-1.2c0.8-0.3,1.1-1.2,1.9-1.5c0.3-0.1,0-0.4-0.1-0.6c-0.8-1-1.8-1.7-2.8-2.3c-1.7-1.1-3.5-2.1-5.2-3.2
				c-4.6-2.7-9.3-5-14.5-6.1c-3.2-0.7-6.5-1.4-9.7-2.1C157.9,103,157.5,102.8,157,102.7z"/>
			<path class="st1" d="M312.4,136.4c-1.4,1-2.6,2-3.9,2.9c-3.3,2.4-6.6,4.9-9.8,7.6c-0.9,0.8-1.7,1.8-2.5,2.7c-0.9,1-1.9,2-2.7,3.1
				c-1,1.4-2.3,2.6-3.5,3.9c-2.8,3.2-5.8,6.2-8.7,9.3c-1,1.1-1.9,2.3-2.6,3.5c-0.7,1.3-1.7,2.4-2.5,3.6c-3.2,4.4-6.4,8.7-9.5,13.1
				c-1.3,1.9-2.4,3.9-3.6,5.8c-0.5,0.8-0.9,1.7-1.6,2.4c-0.5-0.1-0.6-0.5-0.6-0.9c-0.1-3.1-1.1-6-1.4-9.1c0-0.3,0-0.7,0-1
				c0.2-2.4,0.2-4.9,0-7.3c-0.1-1.4-0.2-2.8,0-4.2c0.3-3.1,0.3-6.1,0-9.2c-0.2-1.6-0.2-3.3-0.1-5c0.1-1.3-0.1-2.6-0.3-3.9
				c-0.4-3.1-1-6.1-1.5-9.2c-0.1-0.5-0.2-1-0.2-1.4c-0.1-3.5-0.4-6.9-0.9-10.3c-0.3-1.9-0.8-3.8-1.2-5.7c-0.5-2.8-1.9-5.3-2.9-7.9
				c-0.3-0.7-0.1-1,0.5-1.3c0.9-0.4,1.8-0.7,2.7-0.4c1.7,0.5,3.1-0.3,4.3-1.3c1.1-0.9,2.5-1.6,2.9-3.2c0.1-0.3,0.5-0.3,0.7-0.4
				c1.2-0.4,2-1.2,2.6-2.2c0.2-0.3,0.4-0.7,0.5-1c0.5-1.8,1.9-3,2.9-4.4c0.8-1.1,1.6-2.1,1.9-3.4c0.1-0.5,0.3-1.1,0.1-1.6
				c-0.4-1.1,0-2,0.5-2.9c0.1-0.3,0.4-0.6,0.4-0.9c-0.1-1.5,0.8-2.7,1.3-4c0.9-2.2,1.2-4.6,1.3-7c0.1-1.4,0.2-2.8-0.2-4.2
				c-0.1-0.4,0.1-0.7,0.6-0.8c0.4-0.1,0.9-0.2,1.3-0.2c3.5-0.1,7,0,10.5,0.3c4.9,0.5,9.7,1.1,14.6,2.1c5.1,1.1,10,2.5,15,3.9
				c2.1,0.6,4.1,1.1,6,2.2c0.7,0.4,1.6,0,2.2,0.5c0,0.3-0.1,0.4-0.3,0.5c-2.8,1.7-4.9,4.2-7.2,6.3c-2.7,2.4-4.9,5.1-7.1,7.9
				c-0.8,1.1-1.8,2.2-2.8,3.2c-2.2,2.3-4.1,5-6.1,7.4c-1,1.2-2,2.4-3.1,3.5c-1.3,1.5-2.6,3.2-3.4,5.1c-0.2,0.4-0.4,0.5-0.8,0.4
				c-0.3-0.1-0.6-0.1-0.9-0.1c-0.2,0-0.3,0.1-0.3,0.2c-0.1,0.2,0,0.3,0.1,0.4c0.3,0.3,0.7,0.4,1,0.5c1.8,0.6,3.6,1.2,5.3,1.9
				c2.2,0.9,4.2,2.3,6,3.8c1,0.8,2.1,1.6,3.1,2.4C310.1,133.7,311,135.2,312.4,136.4z"/>
			<path class="st1" d="M260,40.9c1.7,0.3,2.9-0.3,3.9-1.1c1.7-1.4,3.8-2,5.2-3.6c0.1,0.2,0.2,0.2,0.3,0.3c0.7,1.6,0,2.5-1.4,3.4
				c-2.8,1.8-5.7,3.1-8.9,3.9c-4.5,1.1-9.2,1.8-13.7,2.6c-0.9,0.2-1.9,0.1-2.7,0.8c0,0.1,0.1,0.2,0.1,0.2c2.4,0.1,4.8,0.7,7.2,0.4
				c1.4-0.1,2.7-0.5,4-0.6c2.1-0.2,4.2-0.4,6.4-0.7c3.5-0.5,6.7-1.6,9.4-3.9c0.7-0.6,1.5-1,2.1-1.7c2.6,1,5,2.2,7.3,3.5
				c0.8,0.4,1.5,0.8,2.3,1.3c3.4,1.9,7.1,2.8,11,3.3c0.2,0,0.4,0,0.6,0.3c-0.5,1-1.4,1.6-2.4,2c-1.3,0.5-2.6,1-4,1.5
				c-2.3,0.9-4.6,1.5-6.9,2.3c-2.8,0.9-5.7,1.6-8.7,1.9c-3.1,0.3-6.1,1-8.8,2.8c-0.8,0.5-1.7,0.7-2.7,0.5c-2.8-0.3-5.6-0.1-8.4,0.3
				c-1.9,0.3-3.7,0.5-5.5,1.1c-1.8,0.6-3.7,0.4-5.5,0.2c-3.8-0.4-7.5-0.9-11.3-1.2c-4-0.2-7.9-0.6-11.9-1.2
				c-1.6-0.3-3.3-0.4-4.9-0.4c-3,0-6-0.3-9-0.8c-1.8-0.3-3.6-0.6-5.4-0.4c-0.3,0-0.6,0.1-1-0.2c1.2-0.7,2.5-1.1,3.7-1.6
				c3.1-1,5.9-2.4,8.8-3.8c0.2-0.1,0.3-0.2,0.5-0.3c1.8-0.8,1.8-0.8,3.4,0.4c2.3,1.7,4.9,2.7,7.8,2.8c2.2,0.1,4.5,0.4,6.7,0.4
				c1.3,0,2.7,0.3,4.1-0.3c-1.5-1-3.2-0.8-4.8-1c-2.8-0.4-5.6-0.3-8.4-0.8c-2-0.4-3.6-1.5-5.3-2.5c-0.6-0.4-0.6-0.7,0-1.1
				c2.2-1.2,4-3,5.7-4.8c0.5-0.6,0.9-0.7,1.7-0.5c1.4,0.3,2.7,0.6,4.1,1.1c2.1,0.8,4.3,0.6,6.5,0.3c0.9-0.1,1.8-0.3,2.7-0.4
				c0.6-0.1,1.1-0.2,1.8-0.8c-1.4-0.2-2.6-0.4-3.9-0.5c-2.7-0.1-5.3-0.7-7.8-1.6c-1-0.3-1.9-1-2.7-1.7c-0.5-0.4-0.7-0.9-0.7-1.7
				c0.2-4.8,1.1-9.5,0.7-14.3c-0.3-4.6-0.8-9.2-2.4-13.6c-0.5-1.3-0.8-2.7-1.2-4c-0.2-0.6,0-0.7,0.5-0.9c2.3-0.9,4.7-1.5,7.2-2
				c4.6-1,9.3-1.3,14-2c3.5-0.6,7-1,10.6-1c1.8,0,3.7-0.3,5.5-0.2c2.5,0.2,5.1,0.2,7.6,0.6c1.5,0.2,1.6,0.4,1.7,1.8
				c0.1,3.6,0.5,7.2,0.6,10.9c0.2,4.5,0.9,8.9,2.3,13.2c0.4,1.3,0.9,2.6,0.9,4c0,0.7,0.2,0.8,1.3,1.4C268,35.2,267.1,37.6,260,40.9z
				 M244.3,9.7c-3.9-0.3-8.2,0.6-12.5,1.6c-3.2,0.7-6.3,1.7-9.2,3.3c-0.5,0.2-1.2,0.4-1,1c0.2,0.6,0.9,0.2,1.4,0
				c2-0.7,3.9-1.4,5.9-2c3.9-1.2,7.9-1.9,12-2.1c3.6-0.2,7.3-0.3,11,0.2c0.7,0.1,1.5,0.1,2.2,0.2c0.6,0.2,1.5-0.2,1.5-0.7
				c0-0.7-0.6-0.8-1.1-0.9c-0.2-0.1-0.4-0.1-0.6-0.1C250.8,9.9,247.8,9.7,244.3,9.7z M247.8,29.9c0.1-0.3,0.1-0.4,0.2-0.5
				c0.7-1.4,0.1-3.4-1.3-4.1c-0.1-0.1-0.3-0.1-0.4-0.1c-0.5,0-1-0.1-1.2,0.5c-0.1,0.5,0.3,0.6,0.7,0.8c0.7,0.3,1.2,1,0.9,1.6
				c-0.7,1.2-1,2.3-0.1,3.5c-0.3,1.1,0.4,1.8,1,2.6c1,1.2,1,2.2,0.1,3.4c-0.3,0.5-0.7,0.9-1.1,1.4c-0.3,0.3-0.8,0.7-0.5,1.1
				c0.3,0.5,0.9,0.3,1.3,0.3c0.2,0,0.5-0.1,0.7-0.3c2.7-1.9,3.2-5.5,0.9-7.4c-0.5-0.4-0.4-0.7,0-1c0.1-0.1,0.2-0.2,0.4-0.3
				c0.3-0.3,0.5-0.6,0.4-1c-0.1-0.5-0.5-0.6-0.9-0.6C248.5,29.8,248.2,29.9,247.8,29.9z M239,26.1c-1,0-1.8,0.6-2.2,1.4
				c-0.5,0.9-0.5,2,0,2.9c0.3,0.6,1.2,1,1.1,1.6c0,0.8-1,0.7-1.5,1.2c-0.6,0.5-0.5,1,0.1,1.4c0.2,0.1,0.4,0.2,0.5,0.2
				c0.6,0,0.7,0.3,0.5,0.9c-0.4,1-0.7,2-0.6,3.1c0,1.8,1.3,2.5,2.7,2.5c0.5,0,0.9-0.1,1.1-0.6c0.2-0.6-0.3-0.7-0.7-1
				c-1.5-0.8-1.6-1-1-2.6c0.4-1.1,0.9-2.2,0.3-3.4c-0.1-0.2,0-0.4,0.1-0.6c0.6-1.2,0.3-2.2-0.7-3.1c-0.9-0.8-0.8-1.8,0.1-2.5
				c0.2-0.2,0.4-0.3,0.6-0.4c0.3-0.2,0.6-0.4,0.5-0.8C239.8,26.1,239.4,26.1,239,26.1z M262,19c-1.8-0.9-3.7-1-5.5-1.1
				c-2.7-0.2-5.4-0.3-8.2-0.3c-2.9,0-5.8-0.2-8.8,0.2c-2.4,0.3-4.8,0.5-7.3,0.7c-1.5,0.1-2.9,0.3-4.3,0.6c-0.2,0-0.6,0-0.5,0.5
				c3,0.2,6,0,8.9-0.4c2.8-0.3,5.6-0.7,8.4-0.7c2.1,0,4.3,0.3,6.4,0.3C254.8,18.8,258.3,19.2,262,19z M249.6,58.5
				c0.6,0,1.2,0.1,1.7,0c3.2-0.5,6.3-1.5,9.5-2.2c2.2-0.5,4.3-1.6,6.3-2.6c2.6-1.3,5.2-2.7,7.2-4.9c0.5-0.6,1-1.2,1.3-1.9
				c0.1-0.2,0.2-0.5-0.1-0.7c-0.3-0.2-0.5,0-0.7,0.2c-0.2,0.3-0.5,0.6-0.7,0.9c-0.8,1.3-1.9,2.2-3.1,3c-1.1,0.7-2.3,1.3-3.4,2
				c-2.8,1.5-5.7,2.8-8.8,3.4c-1.9,0.4-3.7,1-5.6,1.4C251.9,57.4,250.8,58,249.6,58.5z M242.4,35.6
				C242.4,35.6,242.4,35.6,242.4,35.6c0,0.9,0,1.8,0,2.8c0,0.5,0.2,0.9,0.8,0.9c0.6,0,0.9-0.3,0.9-0.9c0-0.2,0-0.4,0-0.6
				c0-1.6-0.4-3.1-0.2-4.6c0-0.1,0-0.2,0-0.3c-0.1-0.4-0.4-0.7-0.8-0.7c-0.5,0-0.6,0.4-0.6,0.8C242.4,33.9,242.4,34.7,242.4,35.6z
				 M241.5,28.4c0,0.6,0.3,1.1,0.9,1.1c0.7,0,1.4-0.6,1.5-1.3c0-0.6-0.4-1.1-1-1.2C242,26.9,241.5,27.5,241.5,28.4z"/>
			<path class="st1" d="M235.7,83.5c0-0.4,0-0.8-0.5-0.9c-0.9-0.3-1.8-1-2.9-0.6c-0.3,0.1-0.7,0-0.8-0.4c-0.2-0.6-0.4-1.3-1-1.5
				c-0.7-0.2-1.5-0.2-2.3,0c-1.2,0.3-1.2,0.3-1.6-1c-0.5-1.8-1.1-2.2-2.8-1.6c-0.7,0.2-0.9-0.1-1.1-0.5c-0.6-1.6-0.9-3.3-1.3-4.9
				c-0.2-0.7-0.4-1.4-0.5-2.1c-0.1-0.5,0.1-0.8,0.6-0.7c0.3,0,0.7,0,1,0c0.6,0,0.9,0.1,1,0.7c0.4,1.8,1.5,3,3.1,3.9
				c1.5,0.8,3,1.5,4.6,1.7c0.7,0.1,1.4,0.1,2,0c1.1-0.2,2.3-0.5,3.4-0.7c1.7-0.4,3-1.4,3.8-3c0.2-0.5,0.5-1,0.7-1.4
				c0.2-0.3,0.4-0.5,0.8-0.6c2.7-0.4,5.3-0.5,8-0.1c0.4,0.1,0.6,0.2,0.9,0.5c0.4,0.4,0.7,0.8,1.1,1.2c1,1,2.3,1.5,3.7,1.5
				c2.2,0,4.5,0.1,6.6-0.6c2-0.6,3.8-1.5,4.8-3.5c0.2-0.5,0.4-0.8,1.1-0.8c0.5,0,0.9,0.1,0.8,0.7c-0.1,1.4,0.2,2.8-0.2,4.2
				c-0.1,0.5-0.1,1-0.1,1.5c0,0.7-0.1,1.3-0.5,1.9c-0.4,0.6-0.5,1.4-0.7,2.1c-0.2,0.6-0.3,1.2-0.6,1.8c-0.1,0.3-0.3,0.6-0.6,0.6
				c-1.6-0.3-2,0.7-2.4,1.9c0,0.1-0.1,0.1-0.2,0.2c-0.4-0.2-0.4-0.6-0.5-1c-0.6-1.1-1.4-1.3-2.2-0.3c-0.5,0.5-0.9,1.1-1.4,1.7
				c-0.2,0.2-0.4,0.4-0.6,0.6c-0.8-0.2-0.6-1.5-1.6-1.4c-0.7,0.1-1.3,0.6-2,1c-0.5-0.6-0.6-1.5-1.4-2c-0.7-0.4-1.3-0.7-2-0.2
				c-0.5,0.4-0.9,0.3-1.1-0.4c-0.2-0.5-0.4-1-0.5-1.6c-0.3-1.7-0.5-3.5-1.4-5c-0.4-0.7-0.3-1.5-0.4-2.3c-0.1-1.2-0.3-1.8-0.8-1.6
				c-0.8,0.3-0.6,1-0.5,1.6c0,0.8,0.1,1.7,0.3,2.5c0.3,1.4,0.3,2.8,0.2,4.2c-0.1,0.9-0.2,1.8,1.2,1.9c0.3,0,0.4,0.3,0.5,0.5
				c0.1,0.2,0.3,0.4,0.1,0.7c-0.2,0.2-0.4,0.3-0.6,0.2c-0.9-0.3-1.2,0.1-1.1,0.9c0.1,0.5-0.1,0.9-0.6,1c-0.6,0.1-1.1-0.2-1.1-0.8
				c0-0.8-0.4-1-1.1-0.9c-0.3,0.1-0.7,0-1-0.1c-0.4-0.1-0.8-0.3-0.7-0.8c0.1-0.4,0.1-1.1,0.7-1.1c1-0.1,1-0.7,1-1.4
				c0-2.3-0.5-4.5-0.6-6.8c0-0.1,0-0.3-0.1-0.4c-0.1-0.2-0.2-0.3-0.5-0.3c-0.3,0-0.3,0.2-0.3,0.4c-0.5,2.4-0.7,4.8-0.9,7.3
				c-0.1,1.6-0.6,3-2.4,3.6c-0.3,0.1-0.6,0.1-0.8,0.3C238,83.6,236.8,83.5,235.7,83.5L235.7,83.5z"/>
			<path class="st1" d="M254.7,96.1c0.4,1.2-0.3,2-1.6,2.5c-1.6,0.6-3.2,0.8-4.8,0.9c-1.9,0.1-3.9-0.1-5.8,0.2c-0.2,0-0.5,0-0.7,0
				c-1.3-0.2-1.7-0.6-1.7-2c0-1.8,0.2-3.6,0.6-5.4c0.2-0.8,0.6-1.3,1.4-1.7c3.3-1.6,6.7-1.5,10.1-0.4c1.5,0.5,1.8,1.8,2.3,3
				C254.8,94.2,254.8,95.1,254.7,96.1z M246.9,94c1.3,0.1,2.6-0.4,3.9-0.6c0.4-0.1,0.8-0.4,1-0.7c0.2-0.3,0.3-0.6,0-0.9
				c-0.3-0.3-0.6-0.3-0.9-0.1c-2,1.2-4.2,1.2-6.5,0.8c-0.4-0.1-0.9-0.1-1.3-0.1c-0.4,0-0.4,0.3-0.2,0.6c0.2,0.3,0.5,0.4,0.8,0.5
				C244.8,93.7,245.8,94,246.9,94z M251,96.1c-0.4-0.4-0.9-0.7-1.5-0.5c-1.4,0.3-2.9,0.2-4.4,0.2c-0.3,0-0.6,0-0.9,0
				c-0.1,0-0.2,0.1-0.3,0.3c-0.1,0.2,0,0.4,0.2,0.5c0.2,0.1,0.4,0.3,0.7,0.3C246.9,97,249,96.9,251,96.1z"/>
			<path class="st1" d="M214.3,66.9c0.5,0.4,0.8,0.7,1.2,0.9c1.4,0.6,2,1.7,2.1,3.3c0.2,1.7,0.4,3.4,0.7,5c0,0.2,0,0.4,0,0.6
				c0,0.3-0.1,0.5-0.4,0.6c-0.2,0.1-0.4,0-0.5-0.1c-2.2-2.9-4.1-5.8-3.3-9.7C214.2,67.3,214.3,67.2,214.3,66.9z"/>
			<path class="st1" d="M225.7,66.2c1.7,0.3,3.3,0.2,4.9,0.4c0.8,0.1,1.1,0.5,1,1.2c-0.1,0.8-0.1,1.5-0.1,2.3c0,0.6-0.3,0.6-0.8,0.6
				c-1,0-1.9-0.5-2.7-1.1C226.8,68.8,226.1,67.7,225.7,66.2z"/>
			<path class="st1" d="M271.9,73.8c0-2.1,0-4.2,0-6.2c0-0.4,0.1-0.7,0.4-0.9c0.9-0.5,1.7-1.2,2.5-2
				C275.7,66.7,274.5,70.8,271.9,73.8z"/>
			<path class="st1" d="M252.7,65.8c1.5-0.2,3-0.7,4.4-0.5c1.1,0.1,1.1,0.1,1.1,1.2c0,0.5,0,1,0,1.5c0,0.9-0.1,1.2-1.1,1.1
				c-0.4,0-0.9-0.1-1.3-0.3C254.5,68.2,253.5,67.1,252.7,65.8z"/>
			<path class="st1" d="M232.5,70.9c0.1-1.1,0.1-2.3,0.2-3.4c0-0.4,0.2-0.6,0.6-0.6c1.4,0.3,2.9,0,4.4,0.2c0.2,1-0.5,1.5-1,2
				C235.6,70.2,234.3,71.1,232.5,70.9z"/>
			<path class="st1" d="M259.2,68.8c0.2-0.9,0.1-1.8,0.1-2.7c0-0.5,0.2-0.8,0.8-0.8c1.3-0.1,2.7-0.2,4.1-0.3
				C263.9,67.2,261.9,68.7,259.2,68.8z"/>
			<path class="st1" d="M231.5,65.5c-0.1,0.2-0.3,0.3-0.4,0.3c-1.5-0.3-3.1-0.3-4.6-0.3c-0.1,0-0.2,0-0.3,0c-0.4,0-0.4-0.3-0.4-0.6
				c0-0.5,0.4-0.4,0.6-0.3C228,65.1,229.8,65,231.5,65.5z"/>
			<path class="st1" d="M232.7,65.7c0.5-0.2,0.8-0.3,1.2,0C233.5,66.1,233.1,66.1,232.7,65.7z"/>
			<path class="st1" d="M235.6,83.5c0,0-0.1,0.1-0.1,0.1C235.5,83.6,235.5,83.5,235.6,83.5C235.6,83.5,235.6,83.5,235.6,83.5
				L235.6,83.5z"/>
			<path class="st1" d="M244.3,9.7c3.6-0.1,6.5,0.1,9.5,0.5c0.2,0,0.4,0,0.6,0.1c0.5,0.2,1.1,0.2,1.1,0.9c0,0.4-0.8,0.8-1.5,0.7
				c-0.7-0.2-1.5-0.1-2.2-0.2c-3.6-0.5-7.3-0.4-11-0.2c-4.1,0.2-8.1,0.9-12,2.1c-2,0.6-3.9,1.4-5.9,2c-0.5,0.2-1.2,0.6-1.4,0
				c-0.2-0.6,0.6-0.7,1-1c2.9-1.5,6-2.5,9.2-3.3C236.1,10.4,240.4,9.4,244.3,9.7z"/>
			<path class="st1" d="M247.8,29.9c0.4,0,0.7,0,1,0c0.4,0,0.8,0.2,0.9,0.6c0.1,0.4,0,0.8-0.4,1c-0.1,0.1-0.2,0.2-0.4,0.3
				c-0.4,0.3-0.5,0.7,0,1c2.3,1.8,1.8,5.5-0.9,7.4c-0.2,0.1-0.4,0.2-0.7,0.3c-0.5,0-1.1,0.2-1.3-0.3c-0.3-0.5,0.2-0.8,0.5-1.1
				c0.4-0.5,0.7-0.9,1.1-1.4c0.9-1.2,0.9-2.3-0.1-3.4c-0.6-0.7-1.3-1.4-1-2.6c-0.9-1.2-0.5-2.3,0.1-3.5c0.3-0.6-0.2-1.3-0.9-1.6
				c-0.3-0.2-0.8-0.3-0.7-0.8c0.2-0.6,0.7-0.6,1.2-0.5c0.1,0,0.3,0,0.4,0.1c1.4,0.6,2,2.7,1.3,4.1C248,29.5,247.9,29.6,247.8,29.9z"
				/>
			<path class="st1" d="M239,26.1c0.3,0,0.7,0,0.9,0.4c0.1,0.4-0.2,0.6-0.5,0.8c-0.2,0.1-0.5,0.2-0.6,0.4c-0.9,0.8-1,1.7-0.1,2.5
				c1,0.9,1.3,1.9,0.7,3.1c-0.1,0.2-0.2,0.4-0.1,0.6c0.5,1.2,0.1,2.3-0.3,3.4c-0.6,1.6-0.5,1.8,1,2.6c0.4,0.2,0.8,0.4,0.7,1
				c-0.2,0.5-0.6,0.6-1.1,0.6c-1.5,0-2.7-0.8-2.7-2.5c0-1.1,0.2-2.1,0.6-3.1c0.2-0.5,0.2-0.8-0.5-0.9c-0.2,0-0.4-0.1-0.5-0.2
				c-0.6-0.4-0.7-0.9-0.1-1.4c0.5-0.4,1.5-0.4,1.5-1.2c0-0.7-0.8-1-1.1-1.6c-0.5-1-0.5-2,0-2.9C237.2,26.7,238,26.1,239,26.1z"/>
			<path class="st1" d="M262,19c-3.7,0.1-7.3-0.3-10.8-0.3c-2.1,0-4.3-0.3-6.4-0.3c-2.8,0.1-5.6,0.4-8.4,0.7
				c-2.9,0.4-5.9,0.5-8.9,0.4c-0.1-0.5,0.3-0.4,0.5-0.5c1.4-0.3,2.9-0.5,4.3-0.6c2.4-0.1,4.9-0.3,7.3-0.7c2.9-0.4,5.8-0.2,8.8-0.2
				c2.7,0,5.5,0.2,8.2,0.3C258.3,18,260.2,18.1,262,19z"/>
			<path class="st1" d="M249.6,58.5c1.2-0.5,2.3-1.1,3.5-1.4c1.9-0.4,3.7-1,5.6-1.4c3.1-0.7,6-1.9,8.8-3.4c1.2-0.6,2.3-1.3,3.4-2
				c1.2-0.8,2.4-1.7,3.1-3c0.2-0.3,0.5-0.6,0.7-0.9c0.2-0.3,0.4-0.5,0.7-0.2c0.2,0.2,0.2,0.4,0.1,0.7c-0.3,0.7-0.8,1.3-1.3,1.9
				c-2,2.3-4.5,3.6-7.2,4.9c-2,1-4.1,2-6.3,2.6c-3.2,0.8-6.3,1.7-9.5,2.2C250.8,58.6,250.2,58.5,249.6,58.5z"/>
			<path class="st1" d="M242.4,35.6c0-0.9,0-1.7,0-2.6c0-0.4,0.1-0.8,0.6-0.8c0.5,0,0.7,0.2,0.8,0.7c0,0.1,0,0.2,0,0.3
				c-0.1,1.6,0.3,3.1,0.2,4.6c0,0.2,0,0.4,0,0.6c0,0.6-0.4,0.9-0.9,0.9c-0.5,0-0.8-0.4-0.8-0.9C242.3,37.5,242.4,36.5,242.4,35.6
				C242.4,35.6,242.4,35.6,242.4,35.6z"/>
			<path class="st1" d="M241.5,28.4c0-0.9,0.5-1.5,1.3-1.4c0.6,0.1,1.1,0.6,1,1.2c0,0.7-0.8,1.4-1.5,1.3
				C241.8,29.5,241.5,29,241.5,28.4z"/>
			<path class="st1" d="M246.9,94c-1.1,0-2.1-0.2-3.1-0.5c-0.3-0.1-0.6-0.2-0.8-0.5c-0.2-0.3-0.2-0.6,0.2-0.6c0.4,0,0.9,0,1.3,0.1
				c2.2,0.4,4.4,0.5,6.5-0.8c0.3-0.2,0.7-0.2,0.9,0.1c0.3,0.3,0.2,0.6,0,0.9c-0.3,0.3-0.6,0.7-1,0.7C249.5,93.6,248.2,94,246.9,94z"
				/>
			<path class="st1" d="M251,96.1c-2,0.7-4.1,0.8-6.2,0.7c-0.2,0-0.5-0.2-0.7-0.3c-0.2-0.1-0.3-0.3-0.2-0.5c0.1-0.1,0.2-0.2,0.3-0.3
				c0.3,0,0.6,0,0.9,0c1.5,0,2.9,0.1,4.4-0.2C250.1,95.5,250.6,95.7,251,96.1z"/>
		</g>
	</g>
	<g id="UvBxVD_5_">
		<g>
			<path class="st22" d="M249,0.3c2.6-0.1,5.1,0.5,7.7,0.6c0.4,0,0.4,0.2,0.5,0.5c0.4,1.4,0.2,2.8,0.3,4.2c0.2,2.2,0.4,4.3,0.6,6.5
				c0.2,2.2,0.4,4.4,0.6,6.7c0.2,2,0.6,4,1.4,5.9c0.7,1.6,1.2,3.3,1.5,5c0.1,0.8,0.2,1.5,1.2,1.9c0.8,0.3,0.5,1.3,0.6,2
				c0,0.5-0.2,1-0.4,1.4c-0.6,1.3-0.5,1.9,0.4,3c1.3,1.6,3.1,2.6,4.9,3.6c2,1.1,4.1,2.2,6.2,3.3c3,1.6,6.2,2.4,9.6,2.8
				c0.9,0.1,1.8,0.2,2.6,0.8c0.8,0.6,1.2,1.7,0.6,2.4c-1.1,1.3-2.1,2.7-3.5,3.7c-0.7,0.5-1.7,0.5-2.4,0.9c-1.3,0.6-2.7,0.9-4,1.2
				c-2.7,0.7-5.1,1.7-7.6,2.8c-0.3,0.2-0.5,0.4-0.5,0.8c0,0.4,0.2,0.6,0.6,0.7c0.6,0.1,0.8,0.6,0.9,1.2c0.2,1.1,0.1,2.1-0.4,3.1
				c-0.2,0.4-0.4,0.8-0.6,1.2c-0.2,0.4-0.2,0.8,0.3,1.1c0.5,0.3,1,0.6,1.1,1.3c0,1,0.3,2.1-0.3,3c-0.2,0.4-0.6,0.7-0.7,1.2
				c1,0.5,1.5,1.4,1.6,2.5c0.2,1.3-0.1,2-1.3,2.7c-0.4,0.2-0.8,0.4-1.2,0.9c0.5,0,1,0,1.5,0c3.4,0,6.7,0.2,10,0.4
				c1.8,0.1,3.5,0.1,5.3,0.3c2.1,0.2,4.2,0.6,6.3,1c2.5,0.5,5.1,1,7.5,1.7c4.2,1.2,8.5,2.3,12.7,3.7c0.7,0.2,1.3,0.6,2,0.9
				c0.7,0.3,1.5,0.6,2.3,0.8c0.8,0.1,1.6,0.5,2.1,1.3c-5.4,4.2-10.4,8.8-14.8,14.2c1.3,0.6,2.6,0.6,3.7,1.1c0.5,0.2,1.1,0.3,1.6,0.6
				c1.5,0.9,3.2,0.8,4.8,1.1c1.9,0.3,3.7,0.7,5.4,1.6c2.1,1,3.3,2.6,4.2,4.5c1.3,2.7,2.4,5.5,3.2,8.4c0.7,2.4,1.6,4.8,2.4,7.2
				c1.2,3.6,2.5,7.1,3,10.9c0,0.3,0.1,0.6,0.1,0.9c0.1,1.7-0.1,2-1.7,2.6c-1,0.4-1,0.4-0.8,1.4c1.1,4.7,2.7,9.2,3.8,13.9
				c0.6,2.4,1,4.8,1.6,7.3c0.5,2.2,1.1,4.3,2,6.4c1.4,3.3,3.1,6.5,4.3,9.8c1,2.8,2.3,5.5,3.3,8.2c1.1,3.1,2.3,6.2,3.5,9.3
				c2.1,5.7,4.1,11.4,6.1,17.1c0.7,1.9,1.6,3.6,2.3,5.5c1,2.6,1.6,5.3,1.7,8.1c0.1,3.5-0.5,6.9-1.1,10.3c-0.4,2-0.6,4.1-1.1,6.1
				c-0.8,3.3-1.6,6.5-3,9.5c-1.4,3-2.7,6.1-4.2,9.1c-1.3,2.6-2.7,5.1-4,7.6c-2,4-4.7,7.7-7.2,11.5c-1.9,2.9-4,5.8-5.5,9
				c-1.7,3.7-3.1,7.4-4.3,11.3c-0.3,1-0.6,2-0.9,2.9c-0.2,0.4-0.2,1-0.9,1c-0.4,0-0.3,0.5-0.4,0.7c-0.7,1.4-0.6,3-1.4,4.3
				c-0.2,0.3-0.1,0.6,0.1,0.8c0.2,0.4,0.5,0.8,0.9,1.2c0.5,0.4,1.3,0.6,1.3,1.4c0.1,0.9-0.1,1.8-0.5,2.7c-0.6,1.4-1.7,2.5-2.7,3.6
				c-1.6,1.8-2.8,3.9-4.5,5.6c-0.3,0.3-0.4,0.6-0.4,1.1c0.1,1.4-0.1,2.8,0.2,4.2c0.2,1-0.1,2-0.1,3c-0.1,1.9-0.1,3.8-0.1,5.7
				c0,5-0.1,10,0,14.9c0,3.2,0,6.4,0.6,9.6c0.3,1.3,0.2,1.4,1.6,1.1c0.6-0.1,1.2-0.4,1.6,0.4c0.1,0.3,0.4,0.1,0.6,0.1
				c0.6-0.2,1,0.1,1.1,0.8c0.2,1.9,0.9,3.7,1.1,5.5c0.3,2.7,0.6,5.4,1,8.1c0.5,4.4,0.8,8.8,1.4,13.2c0.2,1.3,0.1,2.6,0,3.9
				c0,0.3-0.1,0.6-0.2,0.8c-0.1,0.4-0.4,0.5-0.8,0.6c-0.4,0-0.7-0.3-0.7-0.6c0-0.7-0.4-0.7-0.9-0.7c-2.4,0.3-4.8,0.9-7.1,1.3
				c-1.5,0.3-3,0.3-4.5,0.4c-2.7,0.2-5.3,0.5-8,0.7c-3.1,0.2-6.1,0.1-9.2-0.2c-2.8-0.2-5.5-0.4-8.3-0.3c-0.5,0-0.6,0.3-0.7,0.7
				c-0.4,2.6-0.8,5.3-0.9,8c-0.1,2.3-0.4,4.5-0.5,6.8c-0.2,4.3-0.5,8.6-0.3,13c0.1,3.9,0.1,7.9-0.1,11.9c-0.2,3.1-0.7,6.2-1,9.3
				c-0.2,2.2-0.3,4.4-0.4,6.5c-0.2,3.2-0.3,6.4-0.5,9.6c-0.3,4.7-0.3,9.4-0.3,14.2c0,1.9,0,3.7,0,5.6c0,0.7,0.2,1,0.9,0.9
				c1-0.1,2,0.1,3,0.2c0.8,0.1,1.4,0.4,2.1,0.7c0.7,0.4,1.1,1,1,1.9c-0.2,1.4-0.8,2.7-1.2,4c-0.2,0.6-0.7,0.7-1.2,0.7
				c-1.1,0.1-2.1,0.3-3.2,0.4c0.3,3,0.1,5.9,0.2,8.8c0.2,10.5,0,21,0.1,31.5c0,3.3,1,6.3,2.6,9.1c0.6,1.1,1.2,2.1,1.7,3.2
				c0.9,1.7,2.4,2.9,4,4c0.4,0.3,0.8,0.6,1.2,1c0.7,0.7,1.6,1.3,2.6,1.4c0.6,0.1,1.3,0.3,1.8,0.6c1.8,1.2,3.8,1.6,5.8,2.2
				c1.9,0.6,3.6,1.5,5.2,2.8c3.2,2.7,3.8,6.2,3.7,10.1c0,0.8-0.2,1.4-0.9,1.8c-0.4,0.2-0.8,0.6-0.3,1.2c0.4,0.5,0.1,1-0.5,1.1
				c-1.2,0.3-2.4,0.8-3.7,0.8c-1.6,0-3.2,0.2-4.8-0.2c-0.5-0.1-1.1,0.1-1.6,0.2c-1.7,0.3-3.4,0.3-5.1,0.4c-2.4-0.1-4.8-0.1-7.2,0
				c-1.3-0.1-2.6-0.3-3.9-0.5c-0.6-0.1-1.2-0.1-1.7-0.1c-3.3,0.4-6.3-0.7-9.4-1.3c-1.8-0.4-2.8-1.9-3.3-3.6c-0.6-1.9-1-3.7-2-5.4
				c-0.6-1-1.5-1.6-2.1-2.4c-0.6,0.2-0.5,0.6-0.5,0.9c-0.1,2.4-0.5,4.7-1,7c-0.2,0.7-0.6,1.1-1.3,1.4c-1,0.5-1.9,0.7-2.9,0.4
				c-1.1-0.3-2.3-0.3-3.5-0.3c-0.8,0-1.3-0.2-1.6-1c-0.3-0.7-0.6-1.4-0.6-2.2c-0.4-4.3-0.5-8.6-0.5-13c0-6.5,0-13.1-0.1-19.6
				c-0.1-2.4-0.1-4.9-0.2-7.3c-0.1-1.5,0.1-3.1,0-4.7c-0.2-4.2-0.5-8.3-1.1-12.5c-0.3-2.5-0.4-5-0.6-7.5c-0.2-2.2-0.5-4.3-0.7-6.5
				c-0.1-0.8-0.5-1.4-1.3-1.4c-1.1-0.1-2.2-0.6-3.3-0.7c-0.1,0-0.3-0.1-0.4-0.1c-1.4-0.4-1.8-1.2-1.1-2.5c0.3-0.6,0.6-1.2,1.2-1.7
				c0.3-0.3,0.7-0.5,0.8-0.8c0.1-1.7,1.5-1.4,2.5-1.5c0.4-0.1,0.9-0.1,1.3-0.1c0.7,0,0.8-0.3,0.8-0.9c-0.1-1.4-0.1-2.7-0.3-4.1
				c-0.1-0.9-0.1-1.8-0.1-2.6c0-6.2,0.1-12.4,0-18.6c-0.2-5.9-0.1-11.9-0.3-17.8c-0.1-4.7-0.5-9.4-1-14.1c-0.4-3.6-0.7-7.2-0.7-10.8
				c0.1-4.9,0-9.8,0.1-14.6c0-1.7-0.8-2.1-2.2-2c-4.1,0.2-8.3,0.2-12.4,0c-2.1-0.1-4.2-0.2-6.3-0.3c-0.7,0-1.1,0.1-1.2,1
				c-0.3,1.8-0.4,3.6-0.4,5.4c-0.1,4.5,0,9.1-0.2,13.6c-0.1,1.8,0.2,3.7,0,5.5c-0.3,3.4-0.2,6.8-0.4,10.2c-0.2,2.4-0.3,4.8-0.5,7.1
				c-0.3,4-0.3,8-0.8,11.9c-0.1,1,0,2-0.1,3.1c-0.1,3.5-0.2,7.1-0.3,10.7c-0.1,4.3-0.1,8.6-0.3,12.9c-0.1,1.7-0.1,3.4-0.3,5.1
				c0,0.7,0.1,1,0.9,0.9c0.6-0.1,1.2,0,1.8,0c1.3-0.1,2.3,0.6,3.3,1.3c1,0.7,2.2,5.1,1.9,6.2c-0.2,0.8-1.2,1.4-2.2,1.4
				c-1.7,0-3.4,0.4-5.1,0.2c-0.6-0.1-0.9,0.1-0.8,0.8c0.1,4.3-0.1,8.6,0.2,12.9c0.4,5,0.6,10.1,1.1,15.1c0.2,1.8,0.2,3.7,0.3,5.5
				c0.2,3.5-0.1,7.1,0.5,10.6c0.7,4,0.6,8.1,1.4,12.1c0.1,0.4,0.2,0.7,0.4,1.1c2,3.2,3.4,6.6,4.1,10.3c0.2,1,0,1.9,0.2,2.9
				c0.1,0.6-0.6,0.6-0.6,1c-0.1,0.8-0.5,0.4-0.9,0.4c-2.2-0.1-4.5,0-6.7,0.2c-1.2,0.1-2.3,0.2-3.5,0.2c-2.1-0.1-4.3,0.2-6.4,0.2
				c-0.4,0-0.8,0-1.2,0.2c-2.3,1-4.8,0.6-7.2,0.7c-0.1,0-0.2,0-0.3,0c-2.2-1.1-4.6-0.6-7-0.8c-1.6-0.2-2.3-1.1-2.8-2.2
				c-0.3-0.8-0.3-1.8,0-2.6c0.6-1.8,0.6-3.8,1-5.6c0.2-1,0.4-2,0.9-2.8c0.8-1.3,1.4-2.7,2.4-3.9c0.6-0.7,0.4-1.9,0.1-2.7
				c-0.5-1.3-0.5-2.6-0.6-3.8c-0.2-1.7-0.7-3.4-0.8-5.1c-0.1-1.4-0.4-2.9-0.4-4.3c0-3.8,0-7.5-0.1-11.3c-0.1-2.3-0.4-4.5-0.8-6.8
				c-0.5-2.9-0.8-5.8-0.9-8.7c-0.1-1.7-0.3-3.5-0.5-5.2c-0.2-2.8-0.4-5.6-0.6-8.4c0-0.6-0.2-0.7-0.7-0.8c-0.7-0.1-1.5-0.1-2.2-0.2
				c-1.8-0.1-2.5-0.8-2.7-2.6c0,0,0-0.1,0-0.1c-0.2-2.8,0.5-3.5,3.5-4c0.2,0,0.4-0.1,0.6-0.1c1.1-0.1,1.1-0.1,1-1.2
				c-0.1-1.7-0.1-3.3-0.2-5c-0.1-3-0.5-5.9-0.7-8.8c-0.1-1.9-0.3-3.8-0.5-5.7c-0.2-3.1-0.5-6.3-0.8-9.4c-0.4-3.6-0.8-7.3-1.2-10.9
				c-0.3-3.2-0.5-6.4-0.7-9.6c-0.2-4.3-0.3-8.6-0.6-12.8c-0.3-4-0.8-7.9-1-11.9c-0.1-2-0.3-4-0.5-6c-0.2-2.9-0.5-5.7-0.5-8.6
				c0-0.4-0.2-0.6-0.6-0.6c-0.8-0.1-1.6-0.2-2.5-0.2c-2.6,0-5.2-0.4-7.8-0.8c-1.5-0.2-3-0.4-4.5-0.5c-2.1-0.1-4.1-0.5-6.1-0.8
				c-1.4-0.2-2.8-0.2-4.1-0.6c-1-0.3-1-0.2-1.1-1.3c-0.1-2.4,0.2-4.8,0.2-7.1c0.1-4,0.1-8,0-12c-0.1-3.1-0.4-6.2-0.3-9.3
				c0-1.2,0-1.2,1.2-1.4c0.6-0.1,1.1-0.2,1.8-0.3c0-2.5,0.1-5-0.2-7.5c-0.1-0.9-0.2-1.7-0.2-2.6c0-3.3,0-6.5,0-9.8
				c0-0.7-0.2-1.1-0.7-1.4c-0.9-0.6-1.6-1.3-2.3-2.2c-0.8-1-1.9-1.7-2.8-2.7c-1.3-1.4-2.5-2.9-3.6-4.5c-0.6-0.9-1.4-1.8-2.1-2.7
				c-1.6-1.8-2.2-2.6-0.6-5.5c0.9-1.6,2-3.1,2.8-4.8c0.7-1.4,1.5-2.7,2.2-4.1c0.3-0.6,0.4-1-0.1-1.7c-1.8-2.1-3.5-4.5-5.2-6.7
				c-1.3-1.7-2.7-3.4-4.2-5c-1.7-1.9-3.2-3.9-4.7-6c-3-4.2-6-8.4-9.5-12.2c-1.7-1.8-3.5-3.7-5.2-5.5c-2.5-2.5-5-5-7.5-7.5
				c-0.7-0.7-1.3-1.4-1.7-2.3c-0.5-0.8-1.3-1.3-1.9-2.1c-1.7-2.7-3.6-5.4-5.4-8.1c-0.7-1-1.2-2.2-1.7-3.3c-0.2-0.6-0.5-1.2-0.8-1.8
				c-0.2-0.5-0.4-1-0.5-1.5c-0.5-3.7-0.8-7.5-1.3-11.3c-0.5-4.1-0.4-8.3-0.4-12.4c0-2.7,0.5-5.4,1.8-7.8c0.6-1.1,0.9-2.2,1.3-3.3
				c0.6-2,1.6-3.8,2.3-5.8c1.2-3.1,2.4-6.2,3.6-9.3c1-2.5,2.2-5,3.2-7.5c0.8-2,1.8-3.9,2.4-6c0.2-0.6,0.7-1.1,0.9-1.8
				c0.8-2.1,1.6-4.2,2.4-6.4c0.5-1.5,1-3.1,1.4-4.7c0.4-1.4,1-2.8,1.5-4.2c1-3.1,2.1-6.1,2.9-9.3c0.7-2.4,1.4-4.8,2-7.3
				c0.7-2.8,1.8-5.5,2.3-8.2c0.5-2.8,1.4-5.4,1.8-8.2c0.1-0.6,0.6-1.1,0.8-1.6c-0.5-0.3-1-0.6-1.4-0.9c-0.9-0.8-1.6-1.7-1.6-3
				c0-2.3-0.1-4.6,0.4-6.8c1-3.9,1.9-7.9,3.2-11.8c0.8-2.4,2.2-4.5,3.3-6.8c0.3-0.6,0.7-0.9,1.4-0.9c2.5-0.1,4.9-0.8,7.3-1.3
				c2.8-0.6,5.6-1.2,8.4-1.8c0.7-0.2,1.5,0,2.2-0.2c-0.1-0.3-0.5-0.4-0.8-0.5c-2.6-0.7-5.2-1.3-7.9-1.7c-1.9-0.3-3.8-0.8-5.7-1.3
				c-0.5-0.1-1-0.3-1.6-0.2c-0.3,0-0.6-0.1-0.8-0.3c-0.4-0.4-0.3-0.8,0.1-0.9c2.4-0.6,4.2-2.4,6.5-3.2c2.3-0.8,4.3-2.3,6.5-3.3
				c2.4-1.2,5-2.2,7.5-3.3c2.3-1,4.6-1.9,6.9-2.7c3.1-1.1,6.2-1.9,9.4-2.4c3.3-0.5,6.6-0.8,10-1.2c2.5-0.3,5.1-0.3,7.6-0.5
				c1.5-0.2,3-0.2,4.5-0.3c0.2-0.3,0-0.5-0.1-0.7c-0.6-0.7-0.8-1.5-0.7-2.5c0-0.4,0-0.8,0-1.2c-0.1-1.1-0.1-1.1-1.2-1.1
				c-2.6,0-3-0.5-2.1-3.1c0.3-0.8,0.6-1.5,0.9-2.3c-0.1-0.1-0.1-0.2-0.2-0.2c-1.8-0.8-1.8-1-1.2-2.8c0.4-1.3,1.2-2.6,2.4-3.4
				c0.5-0.3,0.7-0.6,0.4-1.3c-0.4-0.9-0.1-1.8,0.4-2.6c0.2-0.3,0.5-0.6,0.8-0.9c-0.3-0.5-0.8-0.4-1.3-0.5c-4.1-0.3-8.2-1-12.2-1.8
				c-1.8-0.4-3.6-0.5-5.2-1.2c-0.4-0.2-0.6,0.1-0.9,0.2c-0.3,0.2-0.6,0.2-0.8,0c-0.3-0.3-0.1-0.7,0.1-0.9c0.9-1,1.9-1.8,3-2.5
				c1.5-0.8,3.2-1.1,4.8-1.8c2.6-1.2,5.5-1.9,8-3.4c1.6-1,3.4-1.8,5.1-2.9c2.1-1.4,4.1-2.9,6-4.7c0.5-0.5,0.7-1,0.7-1.7
				c0.2-2.4,0.3-4.7,0.5-7.1c0.1-1.3,0.2-2.6,0.4-3.9c0.4-2.8,0.3-5.6,0.2-8.3c-0.1-3-0.6-6-1.5-8.9c-0.6-2.1-1.5-4.2-1.7-6.5
				c-0.1-0.6-0.8-1-0.4-1.6c0.3-0.5,1-0.4,1.5-0.7c3.4-1.7,7.1-2.2,10.8-2.8c3.1-0.5,6.3-0.8,9.4-1.2c2.4-0.3,4.9-0.8,7.4-1
				c1.6-0.1,3.1,0,4.7-0.2c0.8,0,1.6,0.4,2.3-0.3c0.9,0,1.8,0,2.6,0C247.5,0.7,248.3,0.2,249,0.3z M227.3,83.5
				c1.2,0,2.3,0.1,3.3-0.8c0.2-0.2,0.5-0.3,0.8-0.3c1.8-0.5,2.3-2,2.4-3.6c0.2-2.5,0.4-4.9,0.9-7.3c0-0.2,0.1-0.4,0.3-0.4
				c0.2,0,0.4,0.1,0.5,0.3c0.1,0.1,0.1,0.3,0.1,0.4c0.1,2.3,0.6,4.5,0.6,6.8c0,0.7,0,1.4-1,1.4c-0.6,0-0.6,0.7-0.7,1.1
				c-0.1,0.5,0.4,0.7,0.7,0.8c0.3,0.1,0.7,0.2,1,0.1c0.8-0.1,1.1,0.1,1.1,0.9c0,0.7,0.5,0.9,1.1,0.8c0.5-0.1,0.7-0.4,0.6-1
				c-0.1-0.8,0.2-1.2,1.1-0.9c0.2,0.1,0.5,0,0.6-0.2c0.2-0.2,0-0.5-0.1-0.7c-0.1-0.2-0.2-0.5-0.5-0.5c-1.3-0.1-1.2-1-1.2-1.9
				c0.1-1.4,0.1-2.8-0.2-4.2c-0.2-0.8-0.3-1.6-0.3-2.5c0-0.6-0.3-1.3,0.5-1.6c0.5-0.2,0.7,0.4,0.8,1.6c0,0.8,0,1.6,0.4,2.3
				c0.9,1.6,1.1,3.3,1.4,5c0.1,0.6,0.3,1.1,0.5,1.6c0.3,0.6,0.6,0.7,1.1,0.4c0.7-0.5,1.4-0.2,2,0.2c0.8,0.4,0.9,1.3,1.4,2
				c0.7-0.3,1.2-0.9,2-1c1-0.1,0.8,1.1,1.6,1.4c0.2-0.2,0.4-0.4,0.6-0.6c0.5-0.5,0.9-1.1,1.4-1.7c0.9-1,1.6-0.8,2.2,0.3
				c0.2,0.3,0.1,0.8,0.5,1c0.1-0.1,0.2-0.1,0.2-0.2c0.4-1.2,0.9-2.2,2.4-1.9c0.3,0.1,0.5-0.3,0.6-0.6c0.3-0.6,0.4-1.2,0.6-1.8
				c0.2-0.7,0.2-1.5,0.7-2.1c0.5-0.6,0.5-1.2,0.5-1.9c0-0.5,0-1,0.1-1.5c0.3-1.4,0.1-2.8,0.2-4.2c0-0.6-0.3-0.7-0.8-0.7
				c-0.6,0-0.8,0.4-1.1,0.8c-0.9,2-2.8,2.9-4.8,3.5c-2.2,0.6-4.4,0.6-6.6,0.6c-1.4,0-2.7-0.5-3.7-1.5c-0.4-0.4-0.7-0.8-1.1-1.2
				c-0.2-0.3-0.5-0.4-0.9-0.5c-2.7-0.4-5.3-0.3-8,0.1c-0.4,0.1-0.6,0.2-0.8,0.6c-0.2,0.5-0.5,1-0.7,1.4c-0.8,1.6-2,2.6-3.8,3
				c-1.1,0.3-2.3,0.5-3.4,0.7c-0.7,0.1-1.4,0.1-2,0c-1.7-0.2-3.2-0.9-4.6-1.7c-1.6-0.9-2.7-2.1-3.1-3.9c-0.1-0.6-0.5-0.8-1-0.7
				c-0.3,0-0.7,0-1,0c-0.5,0-0.7,0.3-0.6,0.7c0.2,0.7,0.3,1.4,0.5,2.1c0.4,1.6,0.7,3.3,1.3,4.9c0.2,0.5,0.4,0.8,1.1,0.5
				c1.8-0.6,2.4-0.2,2.8,1.6c0.3,1.3,0.3,1.3,1.6,1c0.8-0.2,1.6-0.3,2.3,0c0.7,0.2,0.9,0.9,1,1.5c0.1,0.4,0.5,0.5,0.8,0.4
				c1.1-0.5,2,0.3,2.9,0.6C227.3,82.7,227.3,83.1,227.3,83.5C227.3,83.5,227.2,83.5,227.3,83.5c-0.1,0.1-0.1,0.1-0.1,0.1
				C227.2,83.6,227.3,83.5,227.3,83.5z M179.6,267.3c0.4-0.5,0.9-0.9,1.3-1.4c1.7-2,3.7-2.4,6-1.1c2.1,1.2,4.4,2.1,6.7,2.8
				c2.7,0.9,5.4,1.8,8,3.3c1.9,1.1,3.8,2,5.9,2.6c0.7,0.2,1.2,0.6,1.8,1c0.8,0.6,0.9,1.2,0.8,2.1c-0.6,3.5-2.2,6.5-3.9,9.6
				c-1.4,2.7-2.9,5.3-4,8.1c-1.2,3-2.5,6-3.7,9c-0.9,2.3-2,4.7-3,7c-1.4,3.1-2.5,6.3-3.7,9.5c-0.5,1.2-1.1,2.4-1.5,3.6
				c-1.2,3.5-2.8,6.9-4.3,10.2c-1.2,2.7-2.8,5.2-4.3,7.8c-1.1,1.9-2.2,3.8-3.6,5.5c-0.8,1-1.7,1.8-2.8,2.3c-2.2,1.1-4.3,0.8-6.1-0.8
				c-0.7-0.6-1.4-1.2-2.1-1.6c-0.3,0.2-0.3,0.4-0.3,0.6c0.1,3.3-0.3,6.5,0.3,9.8c0.4,2.7,0.4,5.4,0.4,8.2c0,0.3,0,0.7,0,1
				c0,0.6,0.4,0.9,0.9,0.8c0.8-0.2,1.6-0.1,2.3-0.2c3.5-0.2,6.9,0.3,10.4,0.2c7.5,0,15,0.1,22.5-0.2c4-0.2,8.1-0.2,12.1,0
				c3.3,0.1,6.5,0.2,9.8,0.3c1.2,0,1.3,0,1.4-1.2c0.2-2.4,0.2-4.8,0.4-7.1c0.2-2.5,0.3-5,0.7-7.4c0.2-1.3,0.4-2.6,0.6-3.9
				c0.2-1.5,0.1-2.9,0.3-4.4c0.6-3.4,1-6.8,1.3-10.3c0.4-4.7,0.6-9.3,0.6-14c0-4.6,0.1-9.3-0.1-13.9c-0.2-4.5-0.4-9.1-0.4-13.6
				c0-4.1-0.1-8.2-0.3-12.3c-0.2-3.4-0.4-6.8-0.6-10.2c-0.1-2.3-0.3-4.7-0.6-7c-0.2-1.9-0.5-3.9-0.6-5.8c-0.2-2.8-0.3-5.5-0.3-8.3
				c0-2-0.1-4-0.2-6c-0.1-3.4-0.5-6.8-0.7-10.2c-0.2-3.3-0.7-6.7-1-10c-0.3-3.2-0.4-6.4-0.7-9.6c-0.2-2.5-0.1-5-0.1-7.5
				c0-6.7,0.1-13.4,0.1-20.1c0-2.6,0.1-5.2-0.2-7.7c-0.1-0.6-0.3-1-0.7-1.3c-4.8-3.6-9.4-7.5-13.9-11.6c-2-1.8-4.2-3.5-6.4-5.1
				c-1.9-1.3-4-2.4-5.9-3.8c-0.5-0.4-1.1-0.7-1.9-0.8c-2.1-0.3-4.1-0.6-6.2-1c-3.2-0.6-6.3-1.1-9.5-1.2c-2.5-0.1-4.9-0.4-7.2-1.1
				c-4-1.2-8.1-1.7-12-2.9c-2.1-0.6-4.3-1-6.5-1.8c-1.8-0.6-3.6-1.1-5.5-1.7c-2.1-0.7-2.2-0.6-2.8,1.4c0,0.1-0.1,0.2-0.1,0.3
				c-0.4,2.2-0.9,4.4-1.2,6.6c-0.3,2.3-0.8,4.6-1.6,6.8c-0.9,2.2-1.8,4.4-2.8,6.6c-1.9,4-3.1,8.3-4.5,12.5c-1.2,3.5-2.1,7-3.3,10.4
				c-1.9,5.4-3.3,10.9-5,16.3c-1.4,4.2-2.5,8.5-4.4,12.5c-0.6,1.3-1.1,2.6-1.4,4c-0.2,1-0.6,2.1-0.8,3.1c-0.6,2.5-1.6,4.8-2.1,7.3
				c-0.2,1.1-0.3,2.2-0.3,3.3c-0.3,3.3-0.8,6.7,0.1,10c0.8,2.9,1.4,5.8,2.8,8.4c1.3,2.5,2.7,5.1,4,7.7c0.5,1,1,2,1.5,3
				c2.4,4.1,4.6,8.2,7.2,12.2c2,3,3.9,5.9,6.4,8.5c4.1,4.2,7.8,8.7,11.2,13.4c1.7,2.5,3.7,4.7,5.8,6.9c1.5,1.6,3.3,3,4.6,4.9
				c0.1,0.1,0.2,0.2,0.6,0c0.2-0.4,0.5-0.9,0.7-1.4c1.6-3.3,3-6.8,4.1-10.3c1.7-5.2,3.7-10.3,5.9-15.4c1.5-3.4,2.8-6.9,3.9-10.5
				c0.1-0.4,0.3-0.8-0.4-0.8c-0.6-0.1-0.8-0.6-1.1-1.1c-1.3-2-2.6-4-4-5.9c-2.1-2.8-4.3-5.5-6.4-8.3c-3.1-4.2-6.1-8.4-8.5-13
				c-0.9-1.6-0.7-3,0.5-4.4c0.5-0.5,1-1,1.5-1.6c0.8-0.8,0.8-0.9,0.3-1.9c-0.2-0.5-0.5-0.9-0.9-1.3c-0.8-0.8-1.5-1.7-2.2-2.5
				c-0.5-0.5-0.7-1.1-0.7-1.8c-0.1-2,0.2-4,0.3-6c0.1-1.6,0.2-3.2,0.3-4.8c0.3-3.3,0.8-6.7,1-10c0.3-4.4,1.3-8.6,3.1-12.7
				c1.2-2.8,2.5-5.6,3.6-8.5c1.3-3.1,2.1-6.4,3-9.6c0.2-0.7,0.5-1.4,0.8-2c0.3-0.7,0-1.5,0-2.3c0.8,0,1.2,0.4,1.3,1
				c0.1,0.5,0.2,1,0.2,1.6c0,1.5-0.3,2.9-0.5,4.3c-0.5,3.1-1,6.2-1.6,9.3c-0.8,4-2.1,7.9-3,11.9c-0.5,2.1-1.2,4.2-1.6,6.4
				c-0.5,2.6,0,5.3-0.5,7.9c0,0.2,0.1,0.5,0.1,0.7c0.2,0.8,0.4,1.6,0.6,2.4c0.5,2.2,1.6,4.2,2.2,6.3c0.6,1.9,1.4,3.7,2.2,5.6
				c1,2.6,1.4,5.5,1.8,8.2c0.5,3.4,1.1,6.7,1.4,10.1c0.1,1,0.3,1.9,0.8,2.8c2.2,4.4,4.6,8.7,7.5,12.6
				C179,266.2,178.9,266.9,179.6,267.3z M305.7,260.9c0.3,0,0.5-0.2,0.5-0.3c0.7-1.3,1.1-2.7,1.1-4.2c0-1.7,0.1-3.3,0.5-4.9
				c0.6-3,1.4-6,2-9.1c0.6-3,0.2-5.9-1.6-8.5c-0.5-0.7-0.9-1.4-0.9-2.3c-0.1-2.8-0.1-5.5,0.7-8.3c0.7-2.3,1.3-4.7,1.9-7
				c0.3-1.4,0.2-2.6-0.8-3.8c-0.8-0.9-1.6-2-1.7-3.3c-0.1-1.3-0.2-2.7,0-3.9c0.5-3,0.6-6,0.6-9c0-1.3-0.3-2.5-0.8-3.7
				c-1.1-2.3-1.6-4.7-1.6-7.2c0-2.4,0-4.9,0.1-7.3c0-1.2,0-2.3-0.2-3.5c-0.2-1.3-0.3-2.6-0.4-3.9c0-0.5,0-1.1,0.9-1.2
				c0,0.8,0,1.6,0.2,2.3c0.2,1,0.5,2,0.8,3c0.4,1.9,0.7,3.9,1.6,5.7c0.7,1.4,1.1,2.9,1.6,4.4c0.6,1.9,1,3.7,1.7,5.6
				c1.8,5.3,3,10.7,4,16.1c0.6,3.4,1.2,6.8,1.6,10.2c0.3,2.6,0.9,5.1,1,7.7c0,3.1,0,6.2-0.1,9.4c0,0.4,0,0.9-0.2,1.3
				c-0.7,1.3-0.8,2.8-1,4.2c-0.3,2.5-0.6,5-1.5,7.4c-1.4,3.8-3.1,7.4-5.3,10.9c-1.3,2-2.3,4.2-4,5.9c-0.2,0.2-0.2,0.5-0.1,0.8
				c0.3,1.9,0.8,3.8,1.5,5.6c0.8,2.2,1.4,4.6,2.3,6.8c1.9,4.9,3.8,9.8,5.4,14.8c1.2,3.5,2.2,7.1,3.6,10.5c0.3,0.8,0.6,1.6,1.1,2.3
				c0.3-0.6,0.2-1.1,0.1-1.6c-0.3-1.2-0.2-2.3-0.2-3.5c0.1-1.5,0.2-3.1,1-4.5c0.8-1.4,1.6-2.9,2.1-4.5c1.1-3.5,3.1-6.5,5-9.5
				c3.4-5.3,7-10.5,9.6-16.3c0.5-1,1.1-1.9,1.6-2.9c1.4-2.6,3-5.1,4.1-7.7c1.4-3.2,2.6-6.4,3.6-9.7c0.7-2.3,1.4-4.7,2-7
				c0.9-3.6,1.3-7.3-0.1-10.9c-0.5-1.2-0.9-2.5-1.8-3.5c-0.5-0.5-0.8-1.2-1.1-1.9c-0.7-1.4-1.3-3-2-4.4c-0.8-1.4-1.4-2.9-1.8-4.4
				c-0.6-2.2-1.3-4.5-2.3-6.6c-0.7-1.4-1.4-2.8-1.8-4.3c-1.1-4-2.7-7.8-4.5-11.5c-1.9-4.1-3.8-8.2-5.2-12.6c-1.1-3.5-2.1-7-2.4-10.6
				c-0.2-2.5-0.7-4.9-1.3-7.3c-1.1-4.5-1.4-9.1-1.2-13.8c0-0.8,0-0.9-0.7-0.7c-1.5,0.4-3.1,0.9-4.6,1.4c-3.8,1.1-7.7,1.8-11.6,2.4
				c-3,0.5-6,1-8.9,1.4c-0.6,0.1-1.1,0.4-1.5,0.8c-0.8,0.9-1.8,1.6-2.8,2.3c-3.7,2.7-7.1,5.7-10.2,9.1c-1.7,1.9-3.3,3.9-5.2,5.5
				c-1.6,1.4-3,2.8-2.5,5.2c0,0.1,0,0.3,0,0.4c0.1,7.6-0.2,15.2,0.2,22.8c0.2,3.3,0.2,6.6,0.3,9.9c0,7.5,0.4,14.9-0.1,22.4
				c-0.3,4.2-0.4,8.4-0.6,12.5c-0.2,3.9,0,7.8-0.3,11.7c-0.2,3.3-0.1,6.6-0.1,10c0,9,0,18.1,0,27.1c0,1.5,0,2.9,0.1,4.4
				c0.5,4.6,0.7,9.2,1.1,13.8c0.1,1.7,0.1,3.5,0.4,5.2c0.9,5.5,1.5,11,1.9,16.5c0.2,3,0.4,5.9,0.3,8.9c0,0.6,0,1.3,0.1,1.9
				c0.3,3.2,0.6,6.5,0.8,9.7c0.1,2.2,0.3,4.4,0.5,6.5c0.2,2,0.5,4,0.7,5.9c0.2,1.7,0.7,3.4,1.1,5.1c0.1,0.6,0.4,0.9,1.1,1
				c2.2,0.4,4.4,0.4,6.5,0.1c1.8-0.2,3.6-0.5,5.4-0.5c5.9,0,11.8,0,17.7,0c1.8,0,3.6-0.3,5.4-0.2c0.6,0,0.7-0.2,0.6-0.8
				c-0.6-3.1-0.7-6.2-0.7-9.3c0-5.9,0.1-11.7,0-17.6c0-3.1,0.4-6.2,0.3-9.3c0-0.3,0.2-0.7-0.3-1c-0.5,0.5-1,1-1.4,1.6
				c-0.5,0.6-0.9,1.1-1.4,1.7c-1.3,1.4-2.3,1.4-3.6,0.1c-0.2-0.2-0.5-0.5-0.7-0.8c-1.5-2.3-3.1-4.5-4.5-6.8c-2.5-4.2-5-8.4-7.1-12.7
				c-1-1.9-1.8-3.9-3-5.7c-0.7-1.1-1.3-2.2-1.8-3.3c-1.5-3.3-2.9-6.6-4.2-9.9c-1.3-3.5-2.5-6.9-3.3-10.6c-0.2-1.2-0.4-2.4-0.4-3.6
				c0.1-1.3,0.6-2.1,1.7-2.7c0.8-0.4,1.5-0.9,2.2-1.5c3.6-3.5,6.9-7.3,9.9-11.3c1-1.3,2-2.7,2.9-4c0.3-0.5,0.7-0.8,1.2-0.9
				c0.3,0,0.8-0.2,0.7,0.5C305,260.2,305.4,260.6,305.7,260.9z M148.6,102.7c0.5,0.2,0.9,0.3,1.3,0.4c3.2,0.7,6.5,1.3,9.7,2.1
				c5.2,1.1,9.9,3.4,14.5,6.1c1.8,1,3.5,2.1,5.2,3.2c1,0.6,2,1.3,2.8,2.3c0.1,0.2,0.4,0.5,0.1,0.6c-0.8,0.3-1.1,1.2-1.9,1.5
				c-0.8,0.3-1.5,0.7-2.1,1.2c-2.2,1.9-4.6,3.4-6.7,5.4c-3.5,3.3-6.7,6.9-9.3,11c-0.2,0.3-0.5,0.5-0.2,1c3.1-0.3,6,0.6,9,1.5
				c0.3,0.1,0.7,0.2,1,0.2c5.9,0.7,11.3,2.9,16.7,5.1c4.7,1.9,9,4.5,13.3,7c1.2,0.7,2.4,1,3.5,1.7c1.6,0.9,3.1,1.8,4.6,2.8
				c1.3,0.9,2.7,1.6,3.7,2.8c2.7,2.8,5.6,5.3,8.4,8.1c1.9,1.9,4,3.6,6,5.4c2.7,2.5,5.4,4.9,7.9,7.6c1.1,1.3,2.3,2.5,3.4,3.8
				c2.5,3.2,5.1,6.4,8.2,9.1c1.3,1.1,2.6,2.3,3.9,3.5c0.2-0.7-0.2-1.2-0.2-1.7c-0.5-3.4-1.1-6.8-1.5-10.2c-0.1-1.4-0.1-2.7-0.3-4.1
				c-0.3-2.7-0.7-5.3-0.8-8c-0.1-4.4-0.3-8.8-0.6-13.3c-0.2-2.7-0.4-5.4-1-8.1c-0.8-4.2-1.3-8.4-1.5-12.7c-0.1-2-0.3-4.1-0.7-6.1
				c-0.3-1.5-0.9-2.9-1.1-4.4c-0.3-2.4-1.5-4.5-1.9-6.8c-0.8,0-1.5,0-2.1,0c-0.3,0-0.6,0-0.8-0.2c-1-1.2-2.6-1.5-3.8-2.4
				c-0.2-0.1-0.4-0.3-0.6-0.3c-1.5,0.1-2.8-0.6-4.2-1.2c-2-0.9-4.2-1.7-5.6-3.6c-0.5-0.7-1.2-0.9-2.1-0.9c-0.8,0-1.6,0.1-2.3-0.1
				c-3.3-0.8-4.8-3.2-5.6-6.3c-0.5-2-1-3.9-2.5-5.5c-0.7-0.7-1.6-1.3-2.2-2.2c-1.7-2.3-2-4.9-1.1-7.6c0.3-0.9,0.1-1.5-0.5-2.1
				c-0.4-0.4-1-0.7-1.3-1.2c-0.5-0.9-1.1-0.9-1.9-0.9c-2.6,0.2-5.2,0.4-7.9,0.6c-4.8,0.3-9.6,0.8-14.3,1.5c-2.6,0.4-5.3,1-7.8,1.8
				c-5.9,2-11.5,4.7-17.1,7.4c-1.3,0.6-2.4,1.6-3.8,2.1c-1.2,0.4-2.3,1-3.4,1.6C150.2,101.8,149.3,101.9,148.6,102.7z M304.1,136.4
				c-1.4-1.2-2.3-2.6-3.6-3.7c-1-0.9-2.1-1.6-3.1-2.4c-1.8-1.5-3.8-2.9-6-3.8c-1.8-0.7-3.5-1.3-5.3-1.9c-0.4-0.1-0.7-0.2-1-0.5
				c-0.1-0.1-0.2-0.2-0.1-0.4c0.1-0.1,0.2-0.2,0.3-0.2c0.3,0,0.6,0.1,0.9,0.1c0.4,0.1,0.6,0,0.8-0.4c0.8-1.9,2.1-3.5,3.4-5.1
				c1-1.2,2.1-2.3,3.1-3.5c2.1-2.5,3.9-5.1,6.1-7.4c1-1,2-2,2.8-3.2c2.1-2.8,4.4-5.5,7.1-7.9c2.4-2.1,4.5-4.6,7.2-6.3
				c0.2-0.1,0.3-0.3,0.3-0.5c-0.7-0.5-1.5-0.1-2.2-0.5c-1.9-1.1-4-1.6-6-2.2c-5-1.4-9.9-2.9-15-3.9c-4.8-1-9.7-1.7-14.6-2.1
				c-3.5-0.3-7-0.4-10.5-0.3c-0.4,0-0.9,0.1-1.3,0.2c-0.5,0.1-0.7,0.4-0.6,0.8c0.4,1.4,0.3,2.8,0.2,4.2c-0.2,2.4-0.4,4.7-1.3,7
				c-0.5,1.3-1.4,2.4-1.3,4c0,0.3-0.2,0.6-0.4,0.9c-0.4,0.9-0.9,1.8-0.5,2.9c0.2,0.5,0,1-0.1,1.6c-0.4,1.3-1.1,2.4-1.9,3.4
				c-1,1.4-2.4,2.6-2.9,4.4c-0.1,0.4-0.4,0.7-0.5,1c-0.6,1.1-1.4,1.9-2.6,2.2c-0.3,0.1-0.7,0.1-0.7,0.4c-0.5,1.5-1.9,2.2-2.9,3.2
				c-1.2,1-2.6,1.8-4.3,1.3c-0.9-0.3-1.8,0-2.7,0.4c-0.7,0.3-0.8,0.6-0.5,1.3c1,2.6,2.4,5.1,2.9,7.9c0.4,1.9,0.9,3.8,1.2,5.7
				c0.5,3.4,0.8,6.9,0.9,10.3c0,0.5,0.1,1,0.2,1.4c0.5,3.1,1.1,6.1,1.5,9.2c0.2,1.3,0.4,2.6,0.3,3.9c-0.1,1.7-0.1,3.3,0.1,5
				c0.3,3.1,0.3,6.1,0,9.2c-0.1,1.4-0.1,2.8,0,4.2c0.2,2.4,0.2,4.9,0,7.3c0,0.3,0,0.7,0,1c0.3,3.1,1.3,6,1.4,9.1
				c0,0.4,0.1,0.8,0.6,0.9c0.7-0.7,1.1-1.6,1.6-2.4c1.2-2,2.3-4,3.6-5.8c3.1-4.4,6.4-8.7,9.5-13.1c0.9-1.2,1.8-2.3,2.5-3.6
				c0.7-1.3,1.6-2.5,2.6-3.5c2.8-3.1,5.8-6.2,8.7-9.3c1.2-1.3,2.5-2.5,3.5-3.9c0.8-1.1,1.8-2.1,2.7-3.1c0.8-0.9,1.6-1.9,2.5-2.7
				c3.1-2.7,6.4-5.2,9.8-7.6C301.4,138.4,302.7,137.4,304.1,136.4z M251.6,40.9c7.1-3.3,8.1-5.7,9.9-7.9c-1.1-0.5-1.3-0.7-1.3-1.4
				c0-1.4-0.5-2.7-0.9-4c-1.4-4.3-2.2-8.7-2.3-13.2c-0.1-3.6-0.5-7.3-0.6-10.9c0-1.4-0.2-1.6-1.7-1.8c-2.5-0.4-5-0.3-7.6-0.6
				c-1.8-0.2-3.7,0.2-5.5,0.2c-3.6,0-7.1,0.4-10.6,1c-4.7,0.7-9.4,1.1-14,2c-2.4,0.5-4.8,1.1-7.2,2c-0.5,0.2-0.7,0.4-0.5,0.9
				c0.4,1.3,0.8,2.7,1.2,4c1.6,4.4,2.1,9,2.4,13.6c0.3,4.8-0.5,9.5-0.7,14.3c0,0.8,0.1,1.3,0.7,1.7c0.9,0.6,1.7,1.3,2.7,1.7
				c2.5,0.8,5.1,1.5,7.8,1.6c1.2,0,2.4,0.3,3.9,0.5c-0.7,0.6-1.2,0.7-1.8,0.8c-0.9,0.1-1.8,0.3-2.7,0.4c-2.2,0.4-4.4,0.5-6.5-0.3
				c-1.3-0.5-2.7-0.8-4.1-1.1c-0.8-0.2-1.2,0-1.7,0.5c-1.7,1.8-3.5,3.5-5.7,4.8c-0.6,0.3-0.6,0.7,0,1.1c1.7,1,3.3,2.1,5.3,2.5
				c2.8,0.6,5.6,0.5,8.4,0.8c1.6,0.2,3.3,0.1,4.8,1c-1.4,0.6-2.7,0.3-4.1,0.3c-2.2,0-4.5-0.4-6.7-0.4c-2.9-0.1-5.5-1.1-7.8-2.8
				c-1.7-1.2-1.6-1.2-3.4-0.4c-0.2,0.1-0.3,0.2-0.5,0.3c-2.9,1.4-5.8,2.8-8.8,3.8c-1.3,0.4-2.5,0.9-3.7,1.6c0.4,0.3,0.7,0.2,1,0.2
				c1.8-0.2,3.6,0.1,5.4,0.4c3,0.5,6,0.8,9,0.8c1.6,0,3.3,0.1,4.9,0.4c3.9,0.7,7.9,1,11.9,1.2c3.8,0.2,7.5,0.8,11.3,1.2
				c1.8,0.2,3.7,0.4,5.5-0.2c1.8-0.6,3.7-0.8,5.5-1.1c2.8-0.4,5.6-0.6,8.4-0.3c1.1,0.1,1.9,0,2.7-0.5c2.7-1.7,5.7-2.5,8.8-2.8
				c3-0.3,5.8-0.9,8.7-1.9c2.3-0.8,4.6-1.4,6.9-2.3c1.3-0.5,2.7-0.9,4-1.5c1-0.4,2-1,2.4-2c-0.2-0.3-0.4-0.3-0.6-0.3
				c-3.8-0.5-7.5-1.4-11-3.3c-0.8-0.4-1.5-0.8-2.3-1.3c-2.4-1.3-4.8-2.5-7.3-3.5c-0.6,0.6-1.4,1.1-2.1,1.7c-2.7,2.3-6,3.3-9.4,3.9
				c-2.1,0.3-4.2,0.6-6.4,0.7c-1.4,0.1-2.7,0.5-4,0.6c-2.4,0.3-4.8-0.3-7.2-0.4c0,0,0-0.1-0.1-0.2c0.8-0.6,1.8-0.6,2.7-0.8
				c4.6-0.9,9.2-1.5,13.7-2.6c3.2-0.8,6.1-2,8.9-3.9c1.4-0.9,2.1-1.8,1.4-3.4c0-0.1-0.1-0.1-0.3-0.3c-1.4,1.6-3.6,2.2-5.2,3.6
				C254.5,40.6,253.3,41.2,251.6,40.9z M246.4,96.1c0-1.1,0.1-2-0.3-2.8c-0.5-1.2-0.8-2.5-2.3-3c-3.4-1-6.8-1.2-10.1,0.4
				c-0.8,0.4-1.2,0.9-1.4,1.7c-0.3,1.8-0.6,3.5-0.6,5.4c0,1.3,0.4,1.8,1.7,2c0.2,0,0.5,0,0.7,0c1.9-0.4,3.9-0.1,5.8-0.2
				c1.6-0.1,3.3-0.3,4.8-0.9C246.1,98.1,246.7,97.4,246.4,96.1z M206,66.9c-0.1,0.3-0.1,0.4-0.2,0.6c-0.7,3.9,1.1,6.8,3.3,9.7
				c0.1,0.2,0.3,0.2,0.5,0.1c0.3-0.1,0.4-0.3,0.4-0.6c0-0.2,0-0.4,0-0.6c-0.3-1.7-0.5-3.4-0.7-5c-0.2-1.6-0.7-2.6-2.1-3.3
				C206.8,67.7,206.5,67.3,206,66.9z M217.3,66.2c0.4,1.5,1.2,2.7,2.3,3.5c0.8,0.6,1.6,1,2.7,1.1c0.4,0,0.8,0,0.8-0.6
				c0-0.8,0.1-1.6,0.1-2.3c0.1-0.8-0.2-1.1-1-1.2C220.6,66.3,219,66.4,217.3,66.2z M263.6,73.8c2.6-3,3.8-7.1,2.9-9.1
				c-0.8,0.8-1.6,1.5-2.5,2c-0.3,0.2-0.4,0.5-0.4,0.9C263.6,69.7,263.6,71.7,263.6,73.8z M244.3,65.8c0.9,1.3,1.8,2.3,3.2,3
				c0.4,0.2,0.8,0.3,1.3,0.3c0.9,0,1.1-0.2,1.1-1.1c0-0.5,0-1,0-1.5c0-1.1,0-1.1-1.1-1.2C247.3,65.2,245.9,65.6,244.3,65.8z
				 M224.2,70.9c1.8,0.1,3-0.8,4.1-1.9c0.5-0.5,1.2-1,1-2c-1.5-0.1-2.9,0.1-4.4-0.2c-0.4-0.1-0.6,0.1-0.6,0.6
				C224.3,68.6,224.3,69.8,224.2,70.9z M250.9,68.8c2.6-0.1,4.6-1.6,4.9-3.8c-1.4,0.1-2.7,0.2-4.1,0.3c-0.6,0-0.8,0.3-0.8,0.8
				C251,67,251.1,67.9,250.9,68.8z M223.1,65.5c-1.7-0.5-3.5-0.4-5.1-1c-0.3-0.1-0.6-0.1-0.6,0.3c0,0.3,0,0.6,0.4,0.6
				c0.1,0,0.2,0,0.3,0c1.6,0,3.1,0,4.6,0.3C222.8,65.8,223,65.7,223.1,65.5z M224.3,65.7c0.5,0.3,0.8,0.4,1.2,0
				C225.2,65.5,224.8,65.5,224.3,65.7z"/>
			<path class="st22" d="M471.9,319c-1.1,0.8-2.3,0.6-3.5,0.4c-0.6-0.1-1.1-0.1-1.7,0.1c-0.7,0.2-1.4,0.1-2,0.1
				c-2.9,0-5.8,0-8.7,0.6c-3.2,0.7-6.1,1.8-9,3.2c-5.1,2.4-9.6,5.5-14,8.8c-3.8,2.8-6,6.7-7.4,11c-0.8,2.5-1.6,5.1-2.1,7.7
				c-0.3,1.6-0.3,3.3-0.4,4.9c-0.2,4,0.3,8,0.9,11.9c0.3,2.5,0.6,5,0.7,7.5c0.2,2.9,0.1,5.8,0.3,8.8c0.2,2.9,0.2,5.7,0.1,8.6
				c-0.1,3.6-0.5,7.2-1,10.7c-0.4,3.1-1.2,6.2-1.9,9.3c-0.9,4.1-2.3,8.1-3.7,12.1c-1.4,4-3,8-5.1,11.7c-1.9,3.3-4.1,6.4-6.8,9.2
				c-1.7,1.8-3.4,3.6-5.2,5.2c-3.1,2.7-6.2,5.3-9.8,7.2c-2.4,1.3-5,2-7.7,2.5c-3.6,0.6-7.3,1-11,1.3c-3.1,0.2-6.1,0.2-9.2,0.1
				c-4.3-0.1-8.6-0.2-12.9-0.3c-2.6-0.1-5-0.8-7-2.7c-1.1-1.1-2.3-2.3-3.7-3c-0.6-0.3-1.1-1-0.9-1.8c0.2-0.8,0.8-1.1,1.8-1.1
				c3.5-0.1,6.6-1.3,9.6-3.1c2.4-1.5,4.8-3,7.1-4.6c3.4-2.2,6.8-4.5,9.9-7.2c2-1.7,3.7-3.6,5.4-5.6c1.3-1.6,2.2-3.4,3.1-5.2
				c2.5-5,5-10,7.4-15.1c1.9-4.1,3.3-8.3,4.1-12.8c0.4-2.5,1-5,1.3-7.6c0.1-0.9,0.3-1.8,0.2-2.8c-0.1-1.1,0.2-2.2,0.2-3.3
				c0.1-3.2-0.3-6.3-0.9-9.4c-0.7-4.3-1.6-8.7-1.8-13.1c-0.2-3-0.1-5.9-0.1-8.9c0-2.6,0.8-5.1,1.7-7.5c1.7-4.4,3.7-8.6,6.1-12.7
				c2.4-4.2,4.7-8.4,6.9-12.7c1-1.9,2.4-3.5,4-5c1.5-1.4,3-2.9,4.6-4.2c0.5-0.4,1-0.8,1.5-1.2c-3.8-1.1-6.7-3.3-9.2-6.1
				c-3.3-3.7-6.2-7.7-9-11.8c-0.8-1.2-1.5-2.4-2-3.7c-0.8-2-1.8-3.9-2.2-6c-0.5-2.3-0.8-4.6-1-6.9c-0.2-3.3-0.2-6.6-0.3-9.9
				c-0.1-3.3,0.4-6.5,0.9-9.7c0.4-2.2,0.5-4.5,0.9-6.8c0.4-3.1,1-6.1,1.8-9.1c0.4-1.6,0.7-3.2,1.1-4.8c0.6-2.1,1.1-4.3,2.1-6.4
				c0.9-1.9,1.4-3.9,2.2-5.9c1-2.4,1.9-4.9,2.9-7.3c1.7-4.5,3-9.2,3.6-13.9c0.6-4.7,0.7-9.4,0.3-14.1c-0.2-2-0.8-4-1.1-6
				c-0.7-3.7-1.9-7.2-3.3-10.7c-1-2.5-2.2-5-3.6-7.3c-1.6-2.6-3.1-5.3-4.8-7.8c-3-4.5-6.1-8.9-10.2-12.5c-3-2.7-6.2-5.2-9.5-7.4
				c-2.6-1.7-5-3.7-7.7-5.2c-0.7-0.4-1.4-0.9-1.5-1.9c-0.1-0.9,0.2-1.3,1.1-1.6c1.8-0.6,3.7-0.9,5.5-1.3c2.7-0.5,5.3-1.4,7.9-2
				c2.9-0.7,5.8-1.2,8.8-0.9c1.7,0.2,3.5,0.3,5.2,0.4c2.4,0,4.8,0.6,7.1,1c1.2,0.2,2.3,0.8,3.4,1.3c3.2,1.7,6.3,3.6,9.2,5.9
				c2.8,2.3,5.3,4.8,7.8,7.5c2,2.2,4,4.4,5.9,6.6c3,3.4,5.8,7,8.1,10.9c1.5,2.6,2.6,5.4,3.3,8.4c0.6,2.5,0.9,5.1,1.2,7.6
				c0.7,5,0.5,10.1,0.6,15.1c0.2,7.1,0.2,14.2,0.2,21.4c0,3.3-0.4,6.5-1,9.7c-0.6,3.2-1.4,6.3-2.3,9.5c-1,3.6-1.7,7.4-2.7,11
				c-1.2,4.1-1.8,8.3-2.5,12.5c-1.2,6.4-1.3,12.9-0.9,19.3c0.1,2.2,0.8,4.4,1.2,6.6c0.7,3.5,2.3,6.6,3.7,9.8c0.4,0.9,1,1.8,1.6,2.6
				c2.3,3.2,4.5,6.4,7.4,9.2c3,3,6.4,5.5,9.8,7.9c2.3,1.6,4.7,3,7.1,4.3c1.4,0.8,2.8,1.3,4.3,1.8c2.1,0.8,4.2,1.5,6.4,1.9
				c0.5,0.1,1.1,0.1,1.6,0.1c0.7,0,1.3,0.1,1.7,0.6C471.9,317.8,471.9,318.4,471.9,319z"/>
			<path class="st1" d="M289.9,576.2c2.4-0.1,4.8-0.1,7.2,0l0,0.1l-0.1,0.1c-2.3,0-4.7,0-7,0l-0.1-0.1L289.9,576.2z"/>
			<path class="st1" d="M244.3,0c-0.7,0.7-1.6,0.2-2.3,0.3c0-0.1,0-0.2,0-0.3C242.7,0,243.5,0,244.3,0z"/>
			<path class="st1" d="M249,0.3c-0.7-0.1-1.4,0.4-2-0.3c0.7,0,1.4,0,2.1,0c0,0.1-0.1,0.1-0.1,0.2C248.9,0.2,248.9,0.3,249,0.3z"/>
			<path class="st22" d="M61.1,309.1c1.5,1.4,2.9,2.7,4.4,3.9c1.8,1.6,3.6,3.3,4.9,5.3c0.9,1.4,1.8,3,2.5,4.5
				c1.6,3.4,3.7,6.5,5.4,9.8c1.2,2.2,2.3,4.4,3.4,6.7c0.6,1.3,1.2,2.6,1.7,3.9c0.9,2.5,1.8,4.9,2.2,7.6c0.4,3,0.2,6,0.2,9.1
				c-0.1,2.8-0.4,5.5-0.9,8.2c-0.4,2.5-1.1,5-1.4,7.5c-0.4,3.3-0.7,6.5-0.5,9.9c0.2,2.5,0.3,4.9,0.7,7.4c0.6,3.6,1.3,7.1,2.3,10.6
				c1.4,4.7,3.7,9,5.9,13.3c1.4,2.8,2.6,5.6,4.1,8.4c1.9,3.6,4,6.9,7.1,9.6c2.1,1.9,4.3,3.7,6.6,5.3c1.2,0.8,2.4,1.8,3.7,2.5
				c2.6,1.5,5.1,3.3,7.7,4.9c1.2,0.7,2.4,1.5,3.6,2c2,0.9,4.2,1.4,6.4,1.5c0.4,0,0.8,0,1.3,0.2c0.9,0.5,1.1,1.4,0.4,2.2
				c-0.2,0.2-0.4,0.5-0.6,0.6c-1.7,0.9-3,2.3-4.4,3.6c-1.1,1-2.4,1.4-3.8,1.8c-0.8,0.2-1.7,0.3-2.6,0.3c-3,0.1-6,0.1-8.9,0.1
				c-1.5,0-3,0.2-4.5,0.2c-4.6,0-9.1-0.1-13.7-0.6c-3-0.3-6-0.8-8.9-1.4c-2.5-0.5-4.6-1.7-6.7-3c-5.3-3.3-9.7-7.6-13.9-12.1
				c-2.3-2.5-4.4-5.4-6-8.4c-1.9-3.4-3.5-7-4.7-10.7c-0.7-2.2-1.4-4.4-2.3-6.5c-0.4-0.9-0.5-2-0.8-2.9c-0.3-1.2-0.5-2.4-1-3.5
				c-0.4-1.1-0.5-2.3-0.7-3.4c-0.2-1-0.6-2.1-0.7-3.1c-0.1-1.1-0.2-2.3-0.5-3.3c-0.4-1.2-0.2-2.4-0.5-3.5c-0.2-0.7,0-1.5-0.1-2.3
				c-0.4-3.6-0.4-7.2-0.3-10.8c0.1-4.5,0.3-9,0.6-13.6c0.2-3,0.7-6.1,1.1-9.1c0.4-3.4,0.5-6.8,0.3-10.1c-0.1-1.2-0.4-2.3-0.7-3.5
				c-0.6-2.9-1.5-5.8-2.5-8.6c-1-2.7-2.2-5.3-4.4-7.2c-2.3-2-4.9-3.8-7.4-5.6c-3.3-2.4-6.9-4.1-10.5-5.9c-1.2-0.6-2.4-1.2-3.7-1.7
				c-1.1-0.5-2.5-0.5-3.7-0.8c-0.8-0.2-1.6-0.3-2.5-0.5c-0.7-0.2-1.5-0.3-2.3-0.3c-1.7,0-3.3,0.2-5,0c-1.8-0.2-3.5,0-5.2-0.1
				c-0.9,0-1.2-0.3-1.4-1.1c-0.2-0.7,0.2-1.4,0.9-1.7c0.2-0.1,0.5-0.2,0.7-0.2c2.5-0.1,4.8-0.7,7.1-1.6c1.3-0.5,2.6-1,3.9-1.5
				c2.2-0.8,4.1-2,6-3.2c2.6-1.6,5-3.3,7.4-5.2c3.4-2.7,6.5-5.6,9.1-9.1c1.6-2.2,3.3-4.3,4.7-6.7c0.9-1.6,1.6-3.2,2.3-4.9
				c1.1-2.5,1.7-5.3,2.3-7.9c0.4-1.9,0.7-3.9,0.8-5.9c0.1-4.2,0-8.5-0.4-12.7c-0.3-3.6-1.1-7.2-1.8-10.8c-0.3-1.7-0.4-3.4-0.9-5
				c-0.5-1.8-1.1-3.6-1.4-5.5c-0.5-2.7-1.3-5.3-2-8c-0.5-2-1.1-3.9-1.5-5.9c-0.7-3.1-1.2-6.2-1.4-9.3c-0.4-6.6-0.2-13.2-0.1-19.7
				c0.1-3.7,0-7.5,0.1-11.3c0.1-2.4,0-4.8,0.3-7.1c0.3-2.4,0.4-4.8,1-7.2c0.9-4.1,2.3-8,4.6-11.6c3.2-5,7.2-9.4,11.1-13.9
				c2.1-2.3,4.2-4.6,6.5-6.7c2.5-2.4,5.1-4.5,8-6.3c1.7-1,3.4-2,5.2-3c1.2-0.7,2.6-1,4-1.3c1.1-0.2,2.3-0.4,3.4-0.6
				c1.1-0.2,2.2-0.1,3.3-0.1c2.1-0.1,4.2-0.4,6.3-0.4c3.1,0,6,0.7,9,1.6c1.6,0.5,3.3,0.9,4.9,1.3c2,0.5,4.2,0.7,6.2,1.4
				c0.6,0.2,1.3,0.2,1.4,1c0.1,0.8-0.1,1.5-0.9,2c-0.8,0.5-1.6,1.1-2.4,1.6c-1.5,0.9-2.8,2.1-4.2,3c-1.4,0.9-2.7,1.8-4.1,2.7
				c-5.4,3.7-10.1,8-13.9,13.3c-2.9,4-5.5,8.1-7.9,12.3c-1.1,2-2.1,4-3.1,6c-1.2,2.4-2.1,4.9-2.9,7.5c-1.9,6.3-3,12.7-2.5,19.3
				c0.2,2.2,0.2,4.4,0.5,6.5c0.6,3.8,1.4,7.5,2.7,11.2c0.9,2.6,1.9,5.1,2.9,7.6c0.6,1.6,1.3,3.2,1.8,4.9c0.3,1.1,0.8,2.1,1.2,3.1
				c1.3,3.1,2.1,6.4,2.8,9.6c0.6,2.5,1.1,5.1,1.7,7.6c0.3,1.5,0.5,3,0.7,4.6c0.3,2.6,0.7,5.2,1.1,7.7c0.3,1.6,0.4,3.2,0.4,4.8
				c0,3.5,0.1,7-0.1,10.5c-0.2,3.1-0.4,6.3-1.4,9.3c-0.8,2.5-1.7,5-3.1,7.3c-2.2,3.6-4.7,7-7.4,10.3c-1.4,1.7-2.8,3.5-4.5,5
				c-1.5,1.4-3.2,2.4-5,3.3C62.5,308.6,62,309.3,61.1,309.1z"/>
			<path class="st1" d="M179.6,267.3c-0.6-0.4-0.6-1.1-1-1.6c-2.9-4-5.3-8.3-7.5-12.6c-0.5-0.9-0.7-1.8-0.8-2.8
				c-0.3-3.4-0.9-6.7-1.4-10.1c-0.4-2.8-0.8-5.6-1.8-8.2c-0.7-1.8-1.6-3.7-2.2-5.6c-0.6-2.1-1.7-4.1-2.2-6.3
				c-0.2-0.8-0.4-1.6-0.6-2.4c-0.1-0.2-0.2-0.5-0.1-0.7c0.5-2.6,0-5.3,0.5-7.9c0.4-2.2,1.1-4.2,1.6-6.4c0.9-4,2.3-7.8,3-11.9
				c0.6-3.1,1.1-6.2,1.6-9.3c0.2-1.4,0.6-2.9,0.5-4.3c0-0.5-0.1-1.1-0.2-1.6c-0.2-0.6-0.6-1-1.3-1c0,0.8,0.3,1.5,0,2.3
				c-0.3,0.7-0.6,1.3-0.8,2c-0.9,3.2-1.7,6.5-3,9.6c-1.1,2.8-2.4,5.6-3.6,8.5c-1.7,4.1-2.8,8.3-3.1,12.7c-0.2,3.3-0.7,6.7-1,10
				c-0.2,1.6-0.3,3.2-0.3,4.8c-0.1,2-0.4,4-0.3,6c0,0.7,0.2,1.3,0.7,1.8c0.8,0.8,1.5,1.7,2.2,2.5c0.4,0.4,0.6,0.9,0.9,1.3
				c0.5,1,0.5,1.1-0.3,1.9c-0.5,0.5-1.1,1-1.5,1.6c-1.3,1.4-1.4,2.8-0.5,4.4c2.5,4.6,5.4,8.9,8.5,13c2.1,2.8,4.3,5.5,6.4,8.3
				c1.4,1.9,2.7,3.9,4,5.9c0.3,0.5,0.5,1,1.1,1.1c0.6,0.1,0.5,0.5,0.4,0.8c-1.1,3.6-2.5,7.1-3.9,10.5c-2.1,5.1-4.2,10.2-5.9,15.4
				c-1.1,3.5-2.5,7-4.1,10.3c-0.2,0.5-0.5,1-0.7,1.4c-0.3,0.2-0.5,0.1-0.6,0c-1.3-1.8-3.1-3.3-4.6-4.9c-2.1-2.2-4.1-4.4-5.8-6.9
				c-3.4-4.8-7.1-9.2-11.2-13.4c-2.5-2.6-4.4-5.5-6.4-8.5c-2.6-4-4.8-8.1-7.2-12.2c-0.6-1-1-2-1.5-3c-1.3-2.6-2.6-5.1-4-7.7
				c-1.4-2.7-2-5.6-2.8-8.4c-0.9-3.4-0.4-6.7-0.1-10c0.1-1.1,0.1-2.2,0.3-3.3c0.5-2.5,1.6-4.8,2.1-7.3c0.2-1,0.6-2.1,0.8-3.1
				c0.3-1.4,0.8-2.7,1.4-4c2-4,3.1-8.3,4.4-12.5c1.7-5.4,3.1-11,5-16.3c1.2-3.4,2.1-7,3.3-10.4c1.4-4.2,2.7-8.5,4.5-12.5
				c1-2.2,2-4.4,2.8-6.6c0.9-2.2,1.3-4.5,1.6-6.8c0.3-2.2,0.8-4.4,1.2-6.6c0-0.1,0-0.2,0.1-0.3c0.7-2.1,0.8-2.1,2.8-1.4
				c1.8,0.6,3.7,1,5.5,1.7c2.1,0.8,4.3,1.1,6.5,1.8c4,1.2,8.1,1.7,12,2.9c2.3,0.7,4.7,1,7.2,1.1c3.2,0.1,6.4,0.6,9.5,1.2
				c2.1,0.4,4.1,0.8,6.2,1c0.7,0.1,1.3,0.4,1.9,0.8c1.8,1.4,4,2.5,5.9,3.8c2.2,1.6,4.4,3.2,6.4,5.1c4.4,4.1,9,8,13.9,11.6
				c0.5,0.4,0.7,0.7,0.7,1.3c0.4,2.6,0.2,5.2,0.2,7.7c0,6.7,0,13.4-0.1,20.1c0,2.5-0.1,5,0.1,7.5c0.3,3.2,0.4,6.4,0.7,9.6
				c0.3,3.3,0.8,6.7,1,10c0.2,3.4,0.7,6.8,0.7,10.2c0,2,0.1,4,0.2,6c0,2.8,0.1,5.5,0.3,8.3c0.1,1.9,0.3,3.9,0.6,5.8
				c0.3,2.3,0.4,4.6,0.6,7c0.2,3.4,0.4,6.8,0.6,10.2c0.2,4.1,0.3,8.2,0.3,12.3c0,4.5,0.2,9.1,0.4,13.6c0.2,4.6,0.2,9.3,0.1,13.9
				c0,4.7-0.2,9.3-0.6,14c-0.3,3.4-0.7,6.9-1.3,10.3c-0.3,1.4-0.1,2.9-0.3,4.4c-0.2,1.3-0.4,2.6-0.6,3.9c-0.4,2.4-0.5,4.9-0.7,7.4
				c-0.2,2.4-0.1,4.8-0.4,7.1c-0.1,1.2-0.2,1.3-1.4,1.2c-3.3-0.1-6.5-0.2-9.8-0.3c-4.1-0.1-8.1-0.1-12.1,0c-7.5,0.4-15,0.2-22.5,0.2
				c-3.5,0-6.9-0.4-10.4-0.2c-0.8,0-1.6-0.1-2.3,0.2c-0.6,0.2-0.9-0.1-0.9-0.8c0-0.3,0-0.7,0-1c0-2.7,0.1-5.5-0.4-8.2
				c-0.5-3.3-0.1-6.5-0.3-9.8c0-0.2,0-0.4,0.3-0.6c0.7,0.4,1.4,1,2.1,1.6c1.9,1.5,4,1.8,6.1,0.8c1.1-0.5,2-1.3,2.8-2.3
				c1.4-1.7,2.5-3.6,3.6-5.5c1.6-2.5,3.1-5.1,4.3-7.8c1.5-3.4,3.1-6.7,4.3-10.2c0.4-1.2,1-2.4,1.5-3.6c1.2-3.2,2.4-6.4,3.7-9.5
				c1-2.3,2-4.6,3-7c1.2-3,2.5-6,3.7-9c1.2-2.8,2.6-5.4,4-8.1c1.6-3,3.2-6.1,3.9-9.6c0.2-1,0-1.6-0.8-2.1c-0.6-0.4-1.1-0.8-1.8-1
				c-2.1-0.6-4-1.5-5.9-2.6c-2.5-1.4-5.2-2.3-8-3.3c-2.3-0.8-4.6-1.7-6.7-2.8c-2.3-1.2-4.3-0.9-6,1.1
				C180.4,266.4,180,266.9,179.6,267.3z"/>
			<path class="st1" d="M305.7,260.9c-0.3-0.3-0.7-0.7-0.6-1.1c0.1-0.7-0.4-0.6-0.7-0.5c-0.6,0.1-0.9,0.5-1.2,0.9
				c-1,1.3-2,2.7-2.9,4c-3,4.1-6.3,7.8-9.9,11.3c-0.6,0.6-1.4,1.1-2.2,1.5c-1.1,0.5-1.6,1.4-1.7,2.7c-0.1,1.2,0.1,2.4,0.4,3.6
				c0.7,3.6,1.9,7.1,3.3,10.6c1.3,3.4,2.7,6.7,4.2,9.9c0.5,1.2,1.1,2.3,1.8,3.3c1.1,1.8,2,3.8,3,5.7c2.2,4.4,4.7,8.5,7.1,12.7
				c1.4,2.3,3,4.6,4.5,6.8c0.2,0.3,0.4,0.5,0.7,0.8c1.3,1.3,2.3,1.3,3.6-0.1c0.5-0.5,0.9-1.1,1.4-1.7c0.5-0.5,1-1.1,1.4-1.6
				c0.5,0.3,0.3,0.7,0.3,1c0,3.1-0.3,6.2-0.3,9.3c0.1,5.9,0,11.7,0,17.6c0,3.1,0.1,6.2,0.7,9.3c0.1,0.6,0,0.8-0.6,0.8
				c-1.8-0.1-3.6,0.3-5.4,0.2c-5.9-0.1-11.8,0-17.7,0c-1.8,0-3.6,0.2-5.4,0.5c-2.2,0.3-4.4,0.3-6.5-0.1c-0.7-0.1-1-0.4-1.1-1
				c-0.3-1.7-0.9-3.4-1.1-5.1c-0.2-2-0.5-3.9-0.7-5.9c-0.2-2.2-0.4-4.4-0.5-6.5c-0.2-3.2-0.5-6.5-0.8-9.7c-0.1-0.6-0.1-1.3-0.1-1.9
				c0.1-3-0.2-5.9-0.3-8.9c-0.3-5.5-0.9-11-1.9-16.5c-0.3-1.7-0.3-3.5-0.4-5.2c-0.4-4.6-0.6-9.2-1.1-13.8c-0.1-1.5-0.1-2.9-0.1-4.4
				c0-9,0-18.1,0-27.1c0-3.3-0.1-6.6,0.1-10c0.2-3.9,0.1-7.8,0.3-11.7c0.2-4.2,0.3-8.4,0.6-12.5c0.5-7.5,0.2-14.9,0.1-22.4
				c0-3.3-0.1-6.6-0.3-9.9c-0.4-7.6-0.1-15.2-0.2-22.8c0-0.1,0-0.3,0-0.4c-0.5-2.4,0.9-3.8,2.5-5.2c1.9-1.7,3.5-3.7,5.2-5.5
				c3.1-3.4,6.5-6.5,10.2-9.1c1-0.7,2-1.4,2.8-2.3c0.4-0.4,0.9-0.7,1.5-0.8c3-0.5,5.9-1,8.9-1.4c3.9-0.6,7.8-1.2,11.6-2.4
				c1.5-0.5,3.1-0.9,4.6-1.4c0.7-0.2,0.8-0.1,0.7,0.7c-0.2,4.6,0,9.2,1.2,13.8c0.6,2.4,1.1,4.8,1.3,7.3c0.3,3.7,1.4,7.1,2.4,10.6
				c1.3,4.3,3.3,8.4,5.2,12.6c1.7,3.8,3.4,7.5,4.5,11.5c0.4,1.5,1.1,2.9,1.8,4.3c1,2.1,1.7,4.3,2.3,6.6c0.4,1.6,1.1,3,1.8,4.4
				c0.8,1.4,1.3,2.9,2,4.4c0.3,0.7,0.7,1.3,1.1,1.9c0.9,1,1.3,2.3,1.8,3.5c1.4,3.6,1,7.3,0.1,10.9c-0.6,2.4-1.2,4.7-2,7
				c-1.1,3.3-2.2,6.5-3.6,9.7c-1.2,2.7-2.7,5.2-4.1,7.7c-0.5,1-1.2,1.9-1.6,2.9c-2.6,5.8-6.3,11-9.6,16.3c-1.9,3-3.9,6-5,9.5
				c-0.5,1.6-1.3,3-2.1,4.5c-0.8,1.4-0.9,3-1,4.5c-0.1,1.2-0.1,2.3,0.2,3.5c0.1,0.5,0.1,1-0.1,1.6c-0.6-0.8-0.8-1.6-1.1-2.3
				c-1.4-3.4-2.5-7-3.6-10.5c-1.6-5-3.5-9.9-5.4-14.8c-0.9-2.2-1.5-4.5-2.3-6.8c-0.7-1.8-1.2-3.7-1.5-5.6c-0.1-0.3-0.1-0.5,0.1-0.8
				c1.7-1.7,2.7-3.9,4-5.9c2.2-3.4,3.9-7.1,5.3-10.9c0.9-2.4,1.2-4.9,1.5-7.4c0.2-1.5,0.3-2.9,1-4.2c0.2-0.4,0.2-0.8,0.2-1.3
				c0-3.1,0.1-6.2,0.1-9.4c0-2.6-0.7-5.1-1-7.7c-0.4-3.4-1-6.8-1.6-10.2c-1-5.5-2.2-10.9-4-16.1c-0.6-1.8-1.1-3.7-1.7-5.6
				c-0.5-1.5-0.9-3-1.6-4.4c-0.9-1.8-1.2-3.8-1.6-5.7c-0.2-1-0.5-2-0.8-3c-0.2-0.8-0.1-1.5-0.2-2.3c-0.9,0.1-0.9,0.7-0.9,1.2
				c0.1,1.3,0.1,2.6,0.4,3.9c0.2,1.2,0.2,2.3,0.2,3.5c0,2.4,0,4.9-0.1,7.3c0,2.5,0.5,4.9,1.6,7.2c0.6,1.2,0.8,2.4,0.8,3.7
				c0,3-0.1,6-0.6,9c-0.2,1.3-0.2,2.6,0,3.9c0.1,1.3,0.9,2.4,1.7,3.3c1,1.2,1.1,2.5,0.8,3.8c-0.6,2.4-1.2,4.7-1.9,7
				c-0.8,2.7-0.8,5.5-0.7,8.3c0,0.9,0.5,1.6,0.9,2.3c1.8,2.6,2.1,5.5,1.6,8.5c-0.6,3-1.3,6.1-2,9.1c-0.3,1.6-0.5,3.3-0.5,4.9
				c0,1.5-0.3,2.9-1.1,4.2C306.2,260.7,306,260.9,305.7,260.9z"/>
			<path class="st1" d="M148.6,102.7c0.6-0.8,1.5-0.8,2.2-1.2c1.1-0.6,2.2-1.2,3.4-1.6c1.4-0.5,2.5-1.5,3.8-2.1
				c5.6-2.7,11.2-5.4,17.1-7.4c2.5-0.8,5.2-1.4,7.8-1.8c4.8-0.8,9.5-1.2,14.3-1.5c2.6-0.2,5.2-0.4,7.9-0.6c0.8-0.1,1.5,0,1.9,0.9
				c0.3,0.5,0.8,0.8,1.3,1.2c0.6,0.6,0.8,1.2,0.5,2.1c-0.9,2.7-0.6,5.3,1.1,7.6c0.6,0.8,1.4,1.5,2.2,2.2c1.6,1.5,2,3.4,2.5,5.5
				c0.8,3,2.3,5.4,5.6,6.3c0.7,0.2,1.6,0.1,2.3,0.1c0.8,0,1.5,0.2,2.1,0.9c1.4,1.8,3.6,2.7,5.6,3.6c1.3,0.6,2.6,1.3,4.2,1.2
				c0.2,0,0.5,0.2,0.6,0.3c1.2,0.9,2.8,1.2,3.8,2.4c0.2,0.2,0.5,0.2,0.8,0.2c0.7,0,1.3,0,2.1,0c0.5,2.3,1.6,4.4,1.9,6.8
				c0.2,1.5,0.8,2.9,1.1,4.4c0.4,2,0.6,4,0.7,6.1c0.2,4.3,0.7,8.5,1.5,12.7c0.5,2.7,0.8,5.4,1,8.1c0.3,4.4,0.5,8.8,0.6,13.3
				c0.1,2.7,0.5,5.3,0.8,8c0.1,1.4,0.1,2.7,0.3,4.1c0.3,3.4,1,6.8,1.5,10.2c0.1,0.5,0.5,1,0.2,1.7c-1.3-1.2-2.6-2.4-3.9-3.5
				c-3.2-2.6-5.7-5.9-8.2-9.1c-1.1-1.3-2.3-2.5-3.4-3.8c-2.4-2.7-5.2-5.1-7.9-7.6c-2-1.8-4.1-3.5-6-5.4c-2.8-2.7-5.7-5.2-8.4-8.1
				c-1.1-1.1-2.5-1.9-3.7-2.8c-1.5-1-3-1.9-4.6-2.8c-1.1-0.6-2.4-1-3.5-1.7c-4.3-2.5-8.6-5.2-13.3-7c-5.4-2.2-10.8-4.4-16.7-5.1
				c-0.3,0-0.7-0.1-1-0.2c-2.9-0.9-5.9-1.9-9-1.5c-0.3-0.5,0.1-0.7,0.2-1c2.6-4.1,5.8-7.7,9.3-11c2.1-2,4.5-3.6,6.7-5.4
				c0.6-0.5,1.4-1,2.1-1.2c0.8-0.3,1.1-1.2,1.9-1.5c0.3-0.1,0-0.4-0.1-0.6c-0.8-1-1.8-1.7-2.8-2.3c-1.7-1.1-3.5-2.1-5.2-3.2
				c-4.6-2.7-9.3-5-14.5-6.1c-3.2-0.7-6.5-1.4-9.7-2.1C149.5,103,149.1,102.8,148.6,102.7z"/>
			<path class="st1" d="M304.1,136.4c-1.4,1-2.6,2-3.9,2.9c-3.3,2.4-6.6,4.9-9.8,7.6c-0.9,0.8-1.7,1.8-2.5,2.7c-0.9,1-1.9,2-2.7,3.1
				c-1,1.4-2.3,2.6-3.5,3.9c-2.8,3.2-5.8,6.2-8.7,9.3c-1,1.1-1.9,2.3-2.6,3.5c-0.7,1.3-1.7,2.4-2.5,3.6c-3.2,4.4-6.4,8.7-9.5,13.1
				c-1.3,1.9-2.4,3.9-3.6,5.8c-0.5,0.8-0.9,1.7-1.6,2.4c-0.5-0.1-0.6-0.5-0.6-0.9c-0.1-3.1-1.1-6-1.4-9.1c0-0.3,0-0.7,0-1
				c0.2-2.4,0.2-4.9,0-7.3c-0.1-1.4-0.2-2.8,0-4.2c0.3-3.1,0.3-6.1,0-9.2c-0.2-1.6-0.2-3.3-0.1-5c0.1-1.3-0.1-2.6-0.3-3.9
				c-0.4-3.1-1-6.1-1.5-9.2c-0.1-0.5-0.2-1-0.2-1.4c-0.1-3.5-0.4-6.9-0.9-10.3c-0.3-1.9-0.8-3.8-1.2-5.7c-0.5-2.8-1.9-5.3-2.9-7.9
				c-0.3-0.7-0.1-1,0.5-1.3c0.9-0.4,1.8-0.7,2.7-0.4c1.7,0.5,3.1-0.3,4.3-1.3c1.1-0.9,2.5-1.6,2.9-3.2c0.1-0.3,0.5-0.3,0.7-0.4
				c1.2-0.4,2-1.2,2.6-2.2c0.2-0.3,0.4-0.7,0.5-1c0.5-1.8,1.9-3,2.9-4.4c0.8-1.1,1.6-2.1,1.9-3.4c0.1-0.5,0.3-1.1,0.1-1.6
				c-0.4-1.1,0-2,0.5-2.9c0.1-0.3,0.4-0.6,0.4-0.9c-0.1-1.5,0.8-2.7,1.3-4c0.9-2.2,1.2-4.6,1.3-7c0.1-1.4,0.2-2.8-0.2-4.2
				c-0.1-0.4,0.1-0.7,0.6-0.8c0.4-0.1,0.9-0.2,1.3-0.2c3.5-0.1,7,0,10.5,0.3c4.9,0.5,9.7,1.1,14.6,2.1c5.1,1.1,10,2.5,15,3.9
				c2.1,0.6,4.1,1.1,6,2.2c0.7,0.4,1.6,0,2.2,0.5c0,0.3-0.1,0.4-0.3,0.5c-2.8,1.7-4.9,4.2-7.2,6.3c-2.7,2.4-4.9,5.1-7.1,7.9
				c-0.8,1.1-1.8,2.2-2.8,3.2c-2.2,2.3-4.1,5-6.1,7.4c-1,1.2-2,2.4-3.1,3.5c-1.3,1.5-2.6,3.2-3.4,5.1c-0.2,0.4-0.4,0.5-0.8,0.4
				c-0.3-0.1-0.6-0.1-0.9-0.1c-0.2,0-0.3,0.1-0.3,0.2c-0.1,0.2,0,0.3,0.1,0.4c0.3,0.3,0.7,0.4,1,0.5c1.8,0.6,3.6,1.2,5.3,1.9
				c2.2,0.9,4.2,2.3,6,3.8c1,0.8,2.1,1.6,3.1,2.4C301.7,133.7,302.7,135.2,304.1,136.4z"/>
			<path class="st1" d="M251.6,40.9c1.7,0.3,2.9-0.3,3.9-1.1c1.7-1.4,3.8-2,5.2-3.6c0.1,0.2,0.2,0.2,0.3,0.3c0.7,1.6,0,2.5-1.4,3.4
				c-2.8,1.8-5.7,3.1-8.9,3.9c-4.5,1.1-9.2,1.8-13.7,2.6c-0.9,0.2-1.9,0.1-2.7,0.8c0,0.1,0.1,0.2,0.1,0.2c2.4,0.1,4.8,0.7,7.2,0.4
				c1.4-0.1,2.7-0.5,4-0.6c2.1-0.2,4.2-0.4,6.4-0.7c3.5-0.5,6.7-1.6,9.4-3.9c0.7-0.6,1.5-1,2.1-1.7c2.6,1,5,2.2,7.3,3.5
				c0.8,0.4,1.5,0.8,2.3,1.3c3.4,1.9,7.1,2.8,11,3.3c0.2,0,0.4,0,0.6,0.3c-0.5,1-1.4,1.6-2.4,2c-1.3,0.5-2.6,1-4,1.5
				c-2.3,0.9-4.6,1.5-6.9,2.3c-2.8,0.9-5.7,1.6-8.7,1.9c-3.1,0.3-6.1,1-8.8,2.8c-0.8,0.5-1.7,0.7-2.7,0.5c-2.8-0.3-5.6-0.1-8.4,0.3
				c-1.9,0.3-3.7,0.5-5.5,1.1c-1.8,0.6-3.7,0.4-5.5,0.2c-3.8-0.4-7.5-0.9-11.3-1.2c-4-0.2-7.9-0.6-11.9-1.2
				c-1.6-0.3-3.3-0.4-4.9-0.4c-3,0-6-0.3-9-0.8c-1.8-0.3-3.6-0.6-5.4-0.4c-0.3,0-0.6,0.1-1-0.2c1.2-0.7,2.5-1.1,3.7-1.6
				c3.1-1,5.9-2.4,8.8-3.8c0.2-0.1,0.3-0.2,0.5-0.3c1.8-0.8,1.8-0.8,3.4,0.4c2.3,1.7,4.9,2.7,7.8,2.8c2.2,0.1,4.5,0.4,6.7,0.4
				c1.3,0,2.7,0.3,4.1-0.3c-1.5-1-3.2-0.8-4.8-1c-2.8-0.4-5.6-0.3-8.4-0.8c-2-0.4-3.6-1.5-5.3-2.5c-0.6-0.4-0.6-0.7,0-1.1
				c2.2-1.2,4-3,5.7-4.8c0.5-0.6,0.9-0.7,1.7-0.5c1.4,0.3,2.7,0.6,4.1,1.1c2.1,0.8,4.3,0.6,6.5,0.3c0.9-0.1,1.8-0.3,2.7-0.4
				c0.6-0.1,1.1-0.2,1.8-0.8c-1.4-0.2-2.6-0.4-3.9-0.5c-2.7-0.1-5.3-0.7-7.8-1.6c-1-0.3-1.9-1-2.7-1.7c-0.5-0.4-0.7-0.9-0.7-1.7
				c0.2-4.8,1.1-9.5,0.7-14.3c-0.3-4.6-0.8-9.2-2.4-13.6c-0.5-1.3-0.8-2.7-1.2-4c-0.2-0.6,0-0.7,0.5-0.9c2.3-0.9,4.7-1.5,7.2-2
				c4.6-1,9.3-1.3,14-2c3.5-0.6,7-1,10.6-1c1.8,0,3.7-0.3,5.5-0.2c2.5,0.2,5.1,0.2,7.6,0.6c1.5,0.2,1.6,0.4,1.7,1.8
				c0.1,3.6,0.5,7.2,0.6,10.9c0.2,4.5,0.9,8.9,2.3,13.2c0.4,1.3,0.9,2.6,0.9,4c0,0.7,0.2,0.8,1.3,1.4
				C259.7,35.2,258.7,37.6,251.6,40.9z M235.9,9.7c-3.9-0.3-8.2,0.6-12.5,1.6c-3.2,0.7-6.3,1.7-9.2,3.3c-0.5,0.2-1.2,0.4-1,1
				c0.2,0.6,0.9,0.2,1.4,0c2-0.7,3.9-1.4,5.9-2c3.9-1.2,7.9-1.9,12-2.1c3.6-0.2,7.3-0.3,11,0.2c0.7,0.1,1.5,0.1,2.2,0.2
				c0.6,0.2,1.5-0.2,1.5-0.7c0-0.7-0.6-0.8-1.1-0.9c-0.2-0.1-0.4-0.1-0.6-0.1C242.5,9.9,239.5,9.7,235.9,9.7z M239.5,29.9
				c0.1-0.3,0.1-0.4,0.2-0.5c0.7-1.4,0.1-3.4-1.3-4.1c-0.1-0.1-0.3-0.1-0.4-0.1c-0.5,0-1-0.1-1.2,0.5c-0.1,0.5,0.3,0.6,0.7,0.8
				c0.7,0.3,1.2,1,0.9,1.6c-0.7,1.2-1,2.3-0.1,3.5c-0.3,1.1,0.4,1.8,1,2.6c1,1.2,1,2.2,0.1,3.4c-0.3,0.5-0.7,0.9-1.1,1.4
				c-0.3,0.3-0.8,0.7-0.5,1.1c0.3,0.5,0.9,0.3,1.3,0.3c0.2,0,0.5-0.1,0.7-0.3c2.7-1.9,3.2-5.5,0.9-7.4c-0.5-0.4-0.4-0.7,0-1
				c0.1-0.1,0.2-0.2,0.4-0.3c0.3-0.3,0.5-0.6,0.4-1c-0.1-0.5-0.5-0.6-0.9-0.6C240.2,29.8,239.9,29.9,239.5,29.9z M230.7,26.1
				c-1,0-1.8,0.6-2.2,1.4c-0.5,0.9-0.5,2,0,2.9c0.3,0.6,1.2,1,1.1,1.6c0,0.8-1,0.7-1.5,1.2c-0.6,0.5-0.5,1,0.1,1.4
				c0.2,0.1,0.4,0.2,0.5,0.2c0.6,0,0.7,0.3,0.5,0.9c-0.4,1-0.7,2-0.6,3.1c0,1.8,1.3,2.5,2.7,2.5c0.5,0,0.9-0.1,1.1-0.6
				c0.2-0.6-0.3-0.7-0.7-1c-1.5-0.8-1.6-1-1-2.6c0.4-1.1,0.9-2.2,0.3-3.4c-0.1-0.2,0-0.4,0.1-0.6c0.6-1.2,0.3-2.2-0.7-3.1
				c-0.9-0.8-0.8-1.8,0.1-2.5c0.2-0.2,0.4-0.3,0.6-0.4c0.3-0.2,0.6-0.4,0.5-0.8C231.4,26.1,231,26.1,230.7,26.1z M253.7,19
				c-1.8-0.9-3.7-1-5.5-1.1c-2.7-0.2-5.4-0.3-8.2-0.3c-2.9,0-5.8-0.2-8.8,0.2c-2.4,0.3-4.8,0.5-7.3,0.7c-1.5,0.1-2.9,0.3-4.3,0.6
				c-0.2,0-0.6,0-0.5,0.5c3,0.2,6,0,8.9-0.4c2.8-0.3,5.6-0.7,8.4-0.7c2.1,0,4.3,0.3,6.4,0.3C246.4,18.8,249.9,19.2,253.7,19z
				 M241.3,58.5c0.6,0,1.2,0.1,1.7,0c3.2-0.5,6.3-1.5,9.5-2.2c2.2-0.5,4.3-1.6,6.3-2.6c2.6-1.3,5.2-2.7,7.2-4.9
				c0.5-0.6,1-1.2,1.3-1.9c0.1-0.2,0.2-0.5-0.1-0.7c-0.3-0.2-0.5,0-0.7,0.2c-0.2,0.3-0.5,0.6-0.7,0.9c-0.8,1.3-1.9,2.2-3.1,3
				c-1.1,0.7-2.3,1.3-3.4,2c-2.8,1.5-5.7,2.8-8.8,3.4c-1.9,0.4-3.7,1-5.6,1.4C243.6,57.4,242.5,58,241.3,58.5z M234,35.6
				C234,35.6,234,35.6,234,35.6c0,0.9,0,1.8,0,2.8c0,0.5,0.2,0.9,0.8,0.9c0.6,0,0.9-0.3,0.9-0.9c0-0.2,0-0.4,0-0.6
				c0-1.6-0.4-3.1-0.2-4.6c0-0.1,0-0.2,0-0.3c-0.1-0.4-0.4-0.7-0.8-0.7c-0.5,0-0.6,0.4-0.6,0.8C234,33.9,234,34.7,234,35.6z
				 M233.1,28.4c0,0.6,0.3,1.1,0.9,1.1c0.7,0,1.4-0.6,1.5-1.3c0-0.6-0.4-1.1-1-1.2C233.7,26.9,233.2,27.5,233.1,28.4z"/>
			<path class="st1" d="M227.3,83.5c0-0.4,0-0.8-0.5-0.9c-0.9-0.3-1.8-1-2.9-0.6c-0.3,0.1-0.7,0-0.8-0.4c-0.2-0.6-0.4-1.3-1-1.5
				c-0.7-0.2-1.5-0.2-2.3,0c-1.2,0.3-1.2,0.3-1.6-1c-0.5-1.8-1.1-2.2-2.8-1.6c-0.7,0.2-0.9-0.1-1.1-0.5c-0.6-1.6-0.9-3.3-1.3-4.9
				c-0.2-0.7-0.4-1.4-0.5-2.1c-0.1-0.5,0.1-0.8,0.6-0.7c0.3,0,0.7,0,1,0c0.6,0,0.9,0.1,1,0.7c0.4,1.8,1.5,3,3.1,3.9
				c1.5,0.8,3,1.5,4.6,1.7c0.7,0.1,1.4,0.1,2,0c1.1-0.2,2.3-0.5,3.4-0.7c1.7-0.4,3-1.4,3.8-3c0.2-0.5,0.5-1,0.7-1.4
				c0.2-0.3,0.4-0.5,0.8-0.6c2.7-0.4,5.3-0.5,8-0.1c0.4,0.1,0.6,0.2,0.9,0.5c0.4,0.4,0.7,0.8,1.1,1.2c1,1,2.3,1.5,3.7,1.5
				c2.2,0,4.5,0.1,6.6-0.6c2-0.6,3.8-1.5,4.8-3.5c0.2-0.5,0.4-0.8,1.1-0.8c0.5,0,0.9,0.1,0.8,0.7c-0.1,1.4,0.2,2.8-0.2,4.2
				c-0.1,0.5-0.1,1-0.1,1.5c0,0.7-0.1,1.3-0.5,1.9c-0.4,0.6-0.5,1.4-0.7,2.1c-0.2,0.6-0.3,1.2-0.6,1.8c-0.1,0.3-0.3,0.6-0.6,0.6
				c-1.6-0.3-2,0.7-2.4,1.9c0,0.1-0.1,0.1-0.2,0.2c-0.4-0.2-0.4-0.6-0.5-1c-0.6-1.1-1.4-1.3-2.2-0.3c-0.5,0.5-0.9,1.1-1.4,1.7
				c-0.2,0.2-0.4,0.4-0.6,0.6c-0.8-0.2-0.6-1.5-1.6-1.4c-0.7,0.1-1.3,0.6-2,1c-0.5-0.6-0.6-1.5-1.4-2c-0.7-0.4-1.3-0.7-2-0.2
				c-0.5,0.4-0.9,0.3-1.1-0.4c-0.2-0.5-0.4-1-0.5-1.6c-0.3-1.7-0.5-3.5-1.4-5c-0.4-0.7-0.3-1.5-0.4-2.3c-0.1-1.2-0.3-1.8-0.8-1.6
				c-0.8,0.3-0.6,1-0.5,1.6c0,0.8,0.1,1.7,0.3,2.5c0.3,1.4,0.3,2.8,0.2,4.2c-0.1,0.9-0.2,1.8,1.2,1.9c0.3,0,0.4,0.3,0.5,0.5
				c0.1,0.2,0.3,0.4,0.1,0.7c-0.2,0.2-0.4,0.3-0.6,0.2c-0.9-0.3-1.2,0.1-1.1,0.9c0.1,0.5-0.1,0.9-0.6,1c-0.6,0.1-1.1-0.2-1.1-0.8
				c0-0.8-0.4-1-1.1-0.9c-0.3,0.1-0.7,0-1-0.1c-0.4-0.1-0.8-0.3-0.7-0.8c0.1-0.4,0.1-1.1,0.7-1.1c1-0.1,1-0.7,1-1.4
				c0-2.3-0.5-4.5-0.6-6.8c0-0.1,0-0.3-0.1-0.4c-0.1-0.2-0.2-0.3-0.5-0.3c-0.3,0-0.3,0.2-0.3,0.4c-0.5,2.4-0.7,4.8-0.9,7.3
				c-0.1,1.6-0.6,3-2.4,3.6c-0.3,0.1-0.6,0.1-0.8,0.3C229.6,83.6,228.5,83.5,227.3,83.5L227.3,83.5z"/>
			<path class="st1" d="M246.4,96.1c0.4,1.2-0.3,2-1.6,2.5c-1.6,0.6-3.2,0.8-4.8,0.9c-1.9,0.1-3.9-0.1-5.8,0.2c-0.2,0-0.5,0-0.7,0
				c-1.3-0.2-1.7-0.6-1.7-2c0-1.8,0.2-3.6,0.6-5.4c0.2-0.8,0.6-1.3,1.4-1.7c3.3-1.6,6.7-1.5,10.1-0.4c1.5,0.5,1.8,1.8,2.3,3
				C246.5,94.2,246.4,95.1,246.4,96.1z M238.6,94c1.3,0.1,2.6-0.4,3.9-0.6c0.4-0.1,0.8-0.4,1-0.7c0.2-0.3,0.3-0.6,0-0.9
				c-0.3-0.3-0.6-0.3-0.9-0.1c-2,1.2-4.2,1.2-6.5,0.8c-0.4-0.1-0.9-0.1-1.3-0.1c-0.4,0-0.4,0.3-0.2,0.6c0.2,0.3,0.5,0.4,0.8,0.5
				C236.4,93.7,237.5,94,238.6,94z M242.6,96.1c-0.4-0.4-0.9-0.7-1.5-0.5c-1.4,0.3-2.9,0.2-4.4,0.2c-0.3,0-0.6,0-0.9,0
				c-0.1,0-0.2,0.1-0.3,0.3c-0.1,0.2,0,0.4,0.2,0.5c0.2,0.1,0.4,0.3,0.7,0.3C238.5,97,240.6,96.9,242.6,96.1z"/>
			<path class="st1" d="M206,66.9c0.5,0.4,0.8,0.7,1.2,0.9c1.4,0.6,2,1.7,2.1,3.3c0.2,1.7,0.4,3.4,0.7,5c0,0.2,0,0.4,0,0.6
				c0,0.3-0.1,0.5-0.4,0.6c-0.2,0.1-0.4,0-0.5-0.1c-2.2-2.9-4.1-5.8-3.3-9.7C205.9,67.3,205.9,67.2,206,66.9z"/>
			<path class="st2" d="M217.3,66.2c1.7,0.3,3.3,0.2,4.9,0.4c0.8,0.1,1.1,0.5,1,1.2c-0.1,0.8-0.1,1.5-0.1,2.3c0,0.6-0.3,0.6-0.8,0.6
				c-1,0-1.9-0.5-2.7-1.1C218.5,68.8,217.7,67.7,217.3,66.2z"/>
			<path class="st1" d="M263.6,73.8c0-2.1,0-4.2,0-6.2c0-0.4,0.1-0.7,0.4-0.9c0.9-0.5,1.7-1.2,2.5-2
				C267.4,66.7,266.2,70.8,263.6,73.8z"/>
			<path class="st2" d="M244.3,65.8c1.5-0.2,3-0.7,4.4-0.5c1.1,0.1,1.1,0.1,1.1,1.2c0,0.5,0,1,0,1.5c0,0.9-0.1,1.2-1.1,1.1
				c-0.4,0-0.9-0.1-1.3-0.3C246.2,68.2,245.2,67.1,244.3,65.8z"/>
			<path class="st2" d="M224.2,70.9c0.1-1.1,0.1-2.3,0.2-3.4c0-0.4,0.2-0.6,0.6-0.6c1.4,0.3,2.9,0,4.4,0.2c0.2,1-0.5,1.5-1,2
				C227.2,70.2,226,71.1,224.2,70.9z"/>
			<path class="st2" d="M250.9,68.8c0.2-0.9,0.1-1.8,0.1-2.7c0-0.5,0.2-0.8,0.8-0.8c1.3-0.1,2.7-0.2,4.1-0.3
				C255.5,67.2,253.5,68.7,250.9,68.8z"/>
			<path class="st2" d="M223.1,65.5c-0.1,0.2-0.3,0.3-0.4,0.3c-1.5-0.3-3.1-0.3-4.6-0.3c-0.1,0-0.2,0-0.3,0c-0.4,0-0.4-0.3-0.4-0.6
				c0-0.5,0.4-0.4,0.6-0.3C219.6,65.1,221.4,65,223.1,65.5z"/>
			<path class="st1" d="M224.3,65.7c0.5-0.2,0.8-0.3,1.2,0C225.2,66.1,224.8,66.1,224.3,65.7z"/>
			<path class="st1" d="M227.3,83.5c0,0-0.1,0.1-0.1,0.1C227.2,83.6,227.2,83.5,227.3,83.5C227.2,83.5,227.3,83.5,227.3,83.5
				L227.3,83.5z"/>
			<path class="st22" d="M235.9,9.7c3.6-0.1,6.5,0.1,9.5,0.5c0.2,0,0.4,0,0.6,0.1c0.5,0.2,1.1,0.2,1.1,0.9c0,0.4-0.8,0.8-1.5,0.7
				c-0.7-0.2-1.5-0.1-2.2-0.2c-3.6-0.5-7.3-0.4-11-0.2c-4.1,0.2-8.1,0.9-12,2.1c-2,0.6-3.9,1.4-5.9,2c-0.5,0.2-1.2,0.6-1.4,0
				c-0.2-0.6,0.6-0.7,1-1c2.9-1.5,6-2.5,9.2-3.3C227.7,10.4,232,9.4,235.9,9.7z"/>
			<path class="st22" d="M239.5,29.9c0.4,0,0.7,0,1,0c0.4,0,0.8,0.2,0.9,0.6c0.1,0.4,0,0.8-0.4,1c-0.1,0.1-0.2,0.2-0.4,0.3
				c-0.4,0.3-0.5,0.7,0,1c2.3,1.8,1.8,5.5-0.9,7.4c-0.2,0.1-0.4,0.2-0.7,0.3c-0.5,0-1.1,0.2-1.3-0.3c-0.3-0.5,0.2-0.8,0.5-1.1
				c0.4-0.5,0.7-0.9,1.1-1.4c0.9-1.2,0.9-2.3-0.1-3.4c-0.6-0.7-1.3-1.4-1-2.6c-0.9-1.2-0.5-2.3,0.1-3.5c0.3-0.6-0.2-1.3-0.9-1.6
				c-0.3-0.2-0.8-0.3-0.7-0.8c0.2-0.6,0.7-0.6,1.2-0.5c0.1,0,0.3,0,0.4,0.1c1.4,0.6,2,2.7,1.3,4.1C239.6,29.5,239.6,29.6,239.5,29.9
				z"/>
			<path class="st22" d="M230.7,26.1c0.3,0,0.7,0,0.9,0.4c0.1,0.4-0.2,0.6-0.5,0.8c-0.2,0.1-0.5,0.2-0.6,0.4c-0.9,0.8-1,1.7-0.1,2.5
				c1,0.9,1.3,1.9,0.7,3.1c-0.1,0.2-0.2,0.4-0.1,0.6c0.5,1.2,0.1,2.3-0.3,3.4c-0.6,1.6-0.5,1.8,1,2.6c0.4,0.2,0.8,0.4,0.7,1
				c-0.2,0.5-0.6,0.6-1.1,0.6c-1.5,0-2.7-0.8-2.7-2.5c0-1.1,0.2-2.1,0.6-3.1c0.2-0.5,0.2-0.8-0.5-0.9c-0.2,0-0.4-0.1-0.5-0.2
				c-0.6-0.4-0.7-0.9-0.1-1.4c0.5-0.4,1.5-0.4,1.5-1.2c0-0.7-0.8-1-1.1-1.6c-0.5-1-0.5-2,0-2.9C228.9,26.7,229.6,26.1,230.7,26.1z"
				/>
			<path class="st22" d="M253.7,19c-3.7,0.1-7.3-0.3-10.8-0.3c-2.1,0-4.3-0.3-6.4-0.3c-2.8,0.1-5.6,0.4-8.4,0.7
				c-2.9,0.4-5.9,0.5-8.9,0.4c-0.1-0.5,0.3-0.4,0.5-0.5c1.4-0.3,2.9-0.5,4.3-0.6c2.4-0.1,4.9-0.3,7.3-0.7c2.9-0.4,5.8-0.2,8.8-0.2
				c2.7,0,5.5,0.2,8.2,0.3C250,18,251.8,18.1,253.7,19z"/>
			<path class="st22" d="M241.3,58.5c1.2-0.5,2.3-1.1,3.5-1.4c1.9-0.4,3.7-1,5.6-1.4c3.1-0.7,6-1.9,8.8-3.4c1.2-0.6,2.3-1.3,3.4-2
				c1.2-0.8,2.4-1.7,3.1-3c0.2-0.3,0.5-0.6,0.7-0.9c0.2-0.3,0.4-0.5,0.7-0.2c0.2,0.2,0.2,0.4,0.1,0.7c-0.3,0.7-0.8,1.3-1.3,1.9
				c-2,2.3-4.5,3.6-7.2,4.9c-2,1-4.1,2-6.3,2.6c-3.2,0.8-6.3,1.7-9.5,2.2C242.5,58.6,241.9,58.5,241.3,58.5z"/>
			<path class="st22" d="M234,35.6c0-0.9,0-1.7,0-2.6c0-0.4,0.1-0.8,0.6-0.8c0.5,0,0.7,0.2,0.8,0.7c0,0.1,0,0.2,0,0.3
				c-0.1,1.6,0.3,3.1,0.2,4.6c0,0.2,0,0.4,0,0.6c0,0.6-0.4,0.9-0.9,0.9c-0.5,0-0.8-0.4-0.8-0.9C234,37.5,234,36.5,234,35.6
				C234,35.6,234,35.6,234,35.6z"/>
			<path class="st22" d="M233.1,28.4c0-0.9,0.5-1.5,1.3-1.4c0.6,0.1,1.1,0.6,1,1.2c0,0.7-0.8,1.4-1.5,1.3
				C233.5,29.5,233.1,29,233.1,28.4z"/>
			<path class="st22" d="M238.6,94c-1.1,0-2.1-0.2-3.1-0.5c-0.3-0.1-0.6-0.2-0.8-0.5c-0.2-0.3-0.2-0.6,0.2-0.6c0.4,0,0.9,0,1.3,0.1
				c2.2,0.4,4.4,0.5,6.5-0.8c0.3-0.2,0.7-0.2,0.9,0.1c0.3,0.3,0.2,0.6,0,0.9c-0.3,0.3-0.6,0.7-1,0.7C241.1,93.6,239.9,94,238.6,94z"
				/>
			<path class="st22" d="M242.6,96.1c-2,0.7-4.1,0.8-6.2,0.7c-0.2,0-0.5-0.2-0.7-0.3c-0.2-0.1-0.3-0.3-0.2-0.5
				c0.1-0.1,0.2-0.2,0.3-0.3c0.3,0,0.6,0,0.9,0c1.5,0,2.9,0.1,4.4-0.2C241.8,95.5,242.2,95.7,242.6,96.1z"/>
		</g>
	</g>
</g>
</svg>
