<?xml version="1.0" encoding="utf-8"?>
<!-- Generator: Adobe Illustrator 22.0.1, SVG Export Plug-In . SVG Version: 6.00 Build 0)  -->
<svg version="1.1" xmlns="http://www.w3.org/2000/svg" xmlns:xlink="http://www.w3.org/1999/xlink" x="0px" y="0px"
	 viewBox="0 0 168 341.6" style="enable-background:new 0 0 168 341.6;" xml:space="preserve">
<style type="text/css">
	.st0{display:none;fill:#4253D1;}
	.st1{fill:none;stroke:#000000;stroke-width:13.6048;stroke-miterlimit:10;}
	.st2{clip-path:url(#SVGID_2_);}
	.st3{fill:#00FF00;}
	.st4{clip-path:url(#SVGID_4_);}
	.st5{fill:none;stroke:#000000;stroke-width:12.9916;stroke-miterlimit:10;}
	.st6{clip-path:url(#SVGID_6_);}
	.st7{fill:none;stroke:#00FF00;stroke-width:13;stroke-miterlimit:10;}
	.st8{clip-path:url(#SVGID_8_);}
	.st9{clip-path:url(#SVGID_10_);}
	.st10{clip-path:url(#SVGID_12_);}
	.st11{fill:none;stroke:#000000;stroke-width:13;stroke-miterlimit:10;}
	.st12{clip-path:url(#SVGID_14_);}
	.st13{clip-path:url(#SVGID_16_);}
	.st14{clip-path:url(#SVGID_18_);}
	.st15{clip-path:url(#SVGID_20_);}
	.st16{clip-path:url(#SVGID_22_);}
	.st17{clip-path:url(#SVGID_25_);}
	.st18{clip-path:url(#SVGID_26_);}
	.st19{clip-path:url(#SVGID_30_);}
	.st20{clip-path:url(#SVGID_32_);}
	.st21{clip-path:url(#SVGID_34_);}
	.st22{clip-path:url(#SVGID_36_);}
	.st23{fill:none;stroke:#00FF00;stroke-width:12.9916;stroke-miterlimit:10;}
	.st24{clip-path:url(#SVGID_38_);}
	.st25{fill:none;}
</style>
<g id="Calque_1">
	<rect x="-75.3" y="512.1" class="st0" width="336.1" height="339"/>
	<g>
		<path d="M-3301.4,20.3c78.6-0.2,140.5,61,140.7,140c0.2,79.1-63.4,139.5-139.2,140.1c-77.6,0.6-141.3-62.8-140.8-139.7
			C-3441.3,84.3-3380.3,20.5-3301.4,20.3z M-3226.4,166.4c-3.2,0-4.7,1.1-5.1,4.4c-1.3,11.1-2.7,22.3-4.5,33.3
			c-0.8,5.2-2.5,10.2-3.9,15.3c-1.1,4.1-0.4,5.3,3.7,5.3c15.2,0.1,30.4,0.2,45.7-0.1c2,0,4.7-1.9,5.7-3.7
			c8.7-15.7,13.7-32.5,14.9-50.4c0.2-3.2-1.4-4.1-4.2-4.1c-8.8,0.1-17.6,0-26.3,0C-3209.2,166.5-3217.8,166.6-3226.4,166.4z
			 M-3175.6,154.5c5.5,0,5.6-0.4,5.4-5.8c-0.9-16.8-6.3-32.3-13.5-47.3c-1.9-4-4.4-5.6-8.8-5.5c-14.2,0.2-28.4,0.1-42.6,0.1
			c-5.3,0-6,0.9-4.5,6c4.5,15.3,7.2,31,8,46.9c0.2,4.3,2.1,5.8,6.3,5.6c8.3-0.3,16.7-0.1,25.1-0.1
			C-3192,154.5-3183.8,154.5-3175.6,154.5z M-3368.3,224.8c4.5-0.1,5.2-1.1,3.9-5.3c-4.8-15.7-7.9-31.7-8.4-48.1
			c-0.1-3.6-1.6-4.9-5.1-4.9c-16.4,0.1-32.8,0.1-49.2,0c-3.4,0-4.7,1.1-4.5,4.6c1,18,6.5,34.7,15.1,50.3c0.9,1.7,3.9,3.1,6,3.3
			c7,0.4,14,0.2,21.1,0.2C-3382.3,224.8-3375.3,224.9-3368.3,224.8z M-3378.2,154.6c3.6,0.1,5.4-1.1,5.4-5c0.4-16,3.5-31.6,8-46.9
			c1.6-5.5,0.9-6.6-4.7-6.6c-13.5,0-27,0-40.4,0c-3.1,0-5.4,0.8-6.8,3.7c-8,15.7-13.7,31.9-14.6,49.7c-0.2,3.8,1,5.3,4.9,5.2
			c8.1-0.2,16.1-0.1,24.2-0.1C-3394.4,154.5-3386.3,154.4-3378.2,154.6z M-3245.2,154.6c3.8,0.1,5.3-1.4,5-5.2
			c-1.1-16.4-4.2-32.3-9.1-48c-1.2-3.8-3.2-5.4-7.3-5.3c-11.8,0.2-23.7,0-35.6,0.1c-5,0-6,1-6.1,5.8c-0.1,15.8,0.1,31.6-0.1,47.4
			c0,4.1,1.7,5.4,5.6,5.3c7.9-0.2,15.8-0.1,23.7-0.1C-3261,154.5-3253.1,154.4-3245.2,154.6z M-3293,166.4c-3.8-0.1-5.2,1.5-5.2,5.2
			c0.1,15.8,0.1,31.6,0,47.5c0,4.1,1.7,5.8,5.8,5.8c12.2-0.1,24.3-0.1,36.5,0c3.5,0,5.4-1.4,6.4-4.7c5.1-15.9,8.3-32.2,9.3-48.9
			c0.2-3.3-1-4.9-4.5-4.9c-8.2,0.1-16.4,0-24.6,0C-3277.2,166.5-3285.1,166.6-3293,166.4z M-3306.8,100.9c0.1-3.6-1.4-4.9-4.9-4.9
			c-12.3,0.1-24.6,0.1-36.9,0c-3.3,0-5.4,1.1-6.1,4.4c-2.7,11.5-5.4,22.9-7.8,34.4c-1,5-1.2,10.1-1.7,15.2c-0.3,3.1,1.1,4.5,4.3,4.5
			c16.2-0.1,32.5-0.1,48.7,0c3.3,0,4.4-1.4,4.3-4.5c-0.1-8.3,0-16.7,0-25C-3306.8,117-3306.9,109-3306.8,100.9z M-3306.8,171
			c0.1-3.4-1.3-4.6-4.7-4.6c-15.9,0.1-31.9,0.1-47.8,0c-4,0-5.4,1.7-4.9,5.3c1.9,12.4,3.8,24.7,6,37c0.7,4,2.4,7.8,3.4,11.7
			c0.8,3,2.7,4.3,5.8,4.3c12.6,0,25.2,0,37.7,0c3.2,0,4.4-1.5,4.4-4.6c-0.1-8.3,0-16.7,0-25C-3306.8,187.1-3306.9,179.1-3306.8,171z
			 M-3275.4,290.2c31.4-6.9,57-23,76.8-48.3c0.9-1.2,1.3-2.8,1.9-4.2c-1.5-0.6-3.1-1.6-4.6-1.6c-13.2-0.1-26.4,0-39.6-0.1
			c-3.2,0-5.4,1-6.9,4.2c-7.8,16.4-18.1,31.1-29.5,45c-1,1.2-1.6,2.6-3.2,5.2C-3277.8,290.4-3276.6,290.5-3275.4,290.2z
			 M-3363.2,84.3c3.2,0.1,5.2-1,6.6-3.9c7.9-16.5,18.2-31.3,29.8-45.4c0.8-1,1.1-2.5,1.6-3.7c-1.3-0.2-2.8-0.7-4-0.4
			c-14.8,3.4-28.9,8.5-41.9,16.2c-13.6,8-24.4,19.1-32.8,32.3c-2.2,3.4-1.4,4.8,2.6,4.8c6.6,0.1,13.2,0,19.8,0
			C-3375.5,84.2-3369.3,84.1-3363.2,84.3z M-3274.5,38.6c11.3,13.3,22,26.9,30.2,42.5c0.8,1.5,3.3,3,5,3c12.9,0.3,25.8,0.2,38.7,0.1
			c1.3,0,2.6-0.9,3.9-1.3c-0.5-1.2-0.8-2.5-1.5-3.5c-17.4-22.1-38.3-39.4-66.2-46.7c-4.8-1.3-9.7-1.9-14.6-2.8
			c-0.3,0.7-0.6,1.3-0.9,2C-3278.1,34.1-3276.4,36.4-3274.5,38.6z M-3329.8,285.6c-10.7-13.8-19.5-28.8-26.7-44.7
			c-1.6-3.5-3.8-5-7.7-4.9c-11.8,0.2-23.7,0-35.6,0.1c-1.7,0-3.5,0.9-5.2,1.4c0.8,1.6,1.3,3.5,2.3,4.9
			c10.5,13.9,22.4,26.2,37.8,34.7c10.7,5.9,21.9,10.2,33.8,13c0.9,0.2,1.9,0,3.7,0C-3328.3,288.2-3328.9,286.7-3329.8,285.6z
			 M-3298.1,284.5c0,1.9,0.8,3.8,1.3,5.7c1.9-0.9,4-1.4,5.6-2.7c13.5-10.6,22.5-24.7,30.1-39.9c1-2.1,2.2-4.1,3.1-6.3
			c1.4-3.4,0.3-5.1-3.3-5.2c-10.7-0.1-21.4,0-32,0c-3.6,0-4.8,2-4.8,5.3c0.1,7.5,0,14.9,0,22.4c0,0,0,0,0,0
			C-3298.1,270.7-3298.2,277.6-3298.1,284.5z M-3298.2,78.7c-0.1,3.8,1.2,5.6,5.3,5.6c11.4-0.1,22.8,0,34.2-0.1c4.6,0,5.1-1,2.9-5.3
			c-9.4-18.2-22.9-33.1-37.7-46.9c-0.8-0.8-2.7-1.5-3.3-1.1c-0.8,0.5-1.3,2.2-1.3,3.4c-0.1,7.8-0.1,15.5-0.1,23.3
			C-3298.1,64.6-3298,71.7-3298.2,78.7z M-3306.8,286c0-14.8-0.1-29.6,0.1-44.3c0.1-4.2-1.5-5.7-5.6-5.6c-9.9,0.2-19.9,0-29.8,0.1
			c-5.2,0-5.7,0.8-3.8,5.5c7.4,17.9,17.2,34.2,32.9,46.2c1,0.8,2.1,1.6,3.2,2.2c0.5,0.3,1.1,0.3,2.5,0.6
			C-3307.1,288.8-3306.8,287.4-3306.8,286z M-3311.9,33c-13.5,13.5-23.3,29.5-31.5,46.6c-1.6,3.3-0.3,4.6,3.1,4.6
			c9.8,0,19.6,0,29.4,0c2.6,0,4.1-0.8,4.1-3.8c-0.1-15.7,0-31.3-0.1-47c0-0.9-0.5-1.9-1-3.5C-3309.5,31.2-3310.9,31.9-3311.9,33z"/>
	</g>
	<circle class="st1" cx="-3300.7" cy="160.4" r="158.5"/>
	<text transform="matrix(1 0 0 1 -3543.6555 385.0356)"><tspan x="0" y="0" style="font-family:'FalconPunch'; font-size:55px; letter-spacing:-5;">&lt; </tspan><tspan x="39.4" y="0" style="font-family:'FalconPunch'; font-size:55px;">web squad</tspan><tspan x="434.4" y="0" style="font-family:'FalconPunch'; font-size:55px; letter-spacing:-5;"> &gt;</tspan></text>
	<rect x="-2741.7" y="336.9" class="st25" width="638" height="112.5"/>
	<text transform="matrix(1 0 0 1 -2681.8254 383.2241)" style="font-family:'FalconPunch'; font-size:55px;">Visual league</text>
	<g>
		<g>
			<defs>
				<rect id="SVGID_1_" x="10.3" y="500.4" width="142.2" height="303.4"/>
			</defs>
			<clipPath id="SVGID_2_">
				<use xlink:href="#SVGID_1_"  style="overflow:visible;"/>
			</clipPath>
			<g class="st2">
				<path class="st3" d="M143.6,658.2C144.2,732.1,83,793,8.5,792.4c-72.8-0.6-133.9-58.6-133.7-134.5
					C-125,582-65.6,523.2,9.9,523.4C85.7,523.6,144.3,584.9,143.6,658.2z M-86.9,663.8c-8.4,0-16.9,0-25.3,0c-2.7,0-4.3,0.9-4.1,3.9
					c1.1,17.2,5.9,33.4,14.3,48.4c1,1.7,3.6,3.5,5.5,3.5c14.6,0.3,29.2,0.2,43.8,0.1c3.9,0,4.6-1.2,3.5-5.1
					c-1.3-4.9-2.9-9.7-3.7-14.7c-1.7-10.6-3.1-21.3-4.3-32c-0.4-3.2-1.8-4.3-4.9-4.3C-70.3,663.8-78.6,663.8-86.9,663.8z
					 M-87.3,652.3c8,0,16-0.2,24.1,0.1c4.1,0.1,5.9-1.2,6.1-5.4c0.8-15.3,3.4-30.3,7.7-45.1c1.4-4.9,0.9-5.7-4.3-5.8
					c-13.6,0-27.3,0.1-40.9-0.1c-4.3-0.1-6.7,1.4-8.5,5.3c-6.9,14.4-12.1,29.3-12.9,45.5c-0.3,5.1-0.1,5.5,5.1,5.5
					C-103,652.3-95.1,652.3-87.3,652.3z M94.4,719.8c6.7,0,13.5,0.2,20.2-0.1c2-0.1,4.8-1.5,5.7-3.1c8.3-15,13.6-31,14.5-48.3
					c0.2-3.4-1-4.5-4.3-4.4c-15.7,0.1-31.5,0.1-47.2,0c-3.4,0-4.8,1.2-4.9,4.7c-0.5,15.8-3.4,31.1-8.1,46.2
					c-1.3,4.1-0.6,5.1,3.7,5.1C80.9,719.8,87.6,719.8,94.4,719.8z M106.9,652.3c7.7,0,15.5-0.1,23.2,0.1c3.8,0.1,4.9-1.3,4.7-5
					c-0.9-17-6.4-32.7-14.1-47.7c-1.4-2.8-3.6-3.6-6.6-3.6c-12.9,0.1-25.9,0-38.8,0c-5.4,0-6.1,1-4.6,6.4c4.3,14.7,7.3,29.7,7.7,45
					c0.1,3.8,1.8,4.8,5.2,4.8C91.4,652.2,99.2,652.3,106.9,652.3z M-21.3,652.3c7.6,0,15.2-0.1,22.8,0c3.7,0.1,5.4-1.1,5.4-5.1
					c-0.1-15.2,0-30.3-0.1-45.5c0-4.7-1-5.6-5.8-5.6c-11.4,0-22.8,0.1-34.1-0.1c-3.9-0.1-5.9,1.5-7,5.1c-4.6,15-7.6,30.4-8.7,46.1
					c-0.2,3.7,1.2,5.1,4.8,5C-36.4,652.2-28.9,652.3-21.3,652.3z M-20.9,663.8c-7.9,0-15.8,0.1-23.6,0c-3.3,0-4.5,1.5-4.3,4.7
					c1,16,4.1,31.6,9,46.9c1,3.1,2.8,4.5,6.2,4.5c11.7-0.1,23.3-0.1,35,0c3.9,0,5.6-1.6,5.6-5.5c-0.1-15.2-0.1-30.4,0-45.6
					c0-3.6-1.3-5.1-5-5C-5.7,663.9-13.3,663.8-20.9,663.8z M15.1,624c0,8,0.1,16,0,24c0,3,1,4.3,4.2,4.3c15.6-0.1,31.2-0.1,46.8,0
					c3.1,0,4.4-1.4,4.2-4.4c-0.5-4.9-0.6-9.8-1.6-14.6c-2.3-11.1-4.9-22-7.5-33.1c-0.7-3.1-2.8-4.2-5.9-4.2
					c-11.8,0.1-23.6,0.1-35.4,0c-3.4,0-4.8,1.2-4.7,4.7C15.2,608.5,15.1,616.3,15.1,624z M15.1,691.3c0,8,0.1,16,0,24
					c0,3,1.1,4.4,4.2,4.4c12.1,0,24.2,0,36.2,0c2.9,0,4.7-1.2,5.5-4.1c1-3.8,2.6-7.4,3.3-11.3c2.1-11.8,4-23.7,5.8-35.5
					c0.5-3.4-0.9-5.1-4.7-5.1c-15.3,0.1-30.6,0.1-45.9,0c-3.2,0-4.6,1.1-4.5,4.4C15.2,675.9,15.1,683.6,15.1,691.3z M-10.1,782.9
					c-1.5-2.5-2.2-3.8-3.1-5c-11-13.4-20.9-27.5-28.4-43.2c-1.4-3.1-3.5-4.1-6.6-4.1c-12.7,0-25.3,0-38,0.1c-1.5,0-3,1-4.5,1.5
					c0.6,1.3,1,2.9,1.8,4c19.1,24.2,43.6,39.7,73.8,46.3C-13.9,782.8-12.7,782.7-10.1,782.9z M86.9,584.8c6.3,0,12.7,0.1,19,0
					c3.9-0.1,4.6-1.4,2.5-4.6c-8.1-12.8-18.4-23.3-31.5-31c-12.6-7.4-26.1-12.3-40.3-15.5c-1.2-0.3-2.6,0.2-3.9,0.4
					c0.5,1.2,0.8,2.6,1.6,3.6c11.1,13.5,21,27.8,28.6,43.6c1.3,2.8,3.2,3.9,6.3,3.8C75.1,584.6,81,584.8,86.9,584.8z M-10.7,534.5
					c-0.3-0.6-0.6-1.3-0.9-1.9c-4.7,0.9-9.4,1.5-14,2.7c-26.7,7-46.8,23.6-63.5,44.8c-0.7,0.9-1,2.2-1.5,3.3
					c1.3,0.4,2.5,1.3,3.8,1.3c12.4,0.1,24.7,0.2,37.1-0.1c1.7,0,4.1-1.4,4.8-2.9c7.8-14.9,18.1-28,29-40.8
					C-14.1,538.9-12.4,536.7-10.7,534.5z M34.8,782.6c1.8,0,2.7,0.2,3.6,0c11.4-2.7,22.2-6.8,32.5-12.5c14.8-8.2,26.3-20,36.3-33.4
					c1-1.4,1.5-3.1,2.2-4.7c-1.7-0.5-3.3-1.3-5-1.3c-11.4-0.1-22.8,0.1-34.1-0.1c-3.8-0.1-5.9,1.3-7.4,4.7
					c-6.9,15.3-15.3,29.6-25.6,42.9C36.3,779.2,35.8,780.6,34.8,782.6z M6.8,757.3C6.8,757.3,6.8,757.3,6.8,757.3
					c0-7.2-0.1-14.3,0-21.5c0-3.2-1.1-5.1-4.6-5.1c-10.3,0-20.5-0.1-30.8,0c-3.5,0-4.5,1.7-3.2,5c0.8,2.1,1.9,4,3,6
					c7.3,14.5,15.9,28.1,28.9,38.3c1.5,1.2,3.6,1.7,5.4,2.6c0.4-1.8,1.2-3.7,1.2-5.5C6.9,770.5,6.8,763.9,6.8,757.3z M6.8,559.2
					c0-7.4,0.1-14.9-0.1-22.3c0-1.1-0.5-2.8-1.3-3.2c-0.6-0.4-2.4,0.3-3.2,1c-14.2,13.3-27.2,27.6-36.2,45c-2.1,4.1-1.6,5,2.8,5
					c11,0.1,21.9-0.1,32.9,0.1c3.9,0,5.2-1.7,5.1-5.4C6.7,572.7,6.8,566,6.8,559.2z M15.6,783c1.3-0.3,1.9-0.3,2.4-0.6
					c1.1-0.6,2.1-1.4,3.1-2.1c15.1-11.5,24.5-27.1,31.6-44.3c1.9-4.5,1.4-5.3-3.6-5.3c-9.6-0.1-19.1,0.1-28.7-0.1
					c-4-0.1-5.5,1.4-5.4,5.4c0.2,14.2,0.1,28.4,0.1,42.6C15.2,779.9,15.4,781.2,15.6,783z M16.1,532.7c-0.5,1.6-0.9,2.5-0.9,3.4
					c0,15,0,30.1-0.1,45.1c0,2.8,1.5,3.6,4,3.6c9.4,0,18.8,0,28.2,0c3.2,0,4.5-1.3,3-4.5C42.4,563.9,33,548.6,20,535.6
					C19,534.6,17.7,533.8,16.1,532.7z"/>
			</g>
		</g>
		<g>
			<defs>
				<rect id="SVGID_3_" x="-167.6" y="489.9" width="167.1" height="339"/>
			</defs>
			<clipPath id="SVGID_4_">
				<use xlink:href="#SVGID_3_"  style="overflow:visible;"/>
			</clipPath>
			<g class="st4">
				<path d="M48.1,680.5c0,0,41-28.5,72.6-76.9c0,0-27-66.2-100.8-78.2C19.9,525.3,59.6,596,48.1,680.5z"/>
				<path d="M2.1,712.5c0,0,45,21.7,102.7,25.5c0,0,44.5-56,18.7-126.2C123.4,611.8,81.3,681,2.1,712.5z"/>
				<path class="st5" d="M4,507c31.5,1.4,62.9,12.7,89.2,34.3c64.6,53.1,73.9,148.4,20.9,213c-28.4,34.6-68.9,53.3-110.4,55.1"/>
			</g>
		</g>
		<g>
			<defs>
				
					<rect id="SVGID_5_" x="10.2" y="489.6" transform="matrix(-1 -4.563384e-11 4.563384e-11 -1 184.7951 1318.2537)" width="164.3" height="339"/>
			</defs>
			<clipPath id="SVGID_6_">
				<use xlink:href="#SVGID_5_"  style="overflow:visible;"/>
			</clipPath>
			<g class="st6">
				<ellipse class="st7" cx="10.6" cy="658.2" rx="150.7" ry="151.4"/>
			</g>
		</g>
	</g>
	<rect x="-1863.7" y="1344.9" class="st25" width="638" height="112.5"/>
	<text transform="matrix(1 0 0 1 -1766.3433 1391.223)" style="font-family:'FalconPunch'; font-size:55px;">361 DEGREES</text>
	<g>
		<g>
			<defs>
				<rect id="SVGID_7_" x="-1538.4" y="1019.4" width="142.2" height="303.4"/>
			</defs>
			<clipPath id="SVGID_8_">
				<use xlink:href="#SVGID_7_"  style="overflow:visible;"/>
			</clipPath>
			<g class="st8">
				<path d="M-1405,1177.2c0.6,73.9-60.7,134.8-135.2,134.2c-72.8-0.6-133.9-58.6-133.7-134.5c0.2-75.9,59.6-134.6,135.1-134.4
					C-1463,1042.5-1404.4,1103.8-1405,1177.2z M-1635.6,1182.7c-8.4,0-16.9,0-25.3,0c-2.7,0-4.3,0.9-4.1,3.9
					c1.1,17.2,5.9,33.4,14.3,48.4c1,1.7,3.6,3.5,5.5,3.5c14.6,0.3,29.2,0.2,43.8,0.1c3.9,0,4.6-1.2,3.5-5.1
					c-1.3-4.9-2.9-9.7-3.7-14.7c-1.7-10.6-3.1-21.3-4.3-32c-0.4-3.2-1.8-4.3-4.9-4.3C-1619,1182.8-1627.3,1182.7-1635.6,1182.7z
					 M-1635.9,1171.2c8,0,16-0.2,24.1,0.1c4.1,0.1,5.9-1.2,6.1-5.4c0.8-15.3,3.4-30.3,7.7-45.1c1.4-4.9,0.9-5.7-4.3-5.8
					c-13.6,0-27.3,0.1-40.9-0.1c-4.3-0.1-6.7,1.4-8.5,5.3c-6.9,14.4-12.1,29.3-12.9,45.5c-0.3,5.1-0.1,5.5,5.1,5.5
					C-1651.7,1171.2-1643.8,1171.2-1635.9,1171.2z M-1454.3,1238.7c6.7,0,13.5,0.2,20.2-0.1c2-0.1,4.8-1.5,5.7-3.1
					c8.3-15,13.6-31,14.5-48.3c0.2-3.4-1-4.5-4.3-4.4c-15.7,0.1-31.5,0.1-47.2,0c-3.4,0-4.8,1.2-4.9,4.7
					c-0.5,15.8-3.4,31.1-8.1,46.2c-1.3,4.1-0.6,5.1,3.7,5.1C-1467.8,1238.8-1461,1238.7-1454.3,1238.7z M-1441.7,1171.2
					c7.7,0,15.5-0.1,23.2,0.1c3.8,0.1,4.9-1.3,4.7-5c-0.9-17-6.4-32.7-14.1-47.7c-1.4-2.8-3.6-3.6-6.6-3.6c-12.9,0.1-25.9,0-38.8,0
					c-5.4,0-6.1,1-4.6,6.4c4.3,14.7,7.3,29.7,7.7,45c0.1,3.8,1.8,4.8,5.2,4.8C-1457.2,1171.1-1449.5,1171.2-1441.7,1171.2z
					 M-1569.9,1171.2c7.6,0,15.2-0.1,22.8,0c3.7,0.1,5.4-1.1,5.4-5.1c-0.1-15.2,0-30.3-0.1-45.5c0-4.7-1-5.6-5.8-5.6
					c-11.4,0-22.8,0.1-34.1-0.1c-3.9-0.1-5.9,1.5-7,5.1c-4.6,15-7.6,30.4-8.7,46.1c-0.2,3.7,1.2,5.1,4.8,5
					C-1585.1,1171.1-1577.5,1171.2-1569.9,1171.2z M-1569.6,1182.7c-7.9,0-15.8,0.1-23.6,0c-3.3,0-4.5,1.5-4.3,4.7
					c1,16,4.1,31.6,9,46.9c1,3.1,2.8,4.5,6.2,4.5c11.7-0.1,23.3-0.1,35,0c3.9,0,5.6-1.6,5.6-5.5c-0.1-15.2-0.1-30.4,0-45.6
					c0-3.6-1.3-5.1-5-5C-1554.4,1182.8-1562,1182.7-1569.6,1182.7z M-1533.5,1142.9c0,8,0.1,16,0,24c0,3,1,4.3,4.2,4.3
					c15.6-0.1,31.2-0.1,46.8,0c3.1,0,4.4-1.4,4.2-4.4c-0.5-4.9-0.6-9.8-1.6-14.6c-2.3-11.1-4.9-22-7.5-33.1
					c-0.7-3.1-2.8-4.2-5.9-4.2c-11.8,0.1-23.6,0.1-35.4,0c-3.4,0-4.8,1.2-4.7,4.7C-1533.4,1127.5-1533.5,1135.2-1533.5,1142.9z
					 M-1533.5,1210.3c0,8,0.1,16,0,24c0,3,1.1,4.4,4.2,4.4c12.1,0,24.2,0,36.2,0c2.9,0,4.7-1.2,5.5-4.1c1-3.8,2.6-7.4,3.3-11.3
					c2.1-11.8,4-23.7,5.8-35.5c0.5-3.4-0.9-5.1-4.7-5.1c-15.3,0.1-30.6,0.1-45.9,0c-3.2,0-4.6,1.1-4.5,4.4
					C-1533.4,1194.8-1533.5,1202.5-1533.5,1210.3z M-1558.8,1301.8c-1.5-2.5-2.2-3.8-3.1-5c-11-13.4-20.9-27.5-28.4-43.2
					c-1.4-3.1-3.5-4.1-6.6-4.1c-12.7,0-25.3,0-38,0.1c-1.5,0-3,1-4.5,1.5c0.6,1.3,1,2.9,1.8,4c19.1,24.2,43.6,39.7,73.8,46.3
					C-1562.6,1301.8-1561.4,1301.7-1558.8,1301.8z M-1461.7,1103.7c6.3,0,12.7,0.1,19,0c3.9-0.1,4.6-1.4,2.5-4.6
					c-8.1-12.8-18.4-23.3-31.5-31c-12.6-7.4-26.1-12.3-40.3-15.5c-1.2-0.3-2.6,0.2-3.9,0.4c0.5,1.2,0.8,2.6,1.6,3.6
					c11.1,13.5,21,27.8,28.6,43.6c1.3,2.8,3.2,3.9,6.3,3.8C-1473.5,1103.6-1467.6,1103.7-1461.7,1103.7z M-1559.4,1053.5
					c-0.3-0.6-0.6-1.3-0.9-1.9c-4.7,0.9-9.4,1.5-14,2.7c-26.7,7-46.8,23.6-63.5,44.8c-0.7,0.9-1,2.2-1.5,3.3
					c1.3,0.4,2.5,1.3,3.8,1.3c12.4,0.1,24.7,0.2,37.1-0.1c1.7,0,4.1-1.4,4.8-2.9c7.8-14.9,18.1-28,29-40.8
					C-1562.8,1057.8-1561.1,1055.6-1559.4,1053.5z M-1513.9,1301.5c1.8,0,2.7,0.2,3.6,0c11.4-2.7,22.2-6.8,32.5-12.5
					c14.8-8.2,26.3-20,36.3-33.4c1-1.4,1.5-3.1,2.2-4.7c-1.7-0.5-3.3-1.3-5-1.3c-11.4-0.1-22.8,0.1-34.1-0.1
					c-3.8-0.1-5.9,1.3-7.4,4.7c-6.9,15.3-15.3,29.6-25.6,42.9C-1512.4,1298.2-1512.9,1299.6-1513.9,1301.5z M-1541.9,1276.2
					C-1541.9,1276.2-1541.9,1276.2-1541.9,1276.2c0-7.2-0.1-14.3,0-21.5c0-3.2-1.1-5.1-4.6-5.1c-10.3,0-20.5-0.1-30.8,0
					c-3.5,0-4.5,1.7-3.2,5c0.8,2.1,1.9,4,3,6c7.3,14.5,15.9,28.1,28.9,38.3c1.5,1.2,3.6,1.7,5.4,2.6c0.4-1.8,1.2-3.7,1.2-5.5
					C-1541.8,1289.4-1541.9,1282.8-1541.9,1276.2z M-1541.9,1078.2c0-7.4,0.1-14.9-0.1-22.3c0-1.1-0.5-2.8-1.3-3.2
					c-0.6-0.4-2.4,0.3-3.2,1c-14.2,13.3-27.2,27.6-36.2,45c-2.1,4.1-1.6,5,2.8,5c11,0.1,21.9-0.1,32.9,0.1c3.9,0,5.2-1.7,5.1-5.4
					C-1542,1091.7-1541.9,1084.9-1541.9,1078.2z M-1533,1302c1.3-0.3,1.9-0.3,2.4-0.6c1.1-0.6,2.1-1.4,3.1-2.1
					c15.1-11.5,24.5-27.1,31.6-44.3c1.9-4.5,1.4-5.3-3.6-5.3c-9.6-0.1-19.1,0.1-28.7-0.1c-4-0.1-5.5,1.4-5.4,5.4
					c0.2,14.2,0.1,28.4,0.1,42.6C-1533.5,1298.8-1533.2,1300.2-1533,1302z M-1532.5,1051.6c-0.5,1.6-0.9,2.5-0.9,3.4
					c0,15,0,30.1-0.1,45.1c0,2.8,1.5,3.6,4,3.6c9.4,0,18.8,0,28.2,0c3.2,0,4.5-1.3,3-4.5c-7.9-16.4-17.3-31.8-30.3-44.7
					C-1529.6,1053.5-1530.9,1052.8-1532.5,1051.6z"/>
			</g>
		</g>
		<g>
			<defs>
				<rect id="SVGID_9_" x="-1716.2" y="1008.9" width="167.1" height="339"/>
			</defs>
			<clipPath id="SVGID_10_">
				<use xlink:href="#SVGID_9_"  style="overflow:visible;"/>
			</clipPath>
			<g class="st9">
				<path d="M-1596.9,1209.3c0,0,3.9,49.8,29.7,101.6c0,0,70.8,10.2,118.4-47.4C-1448.8,1263.4-1529.7,1261.9-1596.9,1209.3z"/>
				<path d="M-1602.7,1155.1c0,0-41.2,28.3-73.1,76.5c0,0,26.6,66.4,100.3,78.8C-1575.4,1310.4-1614.6,1239.6-1602.7,1155.1z"/>
				<path d="M-1557.2,1122.1c0,0-45.1-21.5-102.8-25c0,0-44.2,56.3-18,126.3C-1678,1223.4-1636.3,1153.9-1557.2,1122.1z"/>
				<path d="M-1506.7,1144.2c0,0-4.4-49.8-30.6-101.3c0,0-70.9-9.5-118,48.5C-1655.3,1091.5-1574.4,1092.2-1506.7,1144.2z"/>
				<path d="M-1500.6,1199.4c0,0,41-28.5,72.6-76.9c0,0-27-66.2-100.8-78.2C-1528.7,1044.3-1489.1,1114.9-1500.6,1199.4z"/>
				<path d="M-1546.6,1231.4c0,0,45,21.7,102.7,25.5c0,0,44.5-56,18.7-126.2C-1425.2,1130.7-1467.3,1199.9-1546.6,1231.4z"/>
				<circle class="st5" cx="-1551.5" cy="1177.1" r="151.4"/>
			</g>
		</g>
		<g>
			<defs>
				
					<rect id="SVGID_11_" x="-1538.4" y="1008.6" transform="matrix(-1 -4.563384e-11 4.563384e-11 -1 -2912.53 2356.156)" width="164.3" height="339"/>
			</defs>
			<clipPath id="SVGID_12_">
				<use xlink:href="#SVGID_11_"  style="overflow:visible;"/>
			</clipPath>
			<g class="st10">
				<ellipse class="st11" cx="-1538.1" cy="1177.1" rx="150.7" ry="151.4"/>
			</g>
		</g>
	</g>
	<rect x="-1863.7" y="336.9" class="st25" width="638" height="112.5"/>
	<text transform="matrix(1 0 0 1 -1766.3433 383.2231)" style="font-family:'FalconPunch'; font-size:55px;">361 DEGREES</text>
	<g>
		<g>
			<defs>
				<rect id="SVGID_13_" x="-1538.4" y="11.4" width="142.2" height="303.4"/>
			</defs>
			<clipPath id="SVGID_14_">
				<use xlink:href="#SVGID_13_"  style="overflow:visible;"/>
			</clipPath>
			<g class="st12">
				<path d="M-1405,169.2c0.6,73.9-60.7,134.8-135.2,134.2c-72.8-0.6-133.9-58.6-133.7-134.5c0.2-75.9,59.6-134.6,135.1-134.4
					C-1463,34.5-1404.4,95.8-1405,169.2z M-1635.6,174.7c-8.4,0-16.9,0-25.3,0c-2.7,0-4.3,0.9-4.1,3.9c1.1,17.2,5.9,33.4,14.3,48.4
					c1,1.7,3.6,3.5,5.5,3.5c14.6,0.3,29.2,0.2,43.8,0.1c3.9,0,4.6-1.2,3.5-5.1c-1.3-4.9-2.9-9.7-3.7-14.7c-1.7-10.6-3.1-21.3-4.3-32
					c-0.4-3.2-1.8-4.3-4.9-4.3C-1619,174.8-1627.3,174.7-1635.6,174.7z M-1635.9,163.2c8,0,16-0.2,24.1,0.1c4.1,0.1,5.9-1.2,6.1-5.4
					c0.8-15.3,3.4-30.3,7.7-45.1c1.4-4.9,0.9-5.7-4.3-5.8c-13.6,0-27.3,0.1-40.9-0.1c-4.3-0.1-6.7,1.4-8.5,5.3
					c-6.9,14.4-12.1,29.3-12.9,45.5c-0.3,5.1-0.1,5.5,5.1,5.5C-1651.7,163.2-1643.8,163.2-1635.9,163.2z M-1454.3,230.7
					c6.7,0,13.5,0.2,20.2-0.1c2-0.1,4.8-1.5,5.7-3.1c8.3-15,13.6-31,14.5-48.3c0.2-3.4-1-4.5-4.3-4.4c-15.7,0.1-31.5,0.1-47.2,0
					c-3.4,0-4.8,1.2-4.9,4.7c-0.5,15.8-3.4,31.1-8.1,46.2c-1.3,4.1-0.6,5.1,3.7,5.1C-1467.8,230.8-1461,230.7-1454.3,230.7z
					 M-1441.7,163.2c7.7,0,15.5-0.1,23.2,0.1c3.8,0.1,4.9-1.3,4.7-5c-0.9-17-6.4-32.7-14.1-47.7c-1.4-2.8-3.6-3.6-6.6-3.6
					c-12.9,0.1-25.9,0-38.8,0c-5.4,0-6.1,1-4.6,6.4c4.3,14.7,7.3,29.7,7.7,45c0.1,3.8,1.8,4.8,5.2,4.8
					C-1457.2,163.1-1449.5,163.2-1441.7,163.2z M-1569.9,163.2c7.6,0,15.2-0.1,22.8,0c3.7,0.1,5.4-1.1,5.4-5.1
					c-0.1-15.2,0-30.3-0.1-45.5c0-4.7-1-5.6-5.8-5.6c-11.4,0-22.8,0.1-34.1-0.1c-3.9-0.1-5.9,1.5-7,5.1c-4.6,15-7.6,30.4-8.7,46.1
					c-0.2,3.7,1.2,5.1,4.8,5C-1585.1,163.1-1577.5,163.2-1569.9,163.2z M-1569.6,174.7c-7.9,0-15.8,0.1-23.6,0
					c-3.3,0-4.5,1.5-4.3,4.7c1,16,4.1,31.6,9,46.9c1,3.1,2.8,4.5,6.2,4.5c11.7-0.1,23.3-0.1,35,0c3.9,0,5.6-1.6,5.6-5.5
					c-0.1-15.2-0.1-30.4,0-45.6c0-3.6-1.3-5.1-5-5C-1554.4,174.8-1562,174.7-1569.6,174.7z M-1533.5,134.9c0,8,0.1,16,0,24
					c0,3,1,4.3,4.2,4.3c15.6-0.1,31.2-0.1,46.8,0c3.1,0,4.4-1.4,4.2-4.4c-0.5-4.9-0.6-9.8-1.6-14.6c-2.3-11.1-4.9-22-7.5-33.1
					c-0.7-3.1-2.8-4.2-5.9-4.2c-11.8,0.1-23.6,0.1-35.4,0c-3.4,0-4.8,1.2-4.7,4.7C-1533.4,119.5-1533.5,127.2-1533.5,134.9z
					 M-1533.5,202.3c0,8,0.1,16,0,24c0,3,1.1,4.4,4.2,4.4c12.1,0,24.2,0,36.2,0c2.9,0,4.7-1.2,5.5-4.1c1-3.8,2.6-7.4,3.3-11.3
					c2.1-11.8,4-23.7,5.8-35.5c0.5-3.4-0.9-5.1-4.7-5.1c-15.3,0.1-30.6,0.1-45.9,0c-3.2,0-4.6,1.1-4.5,4.4
					C-1533.4,186.8-1533.5,194.5-1533.5,202.3z M-1558.8,293.8c-1.5-2.5-2.2-3.8-3.1-5c-11-13.4-20.9-27.5-28.4-43.2
					c-1.4-3.1-3.5-4.1-6.6-4.1c-12.7,0-25.3,0-38,0.1c-1.5,0-3,1-4.5,1.5c0.6,1.3,1,2.9,1.8,4c19.1,24.2,43.6,39.7,73.8,46.3
					C-1562.6,293.8-1561.4,293.7-1558.8,293.8z M-1461.7,95.7c6.3,0,12.7,0.1,19,0c3.9-0.1,4.6-1.4,2.5-4.6
					c-8.1-12.8-18.4-23.3-31.5-31c-12.6-7.4-26.1-12.3-40.3-15.5c-1.2-0.3-2.6,0.2-3.9,0.4c0.5,1.2,0.8,2.6,1.6,3.6
					c11.1,13.5,21,27.8,28.6,43.6c1.3,2.8,3.2,3.9,6.3,3.8C-1473.5,95.6-1467.6,95.7-1461.7,95.7z M-1559.4,45.5
					c-0.3-0.6-0.6-1.3-0.9-1.9c-4.7,0.9-9.4,1.5-14,2.7c-26.7,7-46.8,23.6-63.5,44.8c-0.7,0.9-1,2.2-1.5,3.3
					c1.3,0.4,2.5,1.3,3.8,1.3c12.4,0.1,24.7,0.2,37.1-0.1c1.7,0,4.1-1.4,4.8-2.9c7.8-14.9,18.1-28,29-40.8
					C-1562.8,49.8-1561.1,47.6-1559.4,45.5z M-1513.9,293.5c1.8,0,2.7,0.2,3.6,0c11.4-2.7,22.2-6.8,32.5-12.5
					c14.8-8.2,26.3-20,36.3-33.4c1-1.4,1.5-3.1,2.2-4.7c-1.7-0.5-3.3-1.3-5-1.3c-11.4-0.1-22.8,0.1-34.1-0.1
					c-3.8-0.1-5.9,1.3-7.4,4.7c-6.9,15.3-15.3,29.6-25.6,42.9C-1512.4,290.2-1512.9,291.6-1513.9,293.5z M-1541.9,268.2
					C-1541.9,268.2-1541.9,268.2-1541.9,268.2c0-7.2-0.1-14.3,0-21.5c0-3.2-1.1-5.1-4.6-5.1c-10.3,0-20.5-0.1-30.8,0
					c-3.5,0-4.5,1.7-3.2,5c0.8,2.1,1.9,4,3,6c7.3,14.5,15.9,28.1,28.9,38.3c1.5,1.2,3.6,1.7,5.4,2.6c0.4-1.8,1.2-3.7,1.2-5.5
					C-1541.8,281.4-1541.9,274.8-1541.9,268.2z M-1541.9,70.2c0-7.4,0.1-14.9-0.1-22.3c0-1.1-0.5-2.8-1.3-3.2
					c-0.6-0.4-2.4,0.3-3.2,1c-14.2,13.3-27.2,27.6-36.2,45c-2.1,4.1-1.6,5,2.8,5c11,0.1,21.9-0.1,32.9,0.1c3.9,0,5.2-1.7,5.1-5.4
					C-1542,83.7-1541.9,76.9-1541.9,70.2z M-1533,294c1.3-0.3,1.9-0.3,2.4-0.6c1.1-0.6,2.1-1.4,3.1-2.1
					c15.1-11.5,24.5-27.1,31.6-44.3c1.9-4.5,1.4-5.3-3.6-5.3c-9.6-0.1-19.1,0.1-28.7-0.1c-4-0.1-5.5,1.4-5.4,5.4
					c0.2,14.2,0.1,28.4,0.1,42.6C-1533.5,290.8-1533.2,292.2-1533,294z M-1532.5,43.6c-0.5,1.6-0.9,2.5-0.9,3.4
					c0,15,0,30.1-0.1,45.1c0,2.8,1.5,3.6,4,3.6c9.4,0,18.8,0,28.2,0c3.2,0,4.5-1.3,3-4.5c-7.9-16.4-17.3-31.8-30.3-44.7
					C-1529.6,45.5-1530.9,44.8-1532.5,43.6z"/>
			</g>
		</g>
		<g>
			<defs>
				<rect id="SVGID_15_" x="-1716.2" y="0.9" width="167.1" height="339"/>
			</defs>
			<clipPath id="SVGID_16_">
				<use xlink:href="#SVGID_15_"  style="overflow:visible;"/>
			</clipPath>
			<g class="st13">
				<path d="M-1596.9,201.3c0,0,3.9,49.8,29.7,101.6c0,0,70.8,10.2,118.4-47.4C-1448.8,255.4-1529.7,253.9-1596.9,201.3z"/>
				<path d="M-1602.7,147.1c0,0-41.2,28.3-73.1,76.5c0,0,26.6,66.4,100.3,78.8C-1575.4,302.4-1614.6,231.6-1602.7,147.1z"/>
				<path d="M-1557.2,114.1c0,0-45.1-21.5-102.8-25c0,0-44.2,56.3-18,126.3C-1678,215.4-1636.3,145.9-1557.2,114.1z"/>
				<path d="M-1506.7,136.2c0,0-4.4-49.8-30.6-101.3c0,0-70.9-9.5-118,48.5C-1655.3,83.5-1574.4,84.2-1506.7,136.2z"/>
				<path d="M-1500.6,191.4c0,0,41-28.5,72.6-76.9c0,0-27-66.2-100.8-78.2C-1528.7,36.3-1489.1,106.9-1500.6,191.4z"/>
				<path d="M-1546.6,223.4c0,0,45,21.7,102.7,25.5c0,0,44.5-56,18.7-126.2C-1425.2,122.7-1467.3,191.9-1546.6,223.4z"/>
				<circle class="st5" cx="-1551.5" cy="169.1" r="151.4"/>
			</g>
		</g>
		<g>
			<defs>
				
					<rect id="SVGID_17_" x="-1538.4" y="0.6" transform="matrix(-1 -4.563384e-11 4.563384e-11 -1 -2912.53 340.1559)" width="164.3" height="339"/>
			</defs>
			<clipPath id="SVGID_18_">
				<use xlink:href="#SVGID_17_"  style="overflow:visible;"/>
			</clipPath>
			<g class="st14">
				<ellipse class="st11" cx="-1538.1" cy="169.1" rx="150.7" ry="151.4"/>
			</g>
		</g>
	</g>
	<g>
		<g>
			<defs>
				<rect id="SVGID_19_" x="10.3" y="500.4" width="142.2" height="303.4"/>
			</defs>
			<clipPath id="SVGID_20_">
				<use xlink:href="#SVGID_19_"  style="overflow:visible;"/>
			</clipPath>
			<g class="st15">
				<path d="M-86.9,663.8c-8.4,0-16.9,0-25.3,0c-2.7,0-4.3,0.9-4.1,3.9c1.1,17.2,5.9,33.4,14.3,48.4c1,1.7,3.6,3.5,5.5,3.5
					c14.6,0.3,29.2,0.2,43.8,0.1c3.9,0,4.6-1.2,3.5-5.1c-1.3-4.9-2.9-9.7-3.7-14.7c-1.7-10.6-3.1-21.3-4.3-32
					c-0.4-3.2-1.8-4.3-4.9-4.3C-70.3,663.8-78.6,663.8-86.9,663.8z M-87.3,652.3c8,0,16-0.2,24.1,0.1c4.1,0.1,5.9-1.2,6.1-5.4
					c0.8-15.3,3.4-30.3,7.7-45.1c1.4-4.9,0.9-5.7-4.3-5.8c-13.6,0-27.3,0.1-40.9-0.1c-4.3-0.1-6.7,1.4-8.5,5.3
					c-6.9,14.4-12.1,29.3-12.9,45.5c-0.3,5.1-0.1,5.5,5.1,5.5C-103,652.3-95.1,652.3-87.3,652.3z M-21.3,652.3
					c7.6,0,15.2-0.1,22.8,0c3.7,0.1,5.4-1.1,5.4-5.1c-0.1-15.2,0-30.3-0.1-45.5c0-4.7-1-5.6-5.8-5.6c-11.4,0-22.8,0.1-34.1-0.1
					c-3.9-0.1-5.9,1.5-7,5.1c-4.6,15-7.6,30.4-8.7,46.1c-0.2,3.7,1.2,5.1,4.8,5C-36.4,652.2-28.9,652.3-21.3,652.3z M-20.9,663.8
					c-7.9,0-15.8,0.1-23.6,0c-3.3,0-4.5,1.5-4.3,4.7c1,16,4.1,31.6,9,46.9c1,3.1,2.8,4.5,6.2,4.5c11.7-0.1,23.3-0.1,35,0
					c3.9,0,5.6-1.6,5.6-5.5c-0.1-15.2-0.1-30.4,0-45.6c0-3.6-1.3-5.1-5-5C-5.7,663.9-13.3,663.8-20.9,663.8z M-10.1,782.9
					c-1.5-2.5-2.2-3.8-3.1-5c-11-13.4-20.9-27.5-28.4-43.2c-1.4-3.1-3.5-4.1-6.6-4.1c-12.7,0-25.3,0-38,0.1c-1.5,0-3,1-4.5,1.5
					c0.6,1.3,1,2.9,1.8,4c19.1,24.2,43.6,39.7,73.8,46.3C-13.9,782.8-12.7,782.7-10.1,782.9z M-10.7,534.5c-0.3-0.6-0.6-1.3-0.9-1.9
					c-4.7,0.9-9.4,1.5-14,2.7c-26.7,7-46.8,23.6-63.5,44.8c-0.7,0.9-1,2.2-1.5,3.3c1.3,0.4,2.5,1.3,3.8,1.3
					c12.4,0.1,24.7,0.2,37.1-0.1c1.7,0,4.1-1.4,4.8-2.9c7.8-14.9,18.1-28,29-40.8C-14.1,538.9-12.4,536.7-10.7,534.5z M6.8,757.3
					C6.8,757.3,6.8,757.3,6.8,757.3c0-7.2-0.1-14.3,0-21.5c0-3.2-1.1-5.1-4.6-5.1c-10.3,0-20.5-0.1-30.8,0c-3.5,0-4.5,1.7-3.2,5
					c0.8,2.1,1.9,4,3,6c7.3,14.5,15.9,28.1,28.9,38.3c1.5,1.2,3.6,1.7,5.4,2.6c0.4-1.8,1.2-3.7,1.2-5.5
					C6.9,770.5,6.8,763.9,6.8,757.3z M6.8,559.2c0-7.4,0.1-14.9-0.1-22.3c0-1.1-0.5-2.8-1.3-3.2c-0.6-0.4-2.4,0.3-3.2,1
					c-14.2,13.3-27.2,27.6-36.2,45c-2.1,4.1-1.6,5,2.8,5c11,0.1,21.9-0.1,32.9,0.1c3.9,0,5.2-1.7,5.1-5.4
					C6.7,572.7,6.8,566,6.8,559.2z"/>
			</g>
		</g>
		<g>
			<defs>
				<rect id="SVGID_21_" x="-167.6" y="489.9" width="167.1" height="339"/>
			</defs>
			<clipPath id="SVGID_22_">
				<use xlink:href="#SVGID_21_"  style="overflow:visible;"/>
			</clipPath>
			<g class="st16">
				<path d="M48.1,680.5c0,0,41-28.5,72.6-76.9c0,0-27-66.2-100.8-78.2C19.9,525.3,59.6,596,48.1,680.5z"/>
				<path d="M2.1,712.5c0,0,45,21.7,102.7,25.5c0,0,44.5-56,18.7-126.2C123.4,611.8,81.3,681,2.1,712.5z"/>
			</g>
		</g>
		<g>
			<defs>
				<line id="SVGID_23_" x1="10.2" y1="489.6" x2="10.2" y2="500.4"/>
			</defs>
			<defs>
				<polyline id="SVGID_24_" points="10.2,500.4 10.2,828.6 174.6,828.6 174.6,489.6 				"/>
			</defs>
			<clipPath id="SVGID_25_">
				<use xlink:href="#SVGID_23_"  style="overflow:visible;"/>
			</clipPath>
			<clipPath id="SVGID_26_" class="st17">
				<use xlink:href="#SVGID_24_"  style="overflow:visible;"/>
			</clipPath>
			<g class="st18">
				<path class="st11" d="M5.2,809.4c35.4,1.3,71.5-9.9,101-34.3c64.3-53.1,73.6-148.4,20.8-213c-31.1-38-76.7-56.9-122.1-55.2"/>
				<path class="st11" d="M4.9,506.9c-31.8,1.2-63.5,12.5-89.9,34.3c-64.3,53.1-73.6,148.4-20.8,213c28.5,34.9,69.4,53.7,111,55.2"
					/>
			</g>
		</g>
	</g>
	<g>
		<g>
			<defs>
				<rect id="SVGID_27_" x="171.7" y="11.4" width="142.2" height="303.4"/>
			</defs>
			<clipPath id="SVGID_28_">
				<use xlink:href="#SVGID_27_"  style="overflow:visible;"/>
			</clipPath>
		</g>
		<g>
			<defs>
				<rect id="SVGID_29_" x="-6.2" y="0.9" width="167.1" height="339"/>
			</defs>
			<clipPath id="SVGID_30_">
				<use xlink:href="#SVGID_29_"  style="overflow:visible;"/>
			</clipPath>
			<g class="st19">
				<path d="M209.5,191.4c0,0,41-28.5,72.6-76.9c0,0-27-66.2-100.8-78.2C181.3,36.3,221,106.9,209.5,191.4z"/>
				<path d="M163.5,223.4c0,0,45,21.7,102.7,25.5c0,0,44.5-56,18.7-126.2C284.8,122.7,242.7,191.9,163.5,223.4z"/>
				<path class="st5" d="M165.4,17.9c31.5,1.4,62.9,12.7,89.2,34.3c64.6,53.1,73.9,148.4,20.9,213c-28.4,34.6-68.9,53.3-110.4,55.1"
					/>
			</g>
		</g>
		<g>
			<defs>
				
					<rect id="SVGID_31_" x="171.6" y="0.6" transform="matrix(-1 -4.563384e-11 4.563384e-11 -1 507.6028 340.1559)" width="164.3" height="339"/>
			</defs>
			<clipPath id="SVGID_32_">
				<use xlink:href="#SVGID_31_"  style="overflow:visible;"/>
			</clipPath>
			<g class="st20">
				<path class="st7" d="M165.4,17.9c-31.5,1.4-62.9,12.6-89.1,34.3C12,105.2,2.7,200.6,55.6,265.2c28.8,35.2,70.1,54,112.2,55.2"/>
			</g>
		</g>
	</g>
	<g>
		<g>
			<defs>
				<polyline id="SVGID_33_" points="171.7,11.4 313.9,11.4 313.9,314.7 171.7,314.7 				"/>
			</defs>
			<clipPath id="SVGID_34_">
				<use xlink:href="#SVGID_33_"  style="overflow:visible;"/>
			</clipPath>
			<g class="st21">
				<path d="M74.5,174.7c-8.4,0-16.9,0-25.3,0c-2.7,0-4.3,0.9-4.1,3.9C46.3,195.8,51,212,59.4,227c1,1.7,3.6,3.5,5.5,3.5
					c14.6,0.3,29.2,0.2,43.8,0.1c3.9,0,4.6-1.2,3.5-5.1c-1.3-4.9-2.9-9.7-3.7-14.7c-1.7-10.6-3.1-21.3-4.3-32
					c-0.4-3.2-1.8-4.3-4.9-4.3C91.1,174.8,82.8,174.7,74.5,174.7z M74.2,163.2c8,0,16-0.2,24.1,0.1c4.1,0.1,5.9-1.2,6.1-5.4
					c0.8-15.3,3.4-30.3,7.7-45.1c1.4-4.9,0.9-5.7-4.3-5.8c-13.6,0-27.3,0.1-40.9-0.1c-4.3-0.1-6.7,1.4-8.5,5.3
					c-6.9,14.4-12.1,29.3-12.9,45.5c-0.3,5.1-0.1,5.5,5.1,5.5C58.4,163.2,66.3,163.2,74.2,163.2z M140.1,163.2
					c7.6,0,15.2-0.1,22.8,0c3.7,0.1,5.4-1.1,5.4-5.1c-0.1-15.2,0-30.3-0.1-45.5c0-4.7-1-5.6-5.8-5.6c-11.4,0-22.8,0.1-34.1-0.1
					c-3.9-0.1-5.9,1.5-7,5.1c-4.6,15-7.6,30.4-8.7,46.1c-0.2,3.7,1.2,5.1,4.8,5C125,163.1,132.5,163.2,140.1,163.2z M140.5,174.7
					c-7.9,0-15.8,0.1-23.6,0c-3.3,0-4.5,1.5-4.3,4.7c1,16,4.1,31.6,9,46.9c1,3.1,2.8,4.5,6.2,4.5c11.7-0.1,23.3-0.1,35,0
					c3.9,0,5.6-1.6,5.6-5.5c-0.1-15.2-0.1-30.4,0-45.6c0-3.6-1.3-5.1-5-5C155.7,174.8,148.1,174.7,140.5,174.7z M151.3,293.8
					c-1.5-2.5-2.2-3.8-3.1-5c-11-13.4-20.9-27.5-28.4-43.2c-1.4-3.1-3.5-4.1-6.6-4.1c-12.7,0-25.3,0-38,0.1c-1.5,0-3,1-4.5,1.5
					c0.6,1.3,1,2.9,1.8,4c19.1,24.2,43.6,39.7,73.8,46.3C147.5,293.8,148.7,293.7,151.3,293.8z M150.7,45.5
					c-0.3-0.6-0.6-1.3-0.9-1.9c-4.7,0.9-9.4,1.5-14,2.7c-26.7,7-46.8,23.6-63.5,44.8c-0.7,0.9-1,2.2-1.5,3.3
					c1.3,0.4,2.5,1.3,3.8,1.3c12.4,0.1,24.7,0.2,37.1-0.1c1.7,0,4.1-1.4,4.8-2.9c7.8-14.9,18.1-28,29-40.8
					C147.3,49.8,149,47.6,150.7,45.5z M168.2,268.2C168.2,268.2,168.2,268.2,168.2,268.2c0-7.2-0.1-14.3,0-21.5
					c0-3.2-1.1-5.1-4.6-5.1c-10.3,0-20.5-0.1-30.8,0c-3.5,0-4.5,1.7-3.2,5c0.8,2.1,1.9,4,3,6c7.3,14.5,15.9,28.1,28.9,38.3
					c1.5,1.2,3.6,1.7,5.4,2.6c0.4-1.8,1.2-3.7,1.2-5.5C168.3,281.4,168.2,274.8,168.2,268.2z M168.2,70.2c0-7.4,0.1-14.9-0.1-22.3
					c0-1.1-0.5-2.8-1.3-3.2c-0.6-0.4-2.4,0.3-3.2,1c-14.2,13.3-27.2,27.6-36.2,45c-2.1,4.1-1.6,5,2.8,5c11,0.1,21.9-0.1,32.9,0.1
					c3.9,0,5.2-1.7,5.1-5.4C168.1,83.7,168.2,76.9,168.2,70.2z"/>
			</g>
		</g>
		<g>
			<defs>
				<rect id="SVGID_35_" x="-6.2" y="0.9" width="167.1" height="339"/>
			</defs>
			<clipPath id="SVGID_36_">
				<use xlink:href="#SVGID_35_"  style="overflow:visible;"/>
			</clipPath>
			<g class="st22">
				<path class="st3" d="M113.2,201.3c0,0,3.9,49.8,29.7,101.6c0,0,70.8,10.2,118.4-47.4C261.3,255.4,180.3,253.9,113.2,201.3z"/>
				<path class="st3" d="M107.4,147.1c0,0-41.2,28.3-73.1,76.5c0,0,26.6,66.4,100.3,78.8C134.7,302.4,95.5,231.6,107.4,147.1z"/>
				<path class="st3" d="M152.9,114.1c0,0-45.1-21.5-102.8-25c0,0-44.2,56.3-18,126.3C32.1,215.4,73.8,145.9,152.9,114.1z"/>
				<path class="st3" d="M203.3,136.2c0,0-4.4-49.8-30.6-101.3c0,0-70.9-9.5-118,48.5C54.7,83.5,135.7,84.2,203.3,136.2z"/>
				<path d="M209.5,191.4c0,0,41-28.5,72.6-76.9c0,0-27-66.2-100.8-78.2C181.3,36.3,221,106.9,209.5,191.4z"/>
				<path d="M163.5,223.4c0,0,45,21.7,102.7,25.5c0,0,44.5-56,18.7-126.2C284.8,122.7,242.7,191.9,163.5,223.4z"/>
				<path class="st23" d="M165.6,320.3c-36.1,1.7-73-9.5-103.1-34.2C-2.1,233-11.4,137.6,41.6,73c31.5-38.3,77.8-57.2,123.8-55.1"/>
				<path class="st23" d="M165.4,17.9c31.6,1.4,62.9,12.7,89.2,34.3c64.6,53.1,73.9,148.4,20.9,213c-28.3,34.5-68.6,53.2-109.9,55.1
					"/>
			</g>
		</g>
		<g>
			<defs>
				<line id="SVGID_37_" x1="171.6" y1="0.6" x2="171.6" y2="11.4"/>
			</defs>
			<clipPath id="SVGID_38_">
				<use xlink:href="#SVGID_37_"  style="overflow:visible;"/>
			</clipPath>
			<g class="st24">
				<path class="st11" d="M166.6,320.4c35.4,1.3,71.5-9.9,101-34.3c64.3-53.1,73.6-148.4,20.8-213c-31.1-38-76.7-56.9-122.1-55.2"/>
				<path class="st11" d="M166.3,17.9c-31.8,1.2-63.5,12.5-89.9,34.3C12,105.2,2.7,200.6,55.6,265.2c28.5,34.9,69.4,53.7,111,55.2"
					/>
			</g>
		</g>
	</g>
</g>
<g id="Calque_2">
	<g>
		
			<rect x="-2429" y="-38.6" transform="matrix(-1 -4.487223e-11 4.487223e-11 -1 -4670.7363 306.7372)" class="st25" width="187.2" height="384"/>
		<g>
			<path d="M-2470.2,194.1c0,0,4.1,52.2,31.1,106.3c0,0,74.1,10.7,124-49.7C-2315.1,250.7-2399.9,249.2-2470.2,194.1z"/>
			<path d="M-2476.2,137.3c0,0-43.1,29.6-76.5,80.1c0,0,27.9,69.5,105.1,82.5C-2447.7,300-2488.8,225.8-2476.2,137.3z"/>
			<path d="M-2428.6,102.7c0,0-47.2-22.5-107.7-26.2c0,0-46.2,58.9-18.9,132.3C-2555.1,208.8-2511.4,136.1-2428.6,102.7z"/>
			<path d="M-2375.8,125.9c0,0-4.6-52.1-32-106.1c0,0-74.2-10-123.6,50.8C-2531.4,70.7-2446.6,71.5-2375.8,125.9z"/>
			<path d="M-2369.3,183.8c0,0,42.9-29.9,76-80.6c0,0-28.3-69.4-105.5-81.9C-2398.8,21.3-2357.3,95.2-2369.3,183.8z"/>
			<path d="M-2417.5,217.2c0,0,47.1,22.7,107.5,26.7c0,0,46.5-58.7,19.6-132.2C-2290.4,111.8-2334.5,184.2-2417.5,217.2z"/>
			<circle class="st1" cx="-2422.7" cy="160.4" r="158.5"/>
		</g>
	</g>
</g>
</svg>
