<?xml version="1.0" encoding="utf-8"?>
<!-- Generator: Adobe Illustrator 22.0.1, SVG Export Plug-In . SVG Version: 6.00 Build 0)  -->
<svg version="1.1" xmlns="http://www.w3.org/2000/svg" xmlns:xlink="http://www.w3.org/1999/xlink" x="0px" y="0px"
	 viewBox="0 0 168 341.6" style="enable-background:new 0 0 168 341.6;" xml:space="preserve">
<style type="text/css">
	.st0{display:none;fill:#4253D1;}
	.st1{fill:none;stroke:#000000;stroke-width:13.6048;stroke-miterlimit:10;}
	.st2{clip-path:url(#SVGID_2_);}
	.st3{fill:#00FF00;}
	.st4{clip-path:url(#SVGID_4_);}
	.st5{fill:none;stroke:#000000;stroke-width:12.9916;stroke-miterlimit:10;}
	.st6{clip-path:url(#SVGID_6_);}
	.st7{fill:none;stroke:#00FF00;stroke-width:13;stroke-miterlimit:10;}
	.st8{clip-path:url(#SVGID_8_);}
	.st9{clip-path:url(#SVGID_10_);}
	.st10{clip-path:url(#SVGID_12_);}
	.st11{fill:none;stroke:#000000;stroke-width:13;stroke-miterlimit:10;}
	.st12{clip-path:url(#SVGID_14_);}
	.st13{clip-path:url(#SVGID_16_);}
	.st14{clip-path:url(#SVGID_18_);}
	.st15{clip-path:url(#SVGID_20_);}
	.st16{clip-path:url(#SVGID_22_);}
	.st17{clip-path:url(#SVGID_25_);}
	.st18{clip-path:url(#SVGID_26_);}
	.st19{clip-path:url(#SVGID_30_);}
	.st20{clip-path:url(#SVGID_32_);}
	.st21{clip-path:url(#SVGID_34_);}
	.st22{clip-path:url(#SVGID_36_);}
	.st23{fill:none;stroke:#00FF00;stroke-width:12.9916;stroke-miterlimit:10;}
	.st24{clip-path:url(#SVGID_38_);}
	.st25{fill:none;}
</style>
<g id="Calque_1">
	<rect x="-75.3" y="23.1" class="st0" width="336.1" height="339"/>
	<g>
		<path d="M-3301.4-468.7c78.6-0.2,140.5,61,140.7,140c0.2,79.1-63.4,139.5-139.2,140.1c-77.6,0.6-141.3-62.8-140.8-139.7
			C-3441.3-404.7-3380.3-468.6-3301.4-468.7z M-3226.4-322.6c-3.2,0-4.7,1.1-5.1,4.4c-1.3,11.1-2.7,22.3-4.5,33.3
			c-0.8,5.2-2.5,10.2-3.9,15.3c-1.1,4.1-0.4,5.3,3.7,5.3c15.2,0.1,30.4,0.2,45.7-0.1c2,0,4.7-1.9,5.7-3.7
			c8.7-15.7,13.7-32.5,14.9-50.4c0.2-3.2-1.4-4.1-4.2-4.1c-8.8,0.1-17.6,0-26.3,0C-3209.2-322.6-3217.8-322.5-3226.4-322.6z
			 M-3175.6-334.5c5.5,0,5.6-0.4,5.4-5.8c-0.9-16.8-6.3-32.3-13.5-47.3c-1.9-4-4.4-5.6-8.8-5.5c-14.2,0.2-28.4,0.1-42.6,0.1
			c-5.3,0-6,0.9-4.5,6c4.5,15.3,7.2,31,8,46.9c0.2,4.3,2.1,5.8,6.3,5.6c8.3-0.3,16.7-0.1,25.1-0.1
			C-3192-334.5-3183.8-334.5-3175.6-334.5z M-3368.3-264.3c4.5-0.1,5.2-1.1,3.9-5.3c-4.8-15.7-7.9-31.7-8.4-48.1
			c-0.1-3.6-1.6-4.9-5.1-4.9c-16.4,0.1-32.8,0.1-49.2,0c-3.4,0-4.7,1.1-4.5,4.6c1,18,6.5,34.7,15.1,50.3c0.9,1.7,3.9,3.1,6,3.3
			c7,0.4,14,0.2,21.1,0.2C-3382.3-264.3-3375.3-264.2-3368.3-264.3z M-3378.2-334.5c3.6,0.1,5.4-1.1,5.4-5c0.4-16,3.5-31.6,8-46.9
			c1.6-5.5,0.9-6.6-4.7-6.6c-13.5,0-27,0-40.4,0c-3.1,0-5.4,0.8-6.8,3.7c-8,15.7-13.7,31.9-14.6,49.7c-0.2,3.8,1,5.3,4.9,5.2
			c8.1-0.2,16.1-0.1,24.2-0.1C-3394.4-334.5-3386.3-334.6-3378.2-334.5z M-3245.2-334.5c3.8,0.1,5.3-1.4,5-5.2
			c-1.1-16.4-4.2-32.3-9.1-48c-1.2-3.8-3.2-5.4-7.3-5.3c-11.8,0.2-23.7,0-35.6,0.1c-5,0-6,1-6.1,5.8c-0.1,15.8,0.1,31.6-0.1,47.4
			c0,4.1,1.7,5.4,5.6,5.3c7.9-0.2,15.8-0.1,23.7-0.1C-3261-334.5-3253.1-334.6-3245.2-334.5z M-3293-322.6c-3.8-0.1-5.2,1.5-5.2,5.2
			c0.1,15.8,0.1,31.6,0,47.5c0,4.1,1.7,5.8,5.8,5.8c12.2-0.1,24.3-0.1,36.5,0c3.5,0,5.4-1.4,6.4-4.7c5.1-15.9,8.3-32.2,9.3-48.9
			c0.2-3.3-1-4.9-4.5-4.9c-8.2,0.1-16.4,0-24.6,0C-3277.2-322.6-3285.1-322.5-3293-322.6z M-3306.8-388.1c0.1-3.6-1.4-4.9-4.9-4.9
			c-12.3,0.1-24.6,0.1-36.9,0c-3.3,0-5.4,1.1-6.1,4.4c-2.7,11.5-5.4,22.9-7.8,34.4c-1,5-1.2,10.1-1.7,15.2c-0.3,3.1,1.1,4.5,4.3,4.5
			c16.2-0.1,32.5-0.1,48.7,0c3.3,0,4.4-1.4,4.3-4.5c-0.1-8.3,0-16.7,0-25C-3306.8-372-3306.9-380.1-3306.8-388.1z M-3306.8-318
			c0.1-3.4-1.3-4.6-4.7-4.6c-15.9,0.1-31.9,0.1-47.8,0c-4,0-5.4,1.7-4.9,5.3c1.9,12.4,3.8,24.7,6,37c0.7,4,2.4,7.8,3.4,11.7
			c0.8,3,2.7,4.3,5.8,4.3c12.6,0,25.2,0,37.7,0c3.2,0,4.4-1.5,4.4-4.6c-0.1-8.3,0-16.7,0-25C-3306.8-301.9-3306.9-310-3306.8-318z
			 M-3275.4-198.8c31.4-6.9,57-23,76.8-48.3c0.9-1.2,1.3-2.8,1.9-4.2c-1.5-0.6-3.1-1.6-4.6-1.6c-13.2-0.1-26.4,0-39.6-0.1
			c-3.2,0-5.4,1-6.9,4.2c-7.8,16.4-18.1,31.1-29.5,45c-1,1.2-1.6,2.6-3.2,5.2C-3277.8-198.7-3276.6-198.6-3275.4-198.8z
			 M-3363.2-404.8c3.2,0.1,5.2-1,6.6-3.9c7.9-16.5,18.2-31.3,29.8-45.4c0.8-1,1.1-2.5,1.6-3.7c-1.3-0.2-2.8-0.7-4-0.4
			c-14.8,3.4-28.9,8.5-41.9,16.2c-13.6,8-24.4,19.1-32.8,32.3c-2.2,3.4-1.4,4.8,2.6,4.8c6.6,0.1,13.2,0,19.8,0
			C-3375.5-404.8-3369.3-405-3363.2-404.8z M-3274.5-450.4c11.3,13.3,22,26.9,30.2,42.5c0.8,1.5,3.3,3,5,3
			c12.9,0.3,25.8,0.2,38.7,0.1c1.3,0,2.6-0.9,3.9-1.3c-0.5-1.2-0.8-2.5-1.5-3.5c-17.4-22.1-38.3-39.4-66.2-46.7
			c-4.8-1.3-9.7-1.9-14.6-2.8c-0.3,0.7-0.6,1.3-0.9,2C-3278.1-454.9-3276.4-452.6-3274.5-450.4z M-3329.8-203.5
			c-10.7-13.8-19.5-28.8-26.7-44.7c-1.6-3.5-3.8-5-7.7-4.9c-11.8,0.2-23.7,0-35.6,0.1c-1.7,0-3.5,0.9-5.2,1.4
			c0.8,1.6,1.3,3.5,2.3,4.9c10.5,13.9,22.4,26.2,37.8,34.7c10.7,5.9,21.9,10.2,33.8,13c0.9,0.2,1.9,0,3.7,0
			C-3328.3-200.8-3328.9-202.3-3329.8-203.5z M-3298.1-204.6c0,1.9,0.8,3.8,1.3,5.7c1.9-0.9,4-1.4,5.6-2.7
			c13.5-10.6,22.5-24.7,30.1-39.9c1-2.1,2.2-4.1,3.1-6.3c1.4-3.4,0.3-5.1-3.3-5.2c-10.7-0.1-21.4,0-32,0c-3.6,0-4.8,2-4.8,5.3
			c0.1,7.5,0,14.9,0,22.4c0,0,0,0,0,0C-3298.1-218.3-3298.2-211.4-3298.1-204.6z M-3298.2-410.4c-0.1,3.8,1.2,5.6,5.3,5.6
			c11.4-0.1,22.8,0,34.2-0.1c4.6,0,5.1-1,2.9-5.3c-9.4-18.2-22.9-33.1-37.7-46.9c-0.8-0.8-2.7-1.5-3.3-1.1c-0.8,0.5-1.3,2.2-1.3,3.4
			c-0.1,7.8-0.1,15.5-0.1,23.3C-3298.1-424.4-3298-417.4-3298.2-410.4z M-3306.8-203c0-14.8-0.1-29.6,0.1-44.3
			c0.1-4.2-1.5-5.7-5.6-5.6c-9.9,0.2-19.9,0-29.8,0.1c-5.2,0-5.7,0.8-3.8,5.5c7.4,17.9,17.2,34.2,32.9,46.2c1,0.8,2.1,1.6,3.2,2.2
			c0.5,0.3,1.1,0.3,2.5,0.6C-3307.1-200.3-3306.8-201.6-3306.8-203z M-3311.9-456.1c-13.5,13.5-23.3,29.5-31.5,46.6
			c-1.6,3.3-0.3,4.6,3.1,4.6c9.8,0,19.6,0,29.4,0c2.6,0,4.1-0.8,4.1-3.8c-0.1-15.7,0-31.3-0.1-47c0-0.9-0.5-1.9-1-3.5
			C-3309.5-457.9-3310.9-457.1-3311.9-456.1z"/>
	</g>
	<circle class="st1" cx="-3300.7" cy="-328.7" r="158.5"/>
	<text transform="matrix(1 0 0 1 -3543.6555 -104.0133)"><tspan x="0" y="0" style="font-family:'FalconPunch'; font-size:55px; letter-spacing:-5;">&lt; </tspan><tspan x="39.4" y="0" style="font-family:'FalconPunch'; font-size:55px;">web squad</tspan><tspan x="434.4" y="0" style="font-family:'FalconPunch'; font-size:55px; letter-spacing:-5;"> &gt;</tspan></text>
	<rect x="-2741.7" y="-152.2" class="st25" width="638" height="112.5"/>
	<text transform="matrix(1 0 0 1 -2681.8254 -105.8249)" style="font-family:'FalconPunch'; font-size:55px;">Visual league</text>
	<g>
		<g>
			<defs>
				<rect id="SVGID_1_" x="10.3" y="11.4" width="142.2" height="303.4"/>
			</defs>
			<clipPath id="SVGID_2_">
				<use xlink:href="#SVGID_1_"  style="overflow:visible;"/>
			</clipPath>
			<g class="st2">
				<path class="st3" d="M143.6,169.2C144.2,243.1,83,303.9,8.5,303.3c-72.8-0.6-133.9-58.6-133.7-134.5
					C-125,92.9-65.6,34.2,9.9,34.4C85.7,34.5,144.3,95.8,143.6,169.2z M-86.9,174.7c-8.4,0-16.9,0-25.3,0c-2.7,0-4.3,0.9-4.1,3.9
					c1.1,17.2,5.9,33.4,14.3,48.4c1,1.7,3.6,3.5,5.5,3.5c14.6,0.3,29.2,0.2,43.8,0.1c3.9,0,4.6-1.2,3.5-5.1
					c-1.3-4.9-2.9-9.7-3.7-14.7c-1.7-10.6-3.1-21.3-4.3-32c-0.4-3.2-1.8-4.3-4.9-4.3C-70.3,174.8-78.6,174.7-86.9,174.7z
					 M-87.3,163.2c8,0,16-0.2,24.1,0.1c4.1,0.1,5.9-1.2,6.1-5.4c0.8-15.3,3.4-30.3,7.7-45.1c1.4-4.9,0.9-5.7-4.3-5.8
					c-13.6,0-27.3,0.1-40.9-0.1c-4.3-0.1-6.7,1.4-8.5,5.3c-6.9,14.4-12.1,29.3-12.9,45.5c-0.3,5.1-0.1,5.5,5.1,5.5
					C-103,163.2-95.1,163.2-87.3,163.2z M94.4,230.7c6.7,0,13.5,0.2,20.2-0.1c2-0.1,4.8-1.5,5.7-3.1c8.3-15,13.6-31,14.5-48.3
					c0.2-3.4-1-4.5-4.3-4.4c-15.7,0.1-31.5,0.1-47.2,0c-3.4,0-4.8,1.2-4.9,4.7c-0.5,15.8-3.4,31.1-8.1,46.2
					c-1.3,4.1-0.6,5.1,3.7,5.1C80.9,230.8,87.6,230.7,94.4,230.7z M106.9,163.2c7.7,0,15.5-0.1,23.2,0.1c3.8,0.1,4.9-1.3,4.7-5
					c-0.9-17-6.4-32.7-14.1-47.7c-1.4-2.8-3.6-3.6-6.6-3.6c-12.9,0.1-25.9,0-38.8,0c-5.4,0-6.1,1-4.6,6.4c4.3,14.7,7.3,29.7,7.7,45
					c0.1,3.8,1.8,4.8,5.2,4.8C91.4,163.1,99.2,163.2,106.9,163.2z M-21.3,163.2c7.6,0,15.2-0.1,22.8,0c3.7,0.1,5.4-1.1,5.4-5.1
					c-0.1-15.2,0-30.3-0.1-45.5c0-4.7-1-5.6-5.8-5.6c-11.4,0-22.8,0.1-34.1-0.1c-3.9-0.1-5.9,1.5-7,5.1c-4.6,15-7.6,30.4-8.7,46.1
					c-0.2,3.7,1.2,5.1,4.8,5C-36.4,163.1-28.9,163.2-21.3,163.2z M-20.9,174.7c-7.9,0-15.8,0.1-23.6,0c-3.3,0-4.5,1.5-4.3,4.7
					c1,16,4.1,31.6,9,46.9c1,3.1,2.8,4.5,6.2,4.5c11.7-0.1,23.3-0.1,35,0c3.9,0,5.6-1.6,5.6-5.5c-0.1-15.2-0.1-30.4,0-45.6
					c0-3.6-1.3-5.1-5-5C-5.7,174.8-13.3,174.7-20.9,174.7z M15.1,134.9c0,8,0.1,16,0,24c0,3,1,4.3,4.2,4.3c15.6-0.1,31.2-0.1,46.8,0
					c3.1,0,4.4-1.4,4.2-4.4c-0.5-4.9-0.6-9.8-1.6-14.6c-2.3-11.1-4.9-22-7.5-33.1c-0.7-3.1-2.8-4.2-5.9-4.2
					c-11.8,0.1-23.6,0.1-35.4,0c-3.4,0-4.8,1.2-4.7,4.7C15.2,119.5,15.1,127.2,15.1,134.9z M15.1,202.3c0,8,0.1,16,0,24
					c0,3,1.1,4.4,4.2,4.4c12.1,0,24.2,0,36.2,0c2.9,0,4.7-1.2,5.5-4.1c1-3.8,2.6-7.4,3.3-11.3c2.1-11.8,4-23.7,5.8-35.5
					c0.5-3.4-0.9-5.1-4.7-5.1c-15.3,0.1-30.6,0.1-45.9,0c-3.2,0-4.6,1.1-4.5,4.4C15.2,186.8,15.1,194.5,15.1,202.3z M-10.1,293.8
					c-1.5-2.5-2.2-3.8-3.1-5c-11-13.4-20.9-27.5-28.4-43.2c-1.4-3.1-3.5-4.1-6.6-4.1c-12.7,0-25.3,0-38,0.1c-1.5,0-3,1-4.5,1.5
					c0.6,1.3,1,2.9,1.8,4c19.1,24.2,43.6,39.7,73.8,46.3C-13.9,293.8-12.7,293.7-10.1,293.8z M86.9,95.7c6.3,0,12.7,0.1,19,0
					c3.9-0.1,4.6-1.4,2.5-4.6C100.3,78.3,90,67.7,76.9,60c-12.6-7.4-26.1-12.3-40.3-15.5c-1.2-0.3-2.6,0.2-3.9,0.4
					c0.5,1.2,0.8,2.6,1.6,3.6C45.4,62,55.4,76.2,62.9,92c1.3,2.8,3.2,3.9,6.3,3.8C75.1,95.6,81,95.7,86.9,95.7z M-10.7,45.5
					c-0.3-0.6-0.6-1.3-0.9-1.9c-4.7,0.9-9.4,1.5-14,2.7c-26.7,7-46.8,23.6-63.5,44.8c-0.7,0.9-1,2.2-1.5,3.3
					c1.3,0.4,2.5,1.3,3.8,1.3c12.4,0.1,24.7,0.2,37.1-0.1c1.7,0,4.1-1.4,4.8-2.9c7.8-14.9,18.1-28,29-40.8
					C-14.1,49.8-12.4,47.6-10.7,45.5z M34.8,293.5c1.8,0,2.7,0.2,3.6,0c11.4-2.7,22.2-6.8,32.5-12.5c14.8-8.2,26.3-20,36.3-33.4
					c1-1.4,1.5-3.1,2.2-4.7c-1.7-0.5-3.3-1.3-5-1.3c-11.4-0.1-22.8,0.1-34.1-0.1c-3.8-0.1-5.9,1.3-7.4,4.7
					c-6.9,15.3-15.3,29.6-25.6,42.9C36.3,290.2,35.8,291.6,34.8,293.5z M6.8,268.2C6.8,268.2,6.8,268.2,6.8,268.2
					c0-7.2-0.1-14.3,0-21.5c0-3.2-1.1-5.1-4.6-5.1c-10.3,0-20.5-0.1-30.8,0c-3.5,0-4.5,1.7-3.2,5c0.8,2.1,1.9,4,3,6
					c7.3,14.5,15.9,28.1,28.9,38.3c1.5,1.2,3.6,1.7,5.4,2.6c0.4-1.8,1.2-3.7,1.2-5.5C6.9,281.4,6.8,274.8,6.8,268.2z M6.8,70.2
					c0-7.4,0.1-14.9-0.1-22.3c0-1.1-0.5-2.8-1.3-3.2c-0.6-0.4-2.4,0.3-3.2,1c-14.2,13.3-27.2,27.6-36.2,45c-2.1,4.1-1.6,5,2.8,5
					c11,0.1,21.9-0.1,32.9,0.1c3.9,0,5.2-1.7,5.1-5.4C6.7,83.7,6.8,76.9,6.8,70.2z M15.6,294c1.3-0.3,1.9-0.3,2.4-0.6
					c1.1-0.6,2.1-1.4,3.1-2.1c15.1-11.5,24.5-27.1,31.6-44.3c1.9-4.5,1.4-5.3-3.6-5.3c-9.6-0.1-19.1,0.1-28.7-0.1
					c-4-0.1-5.5,1.4-5.4,5.4c0.2,14.2,0.1,28.4,0.1,42.6C15.2,290.8,15.4,292.2,15.6,294z M16.1,43.6c-0.5,1.6-0.9,2.5-0.9,3.4
					c0,15,0,30.1-0.1,45.1c0,2.8,1.5,3.6,4,3.6c9.4,0,18.8,0,28.2,0c3.2,0,4.5-1.3,3-4.5C42.4,74.9,33,59.5,20,46.5
					C19,45.5,17.7,44.8,16.1,43.6z"/>
			</g>
		</g>
		<g>
			<defs>
				<rect id="SVGID_3_" x="-167.6" y="0.9" width="167.1" height="339"/>
			</defs>
			<clipPath id="SVGID_4_">
				<use xlink:href="#SVGID_3_"  style="overflow:visible;"/>
			</clipPath>
			<g class="st4">
				<path d="M48.1,191.4c0,0,41-28.5,72.6-76.9c0,0-27-66.2-100.8-78.2C19.9,36.3,59.6,106.9,48.1,191.4z"/>
				<path d="M2.1,223.4c0,0,45,21.7,102.7,25.5c0,0,44.5-56,18.7-126.2C123.4,122.7,81.3,191.9,2.1,223.4z"/>
				<path class="st5" d="M4,17.9C35.6,19.3,67,30.6,93.2,52.2c64.6,53.1,73.9,148.4,20.9,213c-28.4,34.6-68.9,53.3-110.4,55.1"/>
			</g>
		</g>
		<g>
			<defs>
				
					<rect id="SVGID_5_" x="10.2" y="0.6" transform="matrix(-1 -4.563384e-11 4.563384e-11 -1 184.7951 340.1559)" width="164.3" height="339"/>
			</defs>
			<clipPath id="SVGID_6_">
				<use xlink:href="#SVGID_5_"  style="overflow:visible;"/>
			</clipPath>
			<g class="st6">
				<ellipse class="st7" cx="10.6" cy="169.1" rx="150.7" ry="151.4"/>
			</g>
		</g>
	</g>
	<rect x="-1863.7" y="855.8" class="st25" width="638" height="112.5"/>
	<text transform="matrix(1 0 0 1 -1766.3433 902.1742)" style="font-family:'FalconPunch'; font-size:55px;">361 DEGREES</text>
	<g>
		<g>
			<defs>
				<rect id="SVGID_7_" x="-1538.4" y="530.3" width="142.2" height="303.4"/>
			</defs>
			<clipPath id="SVGID_8_">
				<use xlink:href="#SVGID_7_"  style="overflow:visible;"/>
			</clipPath>
			<g class="st8">
				<path d="M-1405,688.1c0.6,73.9-60.7,134.8-135.2,134.2c-72.8-0.6-133.9-58.6-133.7-134.5c0.2-75.9,59.6-134.6,135.1-134.4
					C-1463,553.5-1404.4,614.8-1405,688.1z M-1635.6,693.7c-8.4,0-16.9,0-25.3,0c-2.7,0-4.3,0.9-4.1,3.9
					c1.1,17.2,5.9,33.4,14.3,48.4c1,1.7,3.6,3.5,5.5,3.5c14.6,0.3,29.2,0.2,43.8,0.1c3.9,0,4.6-1.2,3.5-5.1
					c-1.3-4.9-2.9-9.7-3.7-14.7c-1.7-10.6-3.1-21.3-4.3-32c-0.4-3.2-1.8-4.3-4.9-4.3C-1619,693.7-1627.3,693.7-1635.6,693.7z
					 M-1635.9,682.2c8,0,16-0.2,24.1,0.1c4.1,0.1,5.9-1.2,6.1-5.4c0.8-15.3,3.4-30.3,7.7-45.1c1.4-4.9,0.9-5.7-4.3-5.8
					c-13.6,0-27.3,0.1-40.9-0.1c-4.3-0.1-6.7,1.4-8.5,5.3c-6.9,14.4-12.1,29.3-12.9,45.5c-0.3,5.1-0.1,5.5,5.1,5.5
					C-1651.7,682.2-1643.8,682.2-1635.9,682.2z M-1454.3,749.7c6.7,0,13.5,0.2,20.2-0.1c2-0.1,4.8-1.5,5.7-3.1
					c8.3-15,13.6-31,14.5-48.3c0.2-3.4-1-4.5-4.3-4.4c-15.7,0.1-31.5,0.1-47.2,0c-3.4,0-4.8,1.2-4.9,4.7
					c-0.5,15.8-3.4,31.1-8.1,46.2c-1.3,4.1-0.6,5.1,3.7,5.1C-1467.8,749.7-1461,749.7-1454.3,749.7z M-1441.7,682.2
					c7.7,0,15.5-0.1,23.2,0.1c3.8,0.1,4.9-1.3,4.7-5c-0.9-17-6.4-32.7-14.1-47.7c-1.4-2.8-3.6-3.6-6.6-3.6c-12.9,0.1-25.9,0-38.8,0
					c-5.4,0-6.1,1-4.6,6.4c4.3,14.7,7.3,29.7,7.7,45c0.1,3.8,1.8,4.8,5.2,4.8C-1457.2,682.1-1449.5,682.2-1441.7,682.2z
					 M-1569.9,682.2c7.6,0,15.2-0.1,22.8,0c3.7,0.1,5.4-1.1,5.4-5.1c-0.1-15.2,0-30.3-0.1-45.5c0-4.7-1-5.6-5.8-5.6
					c-11.4,0-22.8,0.1-34.1-0.1c-3.9-0.1-5.9,1.5-7,5.1c-4.6,15-7.6,30.4-8.7,46.1c-0.2,3.7,1.2,5.1,4.8,5
					C-1585.1,682.1-1577.5,682.2-1569.9,682.2z M-1569.6,693.7c-7.9,0-15.8,0.1-23.6,0c-3.3,0-4.5,1.5-4.3,4.7c1,16,4.1,31.6,9,46.9
					c1,3.1,2.8,4.5,6.2,4.5c11.7-0.1,23.3-0.1,35,0c3.9,0,5.6-1.6,5.6-5.5c-0.1-15.2-0.1-30.4,0-45.6c0-3.6-1.3-5.1-5-5
					C-1554.4,693.8-1562,693.7-1569.6,693.7z M-1533.5,653.9c0,8,0.1,16,0,24c0,3,1,4.3,4.2,4.3c15.6-0.1,31.2-0.1,46.8,0
					c3.1,0,4.4-1.4,4.2-4.4c-0.5-4.9-0.6-9.8-1.6-14.6c-2.3-11.1-4.9-22-7.5-33.1c-0.7-3.1-2.8-4.2-5.9-4.2
					c-11.8,0.1-23.6,0.1-35.4,0c-3.4,0-4.8,1.2-4.7,4.7C-1533.4,638.4-1533.5,646.2-1533.5,653.9z M-1533.5,721.2c0,8,0.1,16,0,24
					c0,3,1.1,4.4,4.2,4.4c12.1,0,24.2,0,36.2,0c2.9,0,4.7-1.2,5.5-4.1c1-3.8,2.6-7.4,3.3-11.3c2.1-11.8,4-23.7,5.8-35.5
					c0.5-3.4-0.9-5.1-4.7-5.1c-15.3,0.1-30.6,0.1-45.9,0c-3.2,0-4.6,1.1-4.5,4.4C-1533.4,705.8-1533.5,713.5-1533.5,721.2z
					 M-1558.8,812.8c-1.5-2.5-2.2-3.8-3.1-5c-11-13.4-20.9-27.5-28.4-43.2c-1.4-3.1-3.5-4.1-6.6-4.1c-12.7,0-25.3,0-38,0.1
					c-1.5,0-3,1-4.5,1.5c0.6,1.3,1,2.9,1.8,4c19.1,24.2,43.6,39.7,73.8,46.3C-1562.6,812.7-1561.4,812.6-1558.8,812.8z
					 M-1461.7,614.7c6.3,0,12.7,0.1,19,0c3.9-0.1,4.6-1.4,2.5-4.6c-8.1-12.8-18.4-23.3-31.5-31c-12.6-7.4-26.1-12.3-40.3-15.5
					c-1.2-0.3-2.6,0.2-3.9,0.4c0.5,1.2,0.8,2.6,1.6,3.6c11.1,13.5,21,27.8,28.6,43.6c1.3,2.8,3.2,3.9,6.3,3.8
					C-1473.5,614.5-1467.6,614.7-1461.7,614.7z M-1559.4,564.4c-0.3-0.6-0.6-1.3-0.9-1.9c-4.7,0.9-9.4,1.5-14,2.7
					c-26.7,7-46.8,23.6-63.5,44.8c-0.7,0.9-1,2.2-1.5,3.3c1.3,0.4,2.5,1.3,3.8,1.3c12.4,0.1,24.7,0.2,37.1-0.1
					c1.7,0,4.1-1.4,4.8-2.9c7.8-14.9,18.1-28,29-40.8C-1562.8,568.8-1561.1,566.6-1559.4,564.4z M-1513.9,812.5c1.8,0,2.7,0.2,3.6,0
					c11.4-2.7,22.2-6.8,32.5-12.5c14.8-8.2,26.3-20,36.3-33.4c1-1.4,1.5-3.1,2.2-4.7c-1.7-0.5-3.3-1.3-5-1.3
					c-11.4-0.1-22.8,0.1-34.1-0.1c-3.8-0.1-5.9,1.3-7.4,4.7c-6.9,15.3-15.3,29.6-25.6,42.9C-1512.4,809.1-1512.9,810.5-1513.9,812.5
					z M-1541.9,787.2C-1541.9,787.2-1541.9,787.2-1541.9,787.2c0-7.2-0.1-14.3,0-21.5c0-3.2-1.1-5.1-4.6-5.1
					c-10.3,0-20.5-0.1-30.8,0c-3.5,0-4.5,1.7-3.2,5c0.8,2.1,1.9,4,3,6c7.3,14.5,15.9,28.1,28.9,38.3c1.5,1.2,3.6,1.7,5.4,2.6
					c0.4-1.8,1.2-3.7,1.2-5.5C-1541.8,800.4-1541.9,793.8-1541.9,787.2z M-1541.9,589.1c0-7.4,0.1-14.9-0.1-22.3
					c0-1.1-0.5-2.8-1.3-3.2c-0.6-0.4-2.4,0.3-3.2,1c-14.2,13.3-27.2,27.6-36.2,45c-2.1,4.1-1.6,5,2.8,5c11,0.1,21.9-0.1,32.9,0.1
					c3.9,0,5.2-1.7,5.1-5.4C-1542,602.6-1541.9,595.9-1541.9,589.1z M-1533,812.9c1.3-0.3,1.9-0.3,2.4-0.6c1.1-0.6,2.1-1.4,3.1-2.1
					c15.1-11.5,24.5-27.1,31.6-44.3c1.9-4.5,1.4-5.3-3.6-5.3c-9.6-0.1-19.1,0.1-28.7-0.1c-4-0.1-5.5,1.4-5.4,5.4
					c0.2,14.2,0.1,28.4,0.1,42.6C-1533.5,809.8-1533.2,811.1-1533,812.9z M-1532.5,562.6c-0.5,1.6-0.9,2.5-0.9,3.4
					c0,15,0,30.1-0.1,45.1c0,2.8,1.5,3.6,4,3.6c9.4,0,18.8,0,28.2,0c3.2,0,4.5-1.3,3-4.5c-7.9-16.4-17.3-31.8-30.3-44.7
					C-1529.6,564.5-1530.9,563.7-1532.5,562.6z"/>
			</g>
		</g>
		<g>
			<defs>
				<rect id="SVGID_9_" x="-1716.2" y="519.8" width="167.1" height="339"/>
			</defs>
			<clipPath id="SVGID_10_">
				<use xlink:href="#SVGID_9_"  style="overflow:visible;"/>
			</clipPath>
			<g class="st9">
				<path d="M-1596.9,720.2c0,0,3.9,49.8,29.7,101.6c0,0,70.8,10.2,118.4-47.4C-1448.8,774.4-1529.7,772.9-1596.9,720.2z"/>
				<path d="M-1602.7,666.1c0,0-41.2,28.3-73.1,76.5c0,0,26.6,66.4,100.3,78.8C-1575.4,821.4-1614.6,750.5-1602.7,666.1z"/>
				<path d="M-1557.2,633c0,0-45.1-21.5-102.8-25c0,0-44.2,56.3-18,126.3C-1678,734.3-1636.3,664.9-1557.2,633z"/>
				<path d="M-1506.7,655.2c0,0-4.4-49.8-30.6-101.3c0,0-70.9-9.5-118,48.5C-1655.3,602.4-1574.4,603.2-1506.7,655.2z"/>
				<path d="M-1500.6,710.4c0,0,41-28.5,72.6-76.9c0,0-27-66.2-100.8-78.2C-1528.7,555.2-1489.1,625.9-1500.6,710.4z"/>
				<path d="M-1546.6,742.4c0,0,45,21.7,102.7,25.5c0,0,44.5-56,18.7-126.2C-1425.2,641.7-1467.3,710.9-1546.6,742.4z"/>
				<circle class="st5" cx="-1551.5" cy="688.1" r="151.4"/>
			</g>
		</g>
		<g>
			<defs>
				
					<rect id="SVGID_11_" x="-1538.4" y="519.5" transform="matrix(-1 -4.563384e-11 4.563384e-11 -1 -2912.53 1378.0581)" width="164.3" height="339"/>
			</defs>
			<clipPath id="SVGID_12_">
				<use xlink:href="#SVGID_11_"  style="overflow:visible;"/>
			</clipPath>
			<g class="st10">
				<ellipse class="st11" cx="-1538.1" cy="688.1" rx="150.7" ry="151.4"/>
			</g>
		</g>
	</g>
	<rect x="-1863.7" y="-152.2" class="st25" width="638" height="112.5"/>
	<text transform="matrix(1 0 0 1 -1766.3433 -105.8258)" style="font-family:'FalconPunch'; font-size:55px;">361 DEGREES</text>
	<g>
		<g>
			<defs>
				<rect id="SVGID_13_" x="-1538.4" y="-477.7" width="142.2" height="303.4"/>
			</defs>
			<clipPath id="SVGID_14_">
				<use xlink:href="#SVGID_13_"  style="overflow:visible;"/>
			</clipPath>
			<g class="st12">
				<path d="M-1405-319.9c0.6,73.9-60.7,134.8-135.2,134.2c-72.8-0.6-133.9-58.6-133.7-134.5c0.2-75.9,59.6-134.6,135.1-134.4
					C-1463-454.5-1404.4-393.2-1405-319.9z M-1635.6-314.3c-8.4,0-16.9,0-25.3,0c-2.7,0-4.3,0.9-4.1,3.9
					c1.1,17.2,5.9,33.4,14.3,48.4c1,1.7,3.6,3.5,5.5,3.5c14.6,0.3,29.2,0.2,43.8,0.1c3.9,0,4.6-1.2,3.5-5.1
					c-1.3-4.9-2.9-9.7-3.7-14.7c-1.7-10.6-3.1-21.3-4.3-32c-0.4-3.2-1.8-4.3-4.9-4.3C-1619-314.3-1627.3-314.3-1635.6-314.3z
					 M-1635.9-325.8c8,0,16-0.2,24.1,0.1c4.1,0.1,5.9-1.2,6.1-5.4c0.8-15.3,3.4-30.3,7.7-45.1c1.4-4.9,0.9-5.7-4.3-5.8
					c-13.6,0-27.3,0.1-40.9-0.1c-4.3-0.1-6.7,1.4-8.5,5.3c-6.9,14.4-12.1,29.3-12.9,45.5c-0.3,5.1-0.1,5.5,5.1,5.5
					C-1651.7-325.8-1643.8-325.8-1635.9-325.8z M-1454.3-258.3c6.7,0,13.5,0.2,20.2-0.1c2-0.1,4.8-1.5,5.7-3.1
					c8.3-15,13.6-31,14.5-48.3c0.2-3.4-1-4.5-4.3-4.4c-15.7,0.1-31.5,0.1-47.2,0c-3.4,0-4.8,1.2-4.9,4.7
					c-0.5,15.8-3.4,31.1-8.1,46.2c-1.3,4.1-0.6,5.1,3.7,5.1C-1467.8-258.3-1461-258.3-1454.3-258.3z M-1441.7-325.8
					c7.7,0,15.5-0.1,23.2,0.1c3.8,0.1,4.9-1.3,4.7-5c-0.9-17-6.4-32.7-14.1-47.7c-1.4-2.8-3.6-3.6-6.6-3.6c-12.9,0.1-25.9,0-38.8,0
					c-5.4,0-6.1,1-4.6,6.4c4.3,14.7,7.3,29.7,7.7,45c0.1,3.8,1.8,4.8,5.2,4.8C-1457.2-325.9-1449.5-325.8-1441.7-325.8z
					 M-1569.9-325.8c7.6,0,15.2-0.1,22.8,0c3.7,0.1,5.4-1.1,5.4-5.1c-0.1-15.2,0-30.3-0.1-45.5c0-4.7-1-5.6-5.8-5.6
					c-11.4,0-22.8,0.1-34.1-0.1c-3.9-0.1-5.9,1.5-7,5.1c-4.6,15-7.6,30.4-8.7,46.1c-0.2,3.7,1.2,5.1,4.8,5
					C-1585.1-325.9-1577.5-325.8-1569.9-325.8z M-1569.6-314.3c-7.9,0-15.8,0.1-23.6,0c-3.3,0-4.5,1.5-4.3,4.7c1,16,4.1,31.6,9,46.9
					c1,3.1,2.8,4.5,6.2,4.5c11.7-0.1,23.3-0.1,35,0c3.9,0,5.6-1.6,5.6-5.5c-0.1-15.2-0.1-30.4,0-45.6c0-3.6-1.3-5.1-5-5
					C-1554.4-314.2-1562-314.3-1569.6-314.3z M-1533.5-354.1c0,8,0.1,16,0,24c0,3,1,4.3,4.2,4.3c15.6-0.1,31.2-0.1,46.8,0
					c3.1,0,4.4-1.4,4.2-4.4c-0.5-4.9-0.6-9.8-1.6-14.6c-2.3-11.1-4.9-22-7.5-33.1c-0.7-3.1-2.8-4.2-5.9-4.2
					c-11.8,0.1-23.6,0.1-35.4,0c-3.4,0-4.8,1.2-4.7,4.7C-1533.4-369.6-1533.5-361.8-1533.5-354.1z M-1533.5-286.8c0,8,0.1,16,0,24
					c0,3,1.1,4.4,4.2,4.4c12.1,0,24.2,0,36.2,0c2.9,0,4.7-1.2,5.5-4.1c1-3.8,2.6-7.4,3.3-11.3c2.1-11.8,4-23.7,5.8-35.5
					c0.5-3.4-0.9-5.1-4.7-5.1c-15.3,0.1-30.6,0.1-45.9,0c-3.2,0-4.6,1.1-4.5,4.4C-1533.4-302.2-1533.5-294.5-1533.5-286.8z
					 M-1558.8-195.2c-1.5-2.5-2.2-3.8-3.1-5c-11-13.4-20.9-27.5-28.4-43.2c-1.4-3.1-3.5-4.1-6.6-4.1c-12.7,0-25.3,0-38,0.1
					c-1.5,0-3,1-4.5,1.5c0.6,1.3,1,2.9,1.8,4c19.1,24.2,43.6,39.7,73.8,46.3C-1562.6-195.3-1561.4-195.4-1558.8-195.2z
					 M-1461.7-393.3c6.3,0,12.7,0.1,19,0c3.9-0.1,4.6-1.4,2.5-4.6c-8.1-12.8-18.4-23.3-31.5-31c-12.6-7.4-26.1-12.3-40.3-15.5
					c-1.2-0.3-2.6,0.2-3.9,0.4c0.5,1.2,0.8,2.6,1.6,3.6c11.1,13.5,21,27.8,28.6,43.6c1.3,2.8,3.2,3.9,6.3,3.8
					C-1473.5-393.5-1467.6-393.3-1461.7-393.3z M-1559.4-443.6c-0.3-0.6-0.6-1.3-0.9-1.9c-4.7,0.9-9.4,1.5-14,2.7
					c-26.7,7-46.8,23.6-63.5,44.8c-0.7,0.9-1,2.2-1.5,3.3c1.3,0.4,2.5,1.3,3.8,1.3c12.4,0.1,24.7,0.2,37.1-0.1
					c1.7,0,4.1-1.4,4.8-2.9c7.8-14.9,18.1-28,29-40.8C-1562.8-439.2-1561.1-441.4-1559.4-443.6z M-1513.9-195.5c1.8,0,2.7,0.2,3.6,0
					c11.4-2.7,22.2-6.8,32.5-12.5c14.8-8.2,26.3-20,36.3-33.4c1-1.4,1.5-3.1,2.2-4.7c-1.7-0.5-3.3-1.3-5-1.3
					c-11.4-0.1-22.8,0.1-34.1-0.1c-3.8-0.1-5.9,1.3-7.4,4.7c-6.9,15.3-15.3,29.6-25.6,42.9C-1512.4-198.9-1512.9-197.5-1513.9-195.5
					z M-1541.9-220.8C-1541.9-220.8-1541.9-220.8-1541.9-220.8c0-7.2-0.1-14.3,0-21.5c0-3.2-1.1-5.1-4.6-5.1
					c-10.3,0-20.5-0.1-30.8,0c-3.5,0-4.5,1.7-3.2,5c0.8,2.1,1.9,4,3,6c7.3,14.5,15.9,28.1,28.9,38.3c1.5,1.2,3.6,1.7,5.4,2.6
					c0.4-1.8,1.2-3.7,1.2-5.5C-1541.8-207.6-1541.9-214.2-1541.9-220.8z M-1541.9-418.9c0-7.4,0.1-14.9-0.1-22.3
					c0-1.1-0.5-2.8-1.3-3.2c-0.6-0.4-2.4,0.3-3.2,1c-14.2,13.3-27.2,27.6-36.2,45c-2.1,4.1-1.6,5,2.8,5c11,0.1,21.9-0.1,32.9,0.1
					c3.9,0,5.2-1.7,5.1-5.4C-1542-405.4-1541.9-412.1-1541.9-418.9z M-1533-195.1c1.3-0.3,1.9-0.3,2.4-0.6c1.1-0.6,2.1-1.4,3.1-2.1
					c15.1-11.5,24.5-27.1,31.6-44.3c1.9-4.5,1.4-5.3-3.6-5.3c-9.6-0.1-19.1,0.1-28.7-0.1c-4-0.1-5.5,1.4-5.4,5.4
					c0.2,14.2,0.1,28.4,0.1,42.6C-1533.5-198.2-1533.2-196.9-1533-195.1z M-1532.5-445.4c-0.5,1.6-0.9,2.5-0.9,3.4
					c0,15,0,30.1-0.1,45.1c0,2.8,1.5,3.6,4,3.6c9.4,0,18.8,0,28.2,0c3.2,0,4.5-1.3,3-4.5c-7.9-16.4-17.3-31.8-30.3-44.7
					C-1529.6-443.5-1530.9-444.3-1532.5-445.4z"/>
			</g>
		</g>
		<g>
			<defs>
				<rect id="SVGID_15_" x="-1716.2" y="-488.2" width="167.1" height="339"/>
			</defs>
			<clipPath id="SVGID_16_">
				<use xlink:href="#SVGID_15_"  style="overflow:visible;"/>
			</clipPath>
			<g class="st13">
				<path d="M-1596.9-287.8c0,0,3.9,49.8,29.7,101.6c0,0,70.8,10.2,118.4-47.4C-1448.8-233.6-1529.7-235.1-1596.9-287.8z"/>
				<path d="M-1602.7-341.9c0,0-41.2,28.3-73.1,76.5c0,0,26.6,66.4,100.3,78.8C-1575.4-186.6-1614.6-257.5-1602.7-341.9z"/>
				<path d="M-1557.2-375c0,0-45.1-21.5-102.8-25c0,0-44.2,56.3-18,126.3C-1678-273.7-1636.3-343.1-1557.2-375z"/>
				<path d="M-1506.7-352.8c0,0-4.4-49.8-30.6-101.3c0,0-70.9-9.5-118,48.5C-1655.3-405.6-1574.4-404.8-1506.7-352.8z"/>
				<path d="M-1500.6-297.6c0,0,41-28.5,72.6-76.9c0,0-27-66.2-100.8-78.2C-1528.7-452.8-1489.1-382.1-1500.6-297.6z"/>
				<path d="M-1546.6-265.6c0,0,45,21.7,102.7,25.5c0,0,44.5-56,18.7-126.2C-1425.2-366.3-1467.3-297.1-1546.6-265.6z"/>
				<circle class="st5" cx="-1551.5" cy="-319.9" r="151.4"/>
			</g>
		</g>
		<g>
			<defs>
				
					<rect id="SVGID_17_" x="-1538.4" y="-488.5" transform="matrix(-1 -4.563384e-11 4.563384e-11 -1 -2912.53 -637.9419)" width="164.3" height="339"/>
			</defs>
			<clipPath id="SVGID_18_">
				<use xlink:href="#SVGID_17_"  style="overflow:visible;"/>
			</clipPath>
			<g class="st14">
				<ellipse class="st11" cx="-1538.1" cy="-319.9" rx="150.7" ry="151.4"/>
			</g>
		</g>
	</g>
	<g>
		<g>
			<defs>
				<rect id="SVGID_19_" x="10.3" y="11.4" width="142.2" height="303.4"/>
			</defs>
			<clipPath id="SVGID_20_">
				<use xlink:href="#SVGID_19_"  style="overflow:visible;"/>
			</clipPath>
			<g class="st15">
				<path d="M-86.9,174.7c-8.4,0-16.9,0-25.3,0c-2.7,0-4.3,0.9-4.1,3.9c1.1,17.2,5.9,33.4,14.3,48.4c1,1.7,3.6,3.5,5.5,3.5
					c14.6,0.3,29.2,0.2,43.8,0.1c3.9,0,4.6-1.2,3.5-5.1c-1.3-4.9-2.9-9.7-3.7-14.7c-1.7-10.6-3.1-21.3-4.3-32
					c-0.4-3.2-1.8-4.3-4.9-4.3C-70.3,174.8-78.6,174.7-86.9,174.7z M-87.3,163.2c8,0,16-0.2,24.1,0.1c4.1,0.1,5.9-1.2,6.1-5.4
					c0.8-15.3,3.4-30.3,7.7-45.1c1.4-4.9,0.9-5.7-4.3-5.8c-13.6,0-27.3,0.1-40.9-0.1c-4.3-0.1-6.7,1.4-8.5,5.3
					c-6.9,14.4-12.1,29.3-12.9,45.5c-0.3,5.1-0.1,5.5,5.1,5.5C-103,163.2-95.1,163.2-87.3,163.2z M-21.3,163.2
					c7.6,0,15.2-0.1,22.8,0c3.7,0.1,5.4-1.1,5.4-5.1c-0.1-15.2,0-30.3-0.1-45.5c0-4.7-1-5.6-5.8-5.6c-11.4,0-22.8,0.1-34.1-0.1
					c-3.9-0.1-5.9,1.5-7,5.1c-4.6,15-7.6,30.4-8.7,46.1c-0.2,3.7,1.2,5.1,4.8,5C-36.4,163.1-28.9,163.2-21.3,163.2z M-20.9,174.7
					c-7.9,0-15.8,0.1-23.6,0c-3.3,0-4.5,1.5-4.3,4.7c1,16,4.1,31.6,9,46.9c1,3.1,2.8,4.5,6.2,4.5c11.7-0.1,23.3-0.1,35,0
					c3.9,0,5.6-1.6,5.6-5.5c-0.1-15.2-0.1-30.4,0-45.6c0-3.6-1.3-5.1-5-5C-5.7,174.8-13.3,174.7-20.9,174.7z M-10.1,293.8
					c-1.5-2.5-2.2-3.8-3.1-5c-11-13.4-20.9-27.5-28.4-43.2c-1.4-3.1-3.5-4.1-6.6-4.1c-12.7,0-25.3,0-38,0.1c-1.5,0-3,1-4.5,1.5
					c0.6,1.3,1,2.9,1.8,4c19.1,24.2,43.6,39.7,73.8,46.3C-13.9,293.8-12.7,293.7-10.1,293.8z M-10.7,45.5c-0.3-0.6-0.6-1.3-0.9-1.9
					c-4.7,0.9-9.4,1.5-14,2.7c-26.7,7-46.8,23.6-63.5,44.8c-0.7,0.9-1,2.2-1.5,3.3c1.3,0.4,2.5,1.3,3.8,1.3
					c12.4,0.1,24.7,0.2,37.1-0.1c1.7,0,4.1-1.4,4.8-2.9c7.8-14.9,18.1-28,29-40.8C-14.1,49.8-12.4,47.6-10.7,45.5z M6.8,268.2
					C6.8,268.2,6.8,268.2,6.8,268.2c0-7.2-0.1-14.3,0-21.5c0-3.2-1.1-5.1-4.6-5.1c-10.3,0-20.5-0.1-30.8,0c-3.5,0-4.5,1.7-3.2,5
					c0.8,2.1,1.9,4,3,6c7.3,14.5,15.9,28.1,28.9,38.3c1.5,1.2,3.6,1.7,5.4,2.6c0.4-1.8,1.2-3.7,1.2-5.5
					C6.9,281.4,6.8,274.8,6.8,268.2z M6.8,70.2c0-7.4,0.1-14.9-0.1-22.3c0-1.1-0.5-2.8-1.3-3.2c-0.6-0.4-2.4,0.3-3.2,1
					c-14.2,13.3-27.2,27.6-36.2,45c-2.1,4.1-1.6,5,2.8,5c11,0.1,21.9-0.1,32.9,0.1c3.9,0,5.2-1.7,5.1-5.4
					C6.7,83.7,6.8,76.9,6.8,70.2z"/>
			</g>
		</g>
		<g>
			<defs>
				<rect id="SVGID_21_" x="-167.6" y="0.9" width="167.1" height="339"/>
			</defs>
			<clipPath id="SVGID_22_">
				<use xlink:href="#SVGID_21_"  style="overflow:visible;"/>
			</clipPath>
			<g class="st16">
				<path d="M48.1,191.4c0,0,41-28.5,72.6-76.9c0,0-27-66.2-100.8-78.2C19.9,36.3,59.6,106.9,48.1,191.4z"/>
				<path d="M2.1,223.4c0,0,45,21.7,102.7,25.5c0,0,44.5-56,18.7-126.2C123.4,122.7,81.3,191.9,2.1,223.4z"/>
			</g>
		</g>
		<g>
			<defs>
				<line id="SVGID_23_" x1="10.2" y1="0.6" x2="10.2" y2="11.4"/>
			</defs>
			<defs>
				<polyline id="SVGID_24_" points="10.2,11.4 10.2,339.6 174.6,339.6 174.6,0.6 				"/>
			</defs>
			<clipPath id="SVGID_25_">
				<use xlink:href="#SVGID_23_"  style="overflow:visible;"/>
			</clipPath>
			<clipPath id="SVGID_26_" class="st17">
				<use xlink:href="#SVGID_24_"  style="overflow:visible;"/>
			</clipPath>
			<g class="st18">
				<path class="st11" d="M5.2,320.4c35.4,1.3,71.5-9.9,101-34.3C170.5,233,179.8,137.6,127,73C95.9,35.1,50.3,16.2,4.9,17.9"/>
				<path class="st11" d="M4.9,17.9c-31.8,1.2-63.5,12.5-89.9,34.3c-64.3,53.1-73.6,148.4-20.8,213c28.5,34.9,69.4,53.7,111,55.2"/>
			</g>
		</g>
	</g>
	<g>
		<g>
			<defs>
				<rect id="SVGID_27_" x="171.7" y="-477.7" width="142.2" height="303.4"/>
			</defs>
			<clipPath id="SVGID_28_">
				<use xlink:href="#SVGID_27_"  style="overflow:visible;"/>
			</clipPath>
		</g>
		<g>
			<defs>
				<rect id="SVGID_29_" x="-6.2" y="-488.2" width="167.1" height="339"/>
			</defs>
			<clipPath id="SVGID_30_">
				<use xlink:href="#SVGID_29_"  style="overflow:visible;"/>
			</clipPath>
			<g class="st19">
				<path d="M209.5-297.6c0,0,41-28.5,72.6-76.9c0,0-27-66.2-100.8-78.2C181.3-452.8,221-382.1,209.5-297.6z"/>
				<path d="M163.5-265.6c0,0,45,21.7,102.7,25.5c0,0,44.5-56,18.7-126.2C284.8-366.3,242.7-297.1,163.5-265.6z"/>
				<path class="st5" d="M165.4-471.1c31.5,1.4,62.9,12.7,89.2,34.3c64.6,53.1,73.9,148.4,20.9,213c-28.4,34.6-68.9,53.3-110.4,55.1
					"/>
			</g>
		</g>
		<g>
			<defs>
				
					<rect id="SVGID_31_" x="171.6" y="-488.5" transform="matrix(-1 -4.563384e-11 4.563384e-11 -1 507.6028 -637.9419)" width="164.3" height="339"/>
			</defs>
			<clipPath id="SVGID_32_">
				<use xlink:href="#SVGID_31_"  style="overflow:visible;"/>
			</clipPath>
			<g class="st20">
				<path class="st7" d="M165.4-471.1c-31.5,1.4-62.9,12.6-89.1,34.3C12-383.8,2.7-288.4,55.6-223.8c28.8,35.2,70.1,54,112.2,55.2"
					/>
			</g>
		</g>
	</g>
	<g>
		<g>
			<defs>
				<polyline id="SVGID_33_" points="171.7,-477.7 313.9,-477.7 313.9,-174.3 171.7,-174.3 				"/>
			</defs>
			<clipPath id="SVGID_34_">
				<use xlink:href="#SVGID_33_"  style="overflow:visible;"/>
			</clipPath>
			<g class="st21">
				<path d="M74.5-314.3c-8.4,0-16.9,0-25.3,0c-2.7,0-4.3,0.9-4.1,3.9c1.1,17.2,5.9,33.4,14.3,48.4c1,1.7,3.6,3.5,5.5,3.5
					c14.6,0.3,29.2,0.2,43.8,0.1c3.9,0,4.6-1.2,3.5-5.1c-1.3-4.9-2.9-9.7-3.7-14.7c-1.7-10.6-3.1-21.3-4.3-32
					c-0.4-3.2-1.8-4.3-4.9-4.3C91.1-314.3,82.8-314.3,74.5-314.3z M74.2-325.8c8,0,16-0.2,24.1,0.1c4.1,0.1,5.9-1.2,6.1-5.4
					c0.8-15.3,3.4-30.3,7.7-45.1c1.4-4.9,0.9-5.7-4.3-5.8c-13.6,0-27.3,0.1-40.9-0.1c-4.3-0.1-6.7,1.4-8.5,5.3
					c-6.9,14.4-12.1,29.3-12.9,45.5c-0.3,5.1-0.1,5.5,5.1,5.5C58.4-325.8,66.3-325.8,74.2-325.8z M140.1-325.8
					c7.6,0,15.2-0.1,22.8,0c3.7,0.1,5.4-1.1,5.4-5.1c-0.1-15.2,0-30.3-0.1-45.5c0-4.7-1-5.6-5.8-5.6c-11.4,0-22.8,0.1-34.1-0.1
					c-3.9-0.1-5.9,1.5-7,5.1c-4.6,15-7.6,30.4-8.7,46.1c-0.2,3.7,1.2,5.1,4.8,5C125-325.9,132.5-325.8,140.1-325.8z M140.5-314.3
					c-7.9,0-15.8,0.1-23.6,0c-3.3,0-4.5,1.5-4.3,4.7c1,16,4.1,31.6,9,46.9c1,3.1,2.8,4.5,6.2,4.5c11.7-0.1,23.3-0.1,35,0
					c3.9,0,5.6-1.6,5.6-5.5c-0.1-15.2-0.1-30.4,0-45.6c0-3.6-1.3-5.1-5-5C155.7-314.2,148.1-314.3,140.5-314.3z M151.3-195.2
					c-1.5-2.5-2.2-3.8-3.1-5c-11-13.4-20.9-27.5-28.4-43.2c-1.4-3.1-3.5-4.1-6.6-4.1c-12.7,0-25.3,0-38,0.1c-1.5,0-3,1-4.5,1.5
					c0.6,1.3,1,2.9,1.8,4c19.1,24.2,43.6,39.7,73.8,46.3C147.5-195.3,148.7-195.4,151.3-195.2z M150.7-443.6
					c-0.3-0.6-0.6-1.3-0.9-1.9c-4.7,0.9-9.4,1.5-14,2.7c-26.7,7-46.8,23.6-63.5,44.8c-0.7,0.9-1,2.2-1.5,3.3
					c1.3,0.4,2.5,1.3,3.8,1.3c12.4,0.1,24.7,0.2,37.1-0.1c1.7,0,4.1-1.4,4.8-2.9c7.8-14.9,18.1-28,29-40.8
					C147.3-439.2,149-441.4,150.7-443.6z M168.2-220.8C168.2-220.8,168.2-220.8,168.2-220.8c0-7.2-0.1-14.3,0-21.5
					c0-3.2-1.1-5.1-4.6-5.1c-10.3,0-20.5-0.1-30.8,0c-3.5,0-4.5,1.7-3.2,5c0.8,2.1,1.9,4,3,6c7.3,14.5,15.9,28.1,28.9,38.3
					c1.5,1.2,3.6,1.7,5.4,2.6c0.4-1.8,1.2-3.7,1.2-5.5C168.3-207.6,168.2-214.2,168.2-220.8z M168.2-418.9c0-7.4,0.1-14.9-0.1-22.3
					c0-1.1-0.5-2.8-1.3-3.2c-0.6-0.4-2.4,0.3-3.2,1c-14.2,13.3-27.2,27.6-36.2,45c-2.1,4.1-1.6,5,2.8,5c11,0.1,21.9-0.1,32.9,0.1
					c3.9,0,5.2-1.7,5.1-5.4C168.1-405.4,168.2-412.1,168.2-418.9z"/>
			</g>
		</g>
		<g>
			<defs>
				<rect id="SVGID_35_" x="-6.2" y="-488.2" width="167.1" height="339"/>
			</defs>
			<clipPath id="SVGID_36_">
				<use xlink:href="#SVGID_35_"  style="overflow:visible;"/>
			</clipPath>
			<g class="st22">
				<path class="st3" d="M113.2-287.8c0,0,3.9,49.8,29.7,101.6c0,0,70.8,10.2,118.4-47.4C261.3-233.6,180.3-235.1,113.2-287.8z"/>
				<path class="st3" d="M107.4-341.9c0,0-41.2,28.3-73.1,76.5c0,0,26.6,66.4,100.3,78.8C134.7-186.6,95.5-257.5,107.4-341.9z"/>
				<path class="st3" d="M152.9-375c0,0-45.1-21.5-102.8-25c0,0-44.2,56.3-18,126.3C32.1-273.7,73.8-343.1,152.9-375z"/>
				<path class="st3" d="M203.3-352.8c0,0-4.4-49.8-30.6-101.3c0,0-70.9-9.5-118,48.5C54.7-405.6,135.7-404.8,203.3-352.8z"/>
				<path d="M209.5-297.6c0,0,41-28.5,72.6-76.9c0,0-27-66.2-100.8-78.2C181.3-452.8,221-382.1,209.5-297.6z"/>
				<path d="M163.5-265.6c0,0,45,21.7,102.7,25.5c0,0,44.5-56,18.7-126.2C284.8-366.3,242.7-297.1,163.5-265.6z"/>
				<path class="st23" d="M165.6-168.7c-36.1,1.7-73-9.5-103.1-34.2C-2.1-256-11.4-351.4,41.6-416c31.5-38.3,77.8-57.2,123.8-55.1"
					/>
				<path class="st23" d="M165.4-471.1c31.6,1.4,62.9,12.7,89.2,34.3c64.6,53.1,73.9,148.4,20.9,213
					c-28.3,34.5-68.6,53.2-109.9,55.1"/>
			</g>
		</g>
		<g>
			<defs>
				<line id="SVGID_37_" x1="171.6" y1="-488.5" x2="171.6" y2="-477.7"/>
			</defs>
			<clipPath id="SVGID_38_">
				<use xlink:href="#SVGID_37_"  style="overflow:visible;"/>
			</clipPath>
			<g class="st24">
				<path class="st11" d="M166.6-168.7c35.4,1.3,71.5-9.9,101-34.3c64.3-53.1,73.6-148.4,20.8-213c-31.1-38-76.7-56.9-122.1-55.2"/>
				<path class="st11" d="M166.3-471.2c-31.8,1.2-63.5,12.5-89.9,34.3C12-383.8,2.7-288.4,55.6-223.8c28.5,34.9,69.4,53.7,111,55.2"
					/>
			</g>
		</g>
	</g>
</g>
<g id="Calque_2">
	<g>
		
			<rect x="-2429" y="-527.7" transform="matrix(-1 -4.487223e-11 4.487223e-11 -1 -4670.7363 -671.3607)" class="st25" width="187.2" height="384"/>
		<g>
			<path d="M-2470.2-295c0,0,4.1,52.2,31.1,106.3c0,0,74.1,10.7,124-49.7C-2315.1-238.3-2399.9-239.9-2470.2-295z"/>
			<path d="M-2476.2-351.7c0,0-43.1,29.6-76.5,80.1c0,0,27.9,69.5,105.1,82.5C-2447.7-189.1-2488.8-263.3-2476.2-351.7z"/>
			<path d="M-2428.6-386.3c0,0-47.2-22.5-107.7-26.2c0,0-46.2,58.9-18.9,132.3C-2555.1-280.3-2511.4-352.9-2428.6-386.3z"/>
			<path d="M-2375.8-363.1c0,0-4.6-52.1-32-106.1c0,0-74.2-10-123.6,50.8C-2531.4-418.4-2446.6-417.6-2375.8-363.1z"/>
			<path d="M-2369.3-305.3c0,0,42.9-29.9,76-80.6c0,0-28.3-69.4-105.5-81.9C-2398.8-467.8-2357.3-393.8-2369.3-305.3z"/>
			<path d="M-2417.5-271.8c0,0,47.1,22.7,107.5,26.7c0,0,46.5-58.7,19.6-132.2C-2290.4-377.3-2334.5-304.8-2417.5-271.8z"/>
			<circle class="st1" cx="-2422.7" cy="-328.7" r="158.5"/>
		</g>
	</g>
</g>
</svg>
