<?xml version="1.0" encoding="utf-8"?>
<!-- Generator: Adobe Illustrator 22.0.1, SVG Export Plug-In . SVG Version: 6.00 Build 0)  -->
<svg version="1.1" xmlns="http://www.w3.org/2000/svg" xmlns:xlink="http://www.w3.org/1999/xlink" x="0px" y="0px"
	 viewBox="0 0 336 341.6" style="enable-background:new 0 0 336 341.6;" xml:space="preserve">
<style type="text/css">
	.st0{fill:none;stroke:#000000;stroke-width:13.6048;stroke-miterlimit:10;}
	.st1{clip-path:url(#SVGID_2_);}
	.st2{fill:#00FF00;}
	.st3{clip-path:url(#SVGID_4_);}
	.st4{fill:none;stroke:#000000;stroke-width:12.9916;stroke-miterlimit:10;}
	.st5{clip-path:url(#SVGID_6_);}
	.st6{fill:none;stroke:#00FF00;stroke-width:13;stroke-miterlimit:10;}
	.st7{clip-path:url(#SVGID_8_);}
	.st8{clip-path:url(#SVGID_10_);}
	.st9{clip-path:url(#SVGID_12_);}
	.st10{fill:none;stroke:#000000;stroke-width:13;stroke-miterlimit:10;}
	.st11{clip-path:url(#SVGID_14_);}
	.st12{clip-path:url(#SVGID_16_);}
	.st13{fill:none;stroke:#00FF00;stroke-width:12.9916;stroke-miterlimit:10;}
	.st14{clip-path:url(#SVGID_19_);}
	.st15{clip-path:url(#SVGID_20_);}
	.st16{fill:none;}
</style>
<g id="Calque_1">
	<g>
		<path d="M-3217.4,20.3c78.6-0.2,140.5,61,140.7,140c0.2,79.1-63.4,139.5-139.2,140.1c-77.6,0.6-141.3-62.8-140.8-139.7
			C-3357.3,84.3-3296.3,20.5-3217.4,20.3z M-3142.4,166.4c-3.2,0-4.7,1.1-5.1,4.4c-1.3,11.1-2.7,22.3-4.5,33.3
			c-0.8,5.2-2.5,10.2-3.9,15.3c-1.1,4.1-0.4,5.3,3.7,5.3c15.2,0.1,30.4,0.2,45.7-0.1c2,0,4.7-1.9,5.7-3.7
			c8.7-15.7,13.7-32.5,14.9-50.4c0.2-3.2-1.4-4.1-4.2-4.1c-8.8,0.1-17.6,0-26.3,0C-3125.2,166.5-3133.8,166.6-3142.4,166.4z
			 M-3091.6,154.5c5.5,0,5.6-0.4,5.4-5.8c-0.9-16.8-6.3-32.3-13.5-47.3c-1.9-4-4.4-5.6-8.8-5.5c-14.2,0.2-28.4,0.1-42.6,0.1
			c-5.3,0-6,0.9-4.5,6c4.5,15.3,7.2,31,8,46.9c0.2,4.3,2.1,5.8,6.3,5.6c8.3-0.3,16.7-0.1,25.1-0.1
			C-3108,154.5-3099.8,154.5-3091.6,154.5z M-3284.3,224.8c4.5-0.1,5.2-1.1,3.9-5.3c-4.8-15.7-7.9-31.7-8.4-48.1
			c-0.1-3.6-1.6-4.9-5.1-4.9c-16.4,0.1-32.8,0.1-49.2,0c-3.4,0-4.7,1.1-4.5,4.6c1,18,6.5,34.7,15.1,50.3c0.9,1.7,3.9,3.1,6,3.3
			c7,0.4,14,0.2,21.1,0.2C-3298.3,224.8-3291.3,224.9-3284.3,224.8z M-3294.2,154.6c3.6,0.1,5.4-1.1,5.4-5c0.4-16,3.5-31.6,8-46.9
			c1.6-5.5,0.9-6.6-4.7-6.6c-13.5,0-27,0-40.4,0c-3.1,0-5.4,0.8-6.8,3.7c-8,15.7-13.7,31.9-14.6,49.7c-0.2,3.8,1,5.3,4.9,5.2
			c8.1-0.2,16.1-0.1,24.2-0.1C-3310.4,154.5-3302.3,154.4-3294.2,154.6z M-3161.2,154.6c3.8,0.1,5.3-1.4,5-5.2
			c-1.1-16.4-4.2-32.3-9.1-48c-1.2-3.8-3.2-5.4-7.3-5.3c-11.8,0.2-23.7,0-35.6,0.1c-5,0-6,1-6.1,5.8c-0.1,15.8,0.1,31.6-0.1,47.4
			c0,4.1,1.7,5.4,5.6,5.3c7.9-0.2,15.8-0.1,23.7-0.1C-3177,154.5-3169.1,154.4-3161.2,154.6z M-3209,166.4c-3.8-0.1-5.2,1.5-5.2,5.2
			c0.1,15.8,0.1,31.6,0,47.5c0,4.1,1.7,5.8,5.8,5.8c12.2-0.1,24.3-0.1,36.5,0c3.5,0,5.4-1.4,6.4-4.7c5.1-15.9,8.3-32.2,9.3-48.9
			c0.2-3.3-1-4.9-4.5-4.9c-8.2,0.1-16.4,0-24.6,0C-3193.2,166.5-3201.1,166.6-3209,166.4z M-3222.8,100.9c0.1-3.6-1.4-4.9-4.9-4.9
			c-12.3,0.1-24.6,0.1-36.9,0c-3.3,0-5.4,1.1-6.1,4.4c-2.7,11.5-5.4,22.9-7.8,34.4c-1,5-1.2,10.1-1.7,15.2c-0.3,3.1,1.1,4.5,4.3,4.5
			c16.2-0.1,32.5-0.1,48.7,0c3.3,0,4.4-1.4,4.3-4.5c-0.1-8.3,0-16.7,0-25C-3222.8,117-3222.9,109-3222.8,100.9z M-3222.8,171
			c0.1-3.4-1.3-4.6-4.7-4.6c-15.9,0.1-31.9,0.1-47.8,0c-4,0-5.4,1.7-4.9,5.3c1.9,12.4,3.8,24.7,6,37c0.7,4,2.4,7.8,3.4,11.7
			c0.8,3,2.7,4.3,5.8,4.3c12.6,0,25.2,0,37.7,0c3.2,0,4.4-1.5,4.4-4.6c-0.1-8.3,0-16.7,0-25C-3222.8,187.1-3222.9,179.1-3222.8,171z
			 M-3191.4,290.2c31.4-6.9,57-23,76.8-48.3c0.9-1.2,1.3-2.8,1.9-4.2c-1.5-0.6-3.1-1.6-4.6-1.6c-13.2-0.1-26.4,0-39.6-0.1
			c-3.2,0-5.4,1-6.9,4.2c-7.8,16.4-18.1,31.1-29.5,45c-1,1.2-1.6,2.6-3.2,5.2C-3193.8,290.4-3192.6,290.5-3191.4,290.2z
			 M-3279.1,84.3c3.2,0.1,5.2-1,6.6-3.9c7.9-16.5,18.2-31.3,29.8-45.4c0.8-1,1.1-2.5,1.6-3.7c-1.3-0.2-2.8-0.7-4-0.4
			c-14.8,3.4-28.9,8.5-41.9,16.2c-13.6,8-24.4,19.1-32.8,32.3c-2.2,3.4-1.4,4.8,2.6,4.8c6.6,0.1,13.2,0,19.8,0
			C-3291.4,84.2-3285.3,84.1-3279.1,84.3z M-3190.5,38.6c11.3,13.3,22,26.9,30.2,42.5c0.8,1.5,3.3,3,5,3c12.9,0.3,25.8,0.2,38.7,0.1
			c1.3,0,2.6-0.9,3.9-1.3c-0.5-1.2-0.8-2.5-1.5-3.5c-17.4-22.1-38.3-39.4-66.2-46.7c-4.8-1.3-9.7-1.9-14.6-2.8
			c-0.3,0.7-0.6,1.3-0.9,2C-3194.1,34.1-3192.4,36.4-3190.5,38.6z M-3245.8,285.6c-10.7-13.8-19.5-28.8-26.7-44.7
			c-1.6-3.5-3.8-5-7.7-4.9c-11.8,0.2-23.7,0-35.6,0.1c-1.7,0-3.5,0.9-5.2,1.4c0.8,1.6,1.3,3.5,2.3,4.9
			c10.5,13.9,22.4,26.2,37.8,34.7c10.7,5.9,21.9,10.2,33.8,13c0.9,0.2,1.9,0,3.7,0C-3244.3,288.2-3244.8,286.7-3245.8,285.6z
			 M-3214.1,284.5c0,1.9,0.8,3.8,1.3,5.7c1.9-0.9,4-1.4,5.6-2.7c13.5-10.6,22.5-24.7,30.1-39.9c1-2.1,2.2-4.1,3.1-6.3
			c1.4-3.4,0.3-5.1-3.3-5.2c-10.7-0.1-21.4,0-32,0c-3.6,0-4.8,2-4.8,5.3c0.1,7.5,0,14.9,0,22.4c0,0,0,0,0,0
			C-3214.1,270.7-3214.2,277.6-3214.1,284.5z M-3214.2,78.7c-0.1,3.8,1.2,5.6,5.3,5.6c11.4-0.1,22.8,0,34.2-0.1c4.6,0,5.1-1,2.9-5.3
			c-9.4-18.2-22.9-33.1-37.7-46.9c-0.8-0.8-2.7-1.5-3.3-1.1c-0.8,0.5-1.3,2.2-1.3,3.4c-0.1,7.8-0.1,15.5-0.1,23.3
			C-3214.1,64.6-3214,71.7-3214.2,78.7z M-3222.8,286c0-14.8-0.1-29.6,0.1-44.3c0.1-4.2-1.5-5.7-5.6-5.6c-9.9,0.2-19.9,0-29.8,0.1
			c-5.2,0-5.7,0.8-3.8,5.5c7.4,17.9,17.2,34.2,32.9,46.2c1,0.8,2.1,1.6,3.2,2.2c0.5,0.3,1.1,0.3,2.5,0.6
			C-3223.1,288.8-3222.8,287.4-3222.8,286z M-3227.9,33c-13.5,13.5-23.3,29.5-31.5,46.6c-1.6,3.3-0.3,4.6,3.1,4.6
			c9.8,0,19.6,0,29.4,0c2.6,0,4.1-0.8,4.1-3.8c-0.1-15.7,0-31.3-0.1-47c0-0.9-0.5-1.9-1-3.5C-3225.5,31.2-3226.9,31.9-3227.9,33z"/>
	</g>
	<circle class="st0" cx="-3216.7" cy="160.4" r="158.5"/>
	<text transform="matrix(1 0 0 1 -3459.6479 385.0356)"><tspan x="0" y="0" style="font-family:'FalconPunch'; font-size:55px; letter-spacing:-5;">&lt; </tspan><tspan x="39.4" y="0" style="font-family:'FalconPunch'; font-size:55px;">web squad</tspan><tspan x="434.4" y="0" style="font-family:'FalconPunch'; font-size:55px; letter-spacing:-5;"> &gt;</tspan></text>
	<rect x="-2657.7" y="336.9" class="st16" width="638" height="112.5"/>
	<text transform="matrix(1 0 0 1 -2597.8179 383.2241)" style="font-family:'FalconPunch'; font-size:55px;">Visual league</text>
	<g>
		<g>
			<defs>
				<rect id="SVGID_1_" x="171.8" y="11.4" width="142.2" height="303.4"/>
			</defs>
			<clipPath id="SVGID_2_">
				<use xlink:href="#SVGID_1_"  style="overflow:visible;"/>
			</clipPath>
			<g class="st1">
				<path class="st2" d="M305.2,169.2c0.6,73.9-60.7,134.8-135.2,134.2c-72.8-0.6-133.9-58.6-133.7-134.5
					C36.6,92.9,95.9,34.2,171.4,34.4C247.2,34.5,305.8,95.8,305.2,169.2z M74.6,174.7c-8.4,0-16.9,0-25.3,0c-2.7,0-4.3,0.9-4.1,3.9
					c1.1,17.2,5.9,33.4,14.3,48.4c1,1.7,3.6,3.5,5.5,3.5c14.6,0.3,29.2,0.2,43.8,0.1c3.9,0,4.6-1.2,3.5-5.1
					c-1.3-4.9-2.9-9.7-3.7-14.7c-1.7-10.6-3.1-21.3-4.3-32c-0.4-3.2-1.8-4.3-4.9-4.3C91.2,174.8,82.9,174.7,74.6,174.7z M74.3,163.2
					c8,0,16-0.2,24.1,0.1c4.1,0.1,5.9-1.2,6.1-5.4c0.8-15.3,3.4-30.3,7.7-45.1c1.4-4.9,0.9-5.7-4.3-5.8c-13.6,0-27.3,0.1-40.9-0.1
					c-4.3-0.1-6.7,1.4-8.5,5.3c-6.9,14.4-12.1,29.3-12.9,45.5c-0.3,5.1-0.1,5.5,5.1,5.5C58.5,163.2,66.4,163.2,74.3,163.2z
					 M255.9,230.7c6.7,0,13.5,0.2,20.2-0.1c2-0.1,4.8-1.5,5.7-3.1c8.3-15,13.6-31,14.5-48.3c0.2-3.4-1-4.5-4.3-4.4
					c-15.7,0.1-31.5,0.1-47.2,0c-3.4,0-4.8,1.2-4.9,4.7c-0.5,15.8-3.4,31.1-8.1,46.2c-1.3,4.1-0.6,5.1,3.7,5.1
					C242.4,230.8,249.1,230.7,255.9,230.7z M268.4,163.2c7.7,0,15.5-0.1,23.2,0.1c3.8,0.1,4.9-1.3,4.7-5c-0.9-17-6.4-32.7-14.1-47.7
					c-1.4-2.8-3.6-3.6-6.6-3.6c-12.9,0.1-25.9,0-38.8,0c-5.4,0-6.1,1-4.6,6.4c4.3,14.7,7.3,29.7,7.7,45c0.1,3.8,1.8,4.8,5.2,4.8
					C253,163.1,260.7,163.2,268.4,163.2z M140.2,163.2c7.6,0,15.2-0.1,22.8,0c3.7,0.1,5.4-1.1,5.4-5.1c-0.1-15.2,0-30.3-0.1-45.5
					c0-4.7-1-5.6-5.8-5.6c-11.4,0-22.8,0.1-34.1-0.1c-3.9-0.1-5.9,1.5-7,5.1c-4.6,15-7.6,30.4-8.7,46.1c-0.2,3.7,1.2,5.1,4.8,5
					C125.1,163.1,132.7,163.2,140.2,163.2z M140.6,174.7c-7.9,0-15.8,0.1-23.6,0c-3.3,0-4.5,1.5-4.3,4.7c1,16,4.1,31.6,9,46.9
					c1,3.1,2.8,4.5,6.2,4.5c11.7-0.1,23.3-0.1,35,0c3.9,0,5.6-1.6,5.6-5.5c-0.1-15.2-0.1-30.4,0-45.6c0-3.6-1.3-5.1-5-5
					C155.8,174.8,148.2,174.7,140.6,174.7z M176.6,134.9c0,8,0.1,16,0,24c0,3,1,4.3,4.2,4.3c15.6-0.1,31.2-0.1,46.8,0
					c3.1,0,4.4-1.4,4.2-4.4c-0.5-4.9-0.6-9.8-1.6-14.6c-2.3-11.1-4.9-22-7.5-33.1c-0.7-3.1-2.8-4.2-5.9-4.2
					c-11.8,0.1-23.6,0.1-35.4,0c-3.4,0-4.8,1.2-4.7,4.7C176.7,119.5,176.6,127.2,176.6,134.9z M176.6,202.3c0,8,0.1,16,0,24
					c0,3,1.1,4.4,4.2,4.4c12.1,0,24.2,0,36.2,0c2.9,0,4.7-1.2,5.5-4.1c1-3.8,2.6-7.4,3.3-11.3c2.1-11.8,4-23.7,5.8-35.5
					c0.5-3.4-0.9-5.1-4.7-5.1c-15.3,0.1-30.6,0.1-45.9,0c-3.2,0-4.6,1.1-4.5,4.4C176.7,186.8,176.6,194.5,176.6,202.3z M151.4,293.8
					c-1.5-2.5-2.2-3.8-3.1-5c-11-13.4-20.9-27.5-28.4-43.2c-1.4-3.1-3.5-4.1-6.6-4.1c-12.7,0-25.3,0-38,0.1c-1.5,0-3,1-4.5,1.5
					c0.6,1.3,1,2.9,1.8,4c19.1,24.2,43.6,39.7,73.8,46.3C147.6,293.8,148.8,293.7,151.4,293.8z M248.4,95.7c6.3,0,12.7,0.1,19,0
					c3.9-0.1,4.6-1.4,2.5-4.6c-8.1-12.8-18.4-23.3-31.5-31c-12.6-7.4-26.1-12.3-40.3-15.5c-1.2-0.3-2.6,0.2-3.9,0.4
					c0.5,1.2,0.8,2.6,1.6,3.6c11.1,13.5,21,27.8,28.6,43.6c1.3,2.8,3.2,3.9,6.3,3.8C236.6,95.6,242.5,95.7,248.4,95.7z M150.8,45.5
					c-0.3-0.6-0.6-1.3-0.9-1.9c-4.7,0.9-9.4,1.5-14,2.7c-26.7,7-46.8,23.6-63.5,44.8c-0.7,0.9-1,2.2-1.5,3.3
					c1.3,0.4,2.5,1.3,3.8,1.3c12.4,0.1,24.7,0.2,37.1-0.1c1.7,0,4.1-1.4,4.8-2.9c7.8-14.9,18.1-28,29-40.8
					C147.4,49.8,149.1,47.6,150.8,45.5z M196.3,293.5c1.8,0,2.7,0.2,3.6,0c11.4-2.7,22.2-6.8,32.5-12.5c14.8-8.2,26.3-20,36.3-33.4
					c1-1.4,1.5-3.1,2.2-4.7c-1.7-0.5-3.3-1.3-5-1.3c-11.4-0.1-22.8,0.1-34.1-0.1c-3.8-0.1-5.9,1.3-7.4,4.7
					c-6.9,15.3-15.3,29.6-25.6,42.9C197.8,290.2,197.3,291.6,196.3,293.5z M168.3,268.2C168.3,268.2,168.3,268.2,168.3,268.2
					c0-7.2-0.1-14.3,0-21.5c0-3.2-1.1-5.1-4.6-5.1c-10.3,0-20.5-0.1-30.8,0c-3.5,0-4.5,1.7-3.2,5c0.8,2.1,1.9,4,3,6
					c7.3,14.5,15.9,28.1,28.9,38.3c1.5,1.2,3.6,1.7,5.4,2.6c0.4-1.8,1.2-3.7,1.2-5.5C168.4,281.4,168.3,274.8,168.3,268.2z
					 M168.3,70.2c0-7.4,0.1-14.9-0.1-22.3c0-1.1-0.5-2.8-1.3-3.2c-0.6-0.4-2.4,0.3-3.2,1c-14.2,13.3-27.2,27.6-36.2,45
					c-2.1,4.1-1.6,5,2.8,5c11,0.1,21.9-0.1,32.9,0.1c3.9,0,5.2-1.7,5.1-5.4C168.2,83.7,168.3,76.9,168.3,70.2z M177.1,294
					c1.3-0.3,1.9-0.3,2.4-0.6c1.1-0.6,2.1-1.4,3.1-2.1c15.1-11.5,24.5-27.1,31.6-44.3c1.9-4.5,1.4-5.3-3.6-5.3
					c-9.6-0.1-19.1,0.1-28.7-0.1c-4-0.1-5.5,1.4-5.4,5.4c0.2,14.2,0.1,28.4,0.1,42.6C176.7,290.8,176.9,292.2,177.1,294z
					 M177.6,43.6c-0.5,1.6-0.9,2.5-0.9,3.4c0,15,0,30.1-0.1,45.1c0,2.8,1.5,3.6,4,3.6c9.4,0,18.8,0,28.2,0c3.2,0,4.5-1.3,3-4.5
					c-7.9-16.4-17.3-31.8-30.3-44.7C180.5,45.5,179.2,44.8,177.6,43.6z"/>
			</g>
		</g>
		<g>
			<defs>
				<rect id="SVGID_3_" x="-6.1" y="0.9" width="167.1" height="339"/>
			</defs>
			<clipPath id="SVGID_4_">
				<use xlink:href="#SVGID_3_"  style="overflow:visible;"/>
			</clipPath>
			<g class="st3">
				<path d="M209.6,191.4c0,0,41-28.5,72.6-76.9c0,0-27-66.2-100.8-78.2C181.4,36.3,221.1,106.9,209.6,191.4z"/>
				<path d="M163.6,223.4c0,0,45,21.7,102.7,25.5c0,0,44.5-56,18.7-126.2C284.9,122.7,242.8,191.9,163.6,223.4z"/>
				<path class="st4" d="M165.5,17.9c31.5,1.4,62.9,12.7,89.2,34.3c64.6,53.1,73.9,148.4,20.9,213c-28.4,34.6-68.9,53.3-110.4,55.1"
					/>
			</g>
		</g>
		<g>
			<defs>
				
					<rect id="SVGID_5_" x="171.8" y="0.6" transform="matrix(-1 -4.564450e-11 4.564450e-11 -1 507.8104 340.1559)" width="164.3" height="339"/>
			</defs>
			<clipPath id="SVGID_6_">
				<use xlink:href="#SVGID_5_"  style="overflow:visible;"/>
			</clipPath>
			<g class="st5">
				<ellipse class="st6" cx="172.1" cy="169.1" rx="150.7" ry="151.4"/>
			</g>
		</g>
	</g>
	<rect x="-1779.7" y="336.9" class="st16" width="638" height="112.5"/>
	<text transform="matrix(1 0 0 1 -1682.3357 383.223)" style="font-family:'FalconPunch'; font-size:55px;">361 DEGREES</text>
	<g>
		<g>
			<defs>
				<rect id="SVGID_7_" x="-1454.4" y="11.4" width="142.2" height="303.4"/>
			</defs>
			<clipPath id="SVGID_8_">
				<use xlink:href="#SVGID_7_"  style="overflow:visible;"/>
			</clipPath>
			<g class="st7">
				<path d="M-1321,169.2c0.6,73.9-60.7,134.8-135.2,134.2c-72.8-0.6-133.9-58.6-133.7-134.5c0.2-75.9,59.6-134.6,135.1-134.4
					C-1379,34.5-1320.4,95.8-1321,169.2z M-1551.6,174.7c-8.4,0-16.9,0-25.3,0c-2.7,0-4.3,0.9-4.1,3.9c1.1,17.2,5.9,33.4,14.3,48.4
					c1,1.7,3.6,3.5,5.5,3.5c14.6,0.3,29.2,0.2,43.8,0.1c3.9,0,4.6-1.2,3.5-5.1c-1.3-4.9-2.9-9.7-3.7-14.7c-1.7-10.6-3.1-21.3-4.3-32
					c-0.4-3.2-1.8-4.3-4.9-4.3C-1535,174.8-1543.3,174.7-1551.6,174.7z M-1551.9,163.2c8,0,16-0.2,24.1,0.1c4.1,0.1,5.9-1.2,6.1-5.4
					c0.8-15.3,3.4-30.3,7.7-45.1c1.4-4.9,0.9-5.7-4.3-5.8c-13.6,0-27.3,0.1-40.9-0.1c-4.3-0.1-6.7,1.4-8.5,5.3
					c-6.9,14.4-12.1,29.3-12.9,45.5c-0.3,5.1-0.1,5.5,5.1,5.5C-1567.7,163.2-1559.8,163.2-1551.9,163.2z M-1370.3,230.7
					c6.7,0,13.5,0.2,20.2-0.1c2-0.1,4.8-1.5,5.7-3.1c8.3-15,13.6-31,14.5-48.3c0.2-3.4-1-4.5-4.3-4.4c-15.7,0.1-31.5,0.1-47.2,0
					c-3.4,0-4.8,1.2-4.9,4.7c-0.5,15.8-3.4,31.1-8.1,46.2c-1.3,4.1-0.6,5.1,3.7,5.1C-1383.8,230.8-1377,230.7-1370.3,230.7z
					 M-1357.7,163.2c7.7,0,15.5-0.1,23.2,0.1c3.8,0.1,4.9-1.3,4.7-5c-0.9-17-6.4-32.7-14.1-47.7c-1.4-2.8-3.6-3.6-6.6-3.6
					c-12.9,0.1-25.9,0-38.8,0c-5.4,0-6.1,1-4.6,6.4c4.3,14.7,7.3,29.7,7.7,45c0.1,3.8,1.8,4.8,5.2,4.8
					C-1373.2,163.1-1365.5,163.2-1357.7,163.2z M-1485.9,163.2c7.6,0,15.2-0.1,22.8,0c3.7,0.1,5.4-1.1,5.4-5.1
					c-0.1-15.2,0-30.3-0.1-45.5c0-4.7-1-5.6-5.8-5.6c-11.4,0-22.8,0.1-34.1-0.1c-3.9-0.1-5.9,1.5-7,5.1c-4.6,15-7.6,30.4-8.7,46.1
					c-0.2,3.7,1.2,5.1,4.8,5C-1501.1,163.1-1493.5,163.2-1485.9,163.2z M-1485.6,174.7c-7.9,0-15.8,0.1-23.6,0
					c-3.3,0-4.5,1.5-4.3,4.7c1,16,4.1,31.6,9,46.9c1,3.1,2.8,4.5,6.2,4.5c11.7-0.1,23.3-0.1,35,0c3.9,0,5.6-1.6,5.6-5.5
					c-0.1-15.2-0.1-30.4,0-45.6c0-3.6-1.3-5.1-5-5C-1470.4,174.8-1478,174.7-1485.6,174.7z M-1449.5,134.9c0,8,0.1,16,0,24
					c0,3,1,4.3,4.2,4.3c15.6-0.1,31.2-0.1,46.8,0c3.1,0,4.4-1.4,4.2-4.4c-0.5-4.9-0.6-9.8-1.6-14.6c-2.3-11.1-4.9-22-7.5-33.1
					c-0.7-3.1-2.8-4.2-5.9-4.2c-11.8,0.1-23.6,0.1-35.4,0c-3.4,0-4.8,1.2-4.7,4.7C-1449.4,119.5-1449.5,127.2-1449.5,134.9z
					 M-1449.5,202.3c0,8,0.1,16,0,24c0,3,1.1,4.4,4.2,4.4c12.1,0,24.2,0,36.2,0c2.9,0,4.7-1.2,5.5-4.1c1-3.8,2.6-7.4,3.3-11.3
					c2.1-11.8,4-23.7,5.8-35.5c0.5-3.4-0.9-5.1-4.7-5.1c-15.3,0.1-30.6,0.1-45.9,0c-3.2,0-4.6,1.1-4.5,4.4
					C-1449.4,186.8-1449.5,194.5-1449.5,202.3z M-1474.8,293.8c-1.5-2.5-2.2-3.8-3.1-5c-11-13.4-20.9-27.5-28.4-43.2
					c-1.4-3.1-3.5-4.1-6.6-4.1c-12.7,0-25.3,0-38,0.1c-1.5,0-3,1-4.5,1.5c0.6,1.3,1,2.9,1.8,4c19.1,24.2,43.6,39.7,73.8,46.3
					C-1478.6,293.8-1477.4,293.7-1474.8,293.8z M-1377.7,95.7c6.3,0,12.7,0.1,19,0c3.9-0.1,4.6-1.4,2.5-4.6
					c-8.1-12.8-18.4-23.3-31.5-31c-12.6-7.4-26.1-12.3-40.3-15.5c-1.2-0.3-2.6,0.2-3.9,0.4c0.5,1.2,0.8,2.6,1.6,3.6
					c11.1,13.5,21,27.8,28.6,43.6c1.3,2.8,3.2,3.9,6.3,3.8C-1389.5,95.6-1383.6,95.7-1377.7,95.7z M-1475.4,45.5
					c-0.3-0.6-0.6-1.3-0.9-1.9c-4.7,0.9-9.4,1.5-14,2.7c-26.7,7-46.8,23.6-63.5,44.8c-0.7,0.9-1,2.2-1.5,3.3
					c1.3,0.4,2.5,1.3,3.8,1.3c12.4,0.1,24.7,0.2,37.1-0.1c1.7,0,4.1-1.4,4.8-2.9c7.8-14.9,18.1-28,29-40.8
					C-1478.8,49.8-1477.1,47.6-1475.4,45.5z M-1429.9,293.5c1.8,0,2.7,0.2,3.6,0c11.4-2.7,22.2-6.8,32.5-12.5
					c14.8-8.2,26.3-20,36.3-33.4c1-1.4,1.5-3.1,2.2-4.7c-1.7-0.5-3.3-1.3-5-1.3c-11.4-0.1-22.8,0.1-34.1-0.1
					c-3.8-0.1-5.9,1.3-7.4,4.7c-6.9,15.3-15.3,29.6-25.6,42.9C-1428.4,290.2-1428.9,291.6-1429.9,293.5z M-1457.9,268.2
					C-1457.9,268.2-1457.9,268.2-1457.9,268.2c0-7.2-0.1-14.3,0-21.5c0-3.2-1.1-5.1-4.6-5.1c-10.3,0-20.5-0.1-30.8,0
					c-3.5,0-4.5,1.7-3.2,5c0.8,2.1,1.9,4,3,6c7.3,14.5,15.9,28.1,28.9,38.3c1.5,1.2,3.6,1.7,5.4,2.6c0.4-1.8,1.2-3.7,1.2-5.5
					C-1457.8,281.4-1457.9,274.8-1457.9,268.2z M-1457.9,70.2c0-7.4,0.1-14.9-0.1-22.3c0-1.1-0.5-2.8-1.3-3.2
					c-0.6-0.4-2.4,0.3-3.2,1c-14.2,13.3-27.2,27.6-36.2,45c-2.1,4.1-1.6,5,2.8,5c11,0.1,21.9-0.1,32.9,0.1c3.9,0,5.2-1.7,5.1-5.4
					C-1458,83.7-1457.9,76.9-1457.9,70.2z M-1449,294c1.3-0.3,1.9-0.3,2.4-0.6c1.1-0.6,2.1-1.4,3.1-2.1
					c15.1-11.5,24.5-27.1,31.6-44.3c1.9-4.5,1.4-5.3-3.6-5.3c-9.6-0.1-19.1,0.1-28.7-0.1c-4-0.1-5.5,1.4-5.4,5.4
					c0.2,14.2,0.1,28.4,0.1,42.6C-1449.5,290.8-1449.2,292.2-1449,294z M-1448.5,43.6c-0.5,1.6-0.9,2.5-0.9,3.4
					c0,15,0,30.1-0.1,45.1c0,2.8,1.5,3.6,4,3.6c9.4,0,18.8,0,28.2,0c3.2,0,4.5-1.3,3-4.5c-7.9-16.4-17.3-31.8-30.3-44.7
					C-1445.6,45.5-1446.9,44.8-1448.5,43.6z"/>
			</g>
		</g>
		<g>
			<defs>
				<rect id="SVGID_9_" x="-1632.2" y="0.9" width="167.1" height="339"/>
			</defs>
			<clipPath id="SVGID_10_">
				<use xlink:href="#SVGID_9_"  style="overflow:visible;"/>
			</clipPath>
			<g class="st8">
				<path d="M-1512.9,201.3c0,0,3.9,49.8,29.7,101.6c0,0,70.8,10.2,118.4-47.4C-1364.7,255.4-1445.7,253.9-1512.9,201.3z"/>
				<path d="M-1518.7,147.1c0,0-41.2,28.3-73.1,76.5c0,0,26.6,66.4,100.3,78.8C-1491.4,302.4-1530.6,231.6-1518.7,147.1z"/>
				<path d="M-1473.2,114.1c0,0-45.1-21.5-102.8-25c0,0-44.2,56.3-18,126.3C-1594,215.4-1552.3,145.9-1473.2,114.1z"/>
				<path d="M-1422.7,136.2c0,0-4.4-49.8-30.6-101.3c0,0-70.9-9.5-118,48.5C-1571.3,83.5-1490.3,84.2-1422.7,136.2z"/>
				<path d="M-1416.6,191.4c0,0,41-28.5,72.6-76.9c0,0-27-66.2-100.8-78.2C-1444.7,36.3-1405.1,106.9-1416.6,191.4z"/>
				<path d="M-1462.6,223.4c0,0,45,21.7,102.7,25.5c0,0,44.5-56,18.7-126.2C-1341.2,122.7-1383.3,191.9-1462.6,223.4z"/>
				<circle class="st4" cx="-1467.5" cy="169.1" r="151.4"/>
			</g>
		</g>
		<g>
			<defs>
				
					<rect id="SVGID_11_" x="-1454.4" y="0.6" transform="matrix(-1 -4.564450e-11 4.564450e-11 -1 -2744.5149 340.1559)" width="164.3" height="339"/>
			</defs>
			<clipPath id="SVGID_12_">
				<use xlink:href="#SVGID_11_"  style="overflow:visible;"/>
			</clipPath>
			<g class="st9">
				<ellipse class="st10" cx="-1454.1" cy="169.1" rx="150.7" ry="151.4"/>
			</g>
		</g>
	</g>
	<g>
		<g>
			<defs>
				<rect id="SVGID_13_" x="171.8" y="11.4" width="142.2" height="303.4"/>
			</defs>
			<clipPath id="SVGID_14_">
				<use xlink:href="#SVGID_13_"  style="overflow:visible;"/>
			</clipPath>
			<g class="st11">
				<path d="M74.6,174.7c-8.4,0-16.9,0-25.3,0c-2.7,0-4.3,0.9-4.1,3.9c1.1,17.2,5.9,33.4,14.3,48.4c1,1.7,3.6,3.5,5.5,3.5
					c14.6,0.3,29.2,0.2,43.8,0.1c3.9,0,4.6-1.2,3.5-5.1c-1.3-4.9-2.9-9.7-3.7-14.7c-1.7-10.6-3.1-21.3-4.3-32
					c-0.4-3.2-1.8-4.3-4.9-4.3C91.2,174.8,82.9,174.7,74.6,174.7z M74.3,163.2c8,0,16-0.2,24.1,0.1c4.1,0.1,5.9-1.2,6.1-5.4
					c0.8-15.3,3.4-30.3,7.7-45.1c1.4-4.9,0.9-5.7-4.3-5.8c-13.6,0-27.3,0.1-40.9-0.1c-4.3-0.1-6.7,1.4-8.5,5.3
					c-6.9,14.4-12.1,29.3-12.9,45.5c-0.3,5.1-0.1,5.5,5.1,5.5C58.5,163.2,66.4,163.2,74.3,163.2z M140.2,163.2
					c7.6,0,15.2-0.1,22.8,0c3.7,0.1,5.4-1.1,5.4-5.1c-0.1-15.2,0-30.3-0.1-45.5c0-4.7-1-5.6-5.8-5.6c-11.4,0-22.8,0.1-34.1-0.1
					c-3.9-0.1-5.9,1.5-7,5.1c-4.6,15-7.6,30.4-8.7,46.1c-0.2,3.7,1.2,5.1,4.8,5C125.1,163.1,132.7,163.2,140.2,163.2z M140.6,174.7
					c-7.9,0-15.8,0.1-23.6,0c-3.3,0-4.5,1.5-4.3,4.7c1,16,4.1,31.6,9,46.9c1,3.1,2.8,4.5,6.2,4.5c11.7-0.1,23.3-0.1,35,0
					c3.9,0,5.6-1.6,5.6-5.5c-0.1-15.2-0.1-30.4,0-45.6c0-3.6-1.3-5.1-5-5C155.8,174.8,148.2,174.7,140.6,174.7z M151.4,293.8
					c-1.5-2.5-2.2-3.8-3.1-5c-11-13.4-20.9-27.5-28.4-43.2c-1.4-3.1-3.5-4.1-6.6-4.1c-12.7,0-25.3,0-38,0.1c-1.5,0-3,1-4.5,1.5
					c0.6,1.3,1,2.9,1.8,4c19.1,24.2,43.6,39.7,73.8,46.3C147.6,293.8,148.8,293.7,151.4,293.8z M150.8,45.5
					c-0.3-0.6-0.6-1.3-0.9-1.9c-4.7,0.9-9.4,1.5-14,2.7c-26.7,7-46.8,23.6-63.5,44.8c-0.7,0.9-1,2.2-1.5,3.3
					c1.3,0.4,2.5,1.3,3.8,1.3c12.4,0.1,24.7,0.2,37.1-0.1c1.7,0,4.1-1.4,4.8-2.9c7.8-14.9,18.1-28,29-40.8
					C147.4,49.8,149.1,47.6,150.8,45.5z M168.3,268.2C168.3,268.2,168.3,268.2,168.3,268.2c0-7.2-0.1-14.3,0-21.5
					c0-3.2-1.1-5.1-4.6-5.1c-10.3,0-20.5-0.1-30.8,0c-3.5,0-4.5,1.7-3.2,5c0.8,2.1,1.9,4,3,6c7.3,14.5,15.9,28.1,28.9,38.3
					c1.5,1.2,3.6,1.7,5.4,2.6c0.4-1.8,1.2-3.7,1.2-5.5C168.4,281.4,168.3,274.8,168.3,268.2z M168.3,70.2c0-7.4,0.1-14.9-0.1-22.3
					c0-1.1-0.5-2.8-1.3-3.2c-0.6-0.4-2.4,0.3-3.2,1c-14.2,13.3-27.2,27.6-36.2,45c-2.1,4.1-1.6,5,2.8,5c11,0.1,21.9-0.1,32.9,0.1
					c3.9,0,5.2-1.7,5.1-5.4C168.2,83.7,168.3,76.9,168.3,70.2z"/>
			</g>
		</g>
		<g>
			<defs>
				<rect id="SVGID_15_" x="-6.1" y="0.9" width="167.1" height="339"/>
			</defs>
			<clipPath id="SVGID_16_">
				<use xlink:href="#SVGID_15_"  style="overflow:visible;"/>
			</clipPath>
			<g class="st12">
				<path class="st2" d="M113.3,201.3c0,0,3.9,49.8,29.7,101.6c0,0,70.8,10.2,118.4-47.4C261.4,255.4,180.4,253.9,113.3,201.3z"/>
				<path class="st2" d="M107.5,147.1c0,0-41.2,28.3-73.1,76.5c0,0,26.6,66.4,100.3,78.8C134.8,302.4,95.6,231.6,107.5,147.1z"/>
				<path class="st2" d="M153,114.1c0,0-45.1-21.5-102.8-25c0,0-44.2,56.3-18,126.3C32.2,215.4,73.9,145.9,153,114.1z"/>
				<path class="st2" d="M203.4,136.2c0,0-4.4-49.8-30.6-101.3c0,0-70.9-9.5-118,48.5C54.8,83.5,135.8,84.2,203.4,136.2z"/>
				<path d="M209.6,191.4c0,0,41-28.5,72.6-76.9c0,0-27-66.2-100.8-78.2C181.4,36.3,221.1,106.9,209.6,191.4z"/>
				<path d="M163.6,223.4c0,0,45,21.7,102.7,25.5c0,0,44.5-56,18.7-126.2C284.9,122.7,242.8,191.9,163.6,223.4z"/>
				<circle class="st13" cx="158.7" cy="169.1" r="151.4"/>
			</g>
		</g>
		<g>
			<defs>
				<line id="SVGID_17_" x1="171.8" y1="0.6" x2="171.8" y2="11.4"/>
			</defs>
			<defs>
				<polyline id="SVGID_18_" points="171.8,11.4 171.8,339.6 336.1,339.6 336.1,0.6 				"/>
			</defs>
			<clipPath id="SVGID_19_">
				<use xlink:href="#SVGID_17_"  style="overflow:visible;"/>
			</clipPath>
			<clipPath id="SVGID_20_" class="st14">
				<use xlink:href="#SVGID_18_"  style="overflow:visible;"/>
			</clipPath>
			<g class="st15">
				<path class="st10" d="M166.7,320.4c35.4,1.3,71.5-9.9,101-34.3C332,233,341.3,137.6,288.5,73c-31.1-38-76.7-56.9-122.1-55.2"/>
				<path class="st10" d="M166.4,17.9c-31.8,1.2-63.5,12.5-89.9,34.3c-64.3,53.1-73.6,148.4-20.8,213c28.5,34.9,69.4,53.7,111,55.2"
					/>
			</g>
		</g>
	</g>
</g>
<g id="Calque_2">
	<g>
		
			<rect x="-2345" y="-38.6" transform="matrix(-1 -4.487223e-11 4.487223e-11 -1 -4502.7212 306.7372)" class="st16" width="187.2" height="384"/>
		<g>
			<path d="M-2386.2,194.1c0,0,4.1,52.2,31.1,106.3c0,0,74.1,10.7,124-49.7C-2231.1,250.7-2315.9,249.2-2386.2,194.1z"/>
			<path d="M-2392.2,137.3c0,0-43.1,29.6-76.5,80.1c0,0,27.9,69.5,105.1,82.5C-2363.7,300-2404.8,225.8-2392.2,137.3z"/>
			<path d="M-2344.6,102.7c0,0-47.2-22.5-107.7-26.2c0,0-46.2,58.9-18.9,132.3C-2471.1,208.8-2427.4,136.1-2344.6,102.7z"/>
			<path d="M-2291.8,125.9c0,0-4.6-52.1-32-106.1c0,0-74.2-10-123.6,50.8C-2447.4,70.7-2362.6,71.5-2291.8,125.9z"/>
			<path d="M-2285.3,183.8c0,0,42.9-29.9,76-80.6c0,0-28.3-69.4-105.5-81.9C-2314.8,21.3-2273.3,95.2-2285.3,183.8z"/>
			<path d="M-2333.5,217.2c0,0,47.1,22.7,107.5,26.7c0,0,46.5-58.7,19.6-132.2C-2206.4,111.8-2250.5,184.2-2333.5,217.2z"/>
			<circle class="st0" cx="-2338.7" cy="160.4" r="158.5"/>
		</g>
	</g>
</g>
</svg>
